<svg width="239" height="173" viewBox="0 0 239 173" fill="none" xmlns="http://www.w3.org/2000/svg">
<g clip-path="url(#clip0)">
<path d="M10.3588 86.9675C12.9474 81.7504 14.4115 77.2063 13.6289 76.8181C12.8463 76.4298 10.1135 80.3443 7.52491 85.5614C4.93634 90.7785 3.47229 95.3226 4.25485 95.7109C5.03742 96.0992 7.77027 92.1846 10.3588 86.9675Z" fill="#E0E0E0"/>
<path d="M141.669 152.183C144.258 146.966 145.925 142.523 145.393 142.259C144.862 141.995 142.332 146.01 139.744 151.227C137.155 156.445 135.488 160.888 136.019 161.152C136.551 161.415 139.081 157.4 141.669 152.183Z" fill="#E0E0E0"/>
<path d="M71.1054 125.808L66.2266 121.779L52.7979 138.042L57.6768 142.071L71.1054 125.808Z" fill="#F55F44"/>
<path opacity="0.05" d="M59.8863 143.369L66.8164 144.998L71.6436 124.467L64.7135 122.838L59.8863 143.369Z" fill="black"/>
<path d="M60.6572 143.55L66.8164 144.998L71.6436 124.467L65.4844 123.019L60.6572 143.55Z" fill="#F55F44"/>
<path d="M13.8623 76.3461L4.01953 96.1836L135.797 161.568L145.64 141.73L13.8623 76.3461Z" fill="url(#paint0_linear)"/>
<path d="M136.032 161.095C133.453 159.858 2.36532 94.7738 4.2546 95.7112C11.5303 84.6062 13.6286 76.8184 13.6286 76.8184L145.406 142.202C145.406 142.202 140.778 150.324 136.032 161.095Z" fill="#F5F5F5"/>
<path opacity="0.05" d="M82.1153 110.798L71.252 105.408L61.8779 124.301L72.7413 129.691L82.1153 110.798Z" fill="black"/>
<path d="M81.6414 110.564L71.7227 105.643L62.3486 124.535L72.2673 129.457L81.6414 110.564Z" fill="#F55F44"/>
<path opacity="0.05" d="M79.7531 109.627L73.1406 106.346L63.7666 125.239L70.3791 128.519L79.7531 109.627Z" fill="black"/>
<path d="M79.2811 109.392L73.6133 106.58L64.2392 125.473L69.9071 128.285L79.2811 109.392Z" fill="#F55F44"/>
<path d="M78.5178 170.327C79.0033 170.327 79.3969 169.933 79.3969 169.447C79.3969 168.962 79.0033 168.568 78.5178 168.568C78.0323 168.568 77.6387 168.962 77.6387 169.447C77.6387 169.933 78.0323 170.327 78.5178 170.327Z" fill="#DBDBDB"/>
<g opacity="0.5">
<path opacity="0.5" d="M9.73347 144.83H8.83203V149.938H9.73347V144.83Z" fill="#47E6B1"/>
<path opacity="0.5" d="M11.8359 147.835V146.934H6.72778V147.835H11.8359Z" fill="#47E6B1"/>
</g>
<g opacity="0.5">
<path opacity="0.5" d="M236.898 81.1289H235.996V86.2371H236.898V81.1289Z" fill="#47E6B1"/>
<path opacity="0.5" d="M239 84.1339V83.2324H233.892V84.1339H239Z" fill="#47E6B1"/>
</g>
<g opacity="0.5">
<path opacity="0.5" d="M15.1436 17.7285H14.2422V22.8367H15.1436V17.7285Z" fill="#47E6B1"/>
<path opacity="0.5" d="M17.2461 20.7335V19.832H12.1379V20.7335H17.2461Z" fill="#47E6B1"/>
</g>
<g opacity="0.5">
<path opacity="0.5" d="M209.853 9.91602H208.951V15.0242H209.853V9.91602Z" fill="#47E6B1"/>
<path opacity="0.5" d="M211.955 12.921V12.0195H206.847V12.921H211.955Z" fill="#47E6B1"/>
</g>
<path opacity="0.5" d="M3.69334 76.1575C3.44492 76.0493 3.24496 75.8535 3.13152 75.6074C3.01807 75.3614 2.99906 75.0822 3.07811 74.823C3.09091 74.7833 3.09896 74.7422 3.10212 74.7006C3.10935 74.5818 3.07814 74.4639 3.01312 74.3643C2.94809 74.2647 2.85272 74.1887 2.74111 74.1475C2.6295 74.1063 2.5076 74.1022 2.39346 74.1357C2.27932 74.1692 2.17902 74.2386 2.1074 74.3336C2.08277 74.3673 2.06221 74.4038 2.04613 74.4423C1.93794 74.6908 1.74218 74.8907 1.49612 75.0042C1.25006 75.1176 0.970871 75.1366 0.711703 75.0576C0.67197 75.0448 0.630864 75.0367 0.589243 75.0336C0.470503 75.0263 0.352593 75.0575 0.252977 75.1226C0.153362 75.1876 0.0773393 75.283 0.0361684 75.3946C-0.00500261 75.5062 -0.00913048 75.6281 0.0243942 75.7422C0.0579189 75.8564 0.127312 75.9567 0.222299 76.0283C0.256002 76.0529 0.292492 76.0735 0.331013 76.0896C0.579431 76.1978 0.779395 76.3935 0.892841 76.6396C1.00629 76.8856 1.02529 77.1648 0.946242 77.424C0.933449 77.4637 0.92539 77.5048 0.92223 77.5464C0.915002 77.6652 0.946214 77.7831 1.01124 77.8827C1.07626 77.9823 1.17164 78.0584 1.28325 78.0995C1.39486 78.1407 1.51676 78.1448 1.6309 78.1113C1.74504 78.0778 1.84534 78.0084 1.91696 77.9134C1.94158 77.8797 1.96215 77.8432 1.97822 77.8047C2.08642 77.5563 2.28217 77.3563 2.52824 77.2428C2.7743 77.1294 3.05349 77.1104 3.31265 77.1894C3.35239 77.2022 3.39349 77.2103 3.43511 77.2135C3.55385 77.2207 3.67177 77.1895 3.77138 77.1244C3.871 77.0594 3.94703 76.964 3.9882 76.8524C4.02937 76.7408 4.0335 76.6189 3.99997 76.5048C3.96645 76.3907 3.89705 76.2903 3.80206 76.2187C3.76835 76.1941 3.73186 76.1735 3.69334 76.1575Z" fill="#4D8AF0"/>
<path opacity="0.5" d="M55.375 16.9641C55.1266 16.8559 54.9266 16.6602 54.8132 16.4141C54.6997 16.168 54.6807 15.8888 54.7598 15.6297C54.7726 15.5899 54.7806 15.5488 54.7838 15.5072C54.791 15.3885 54.7598 15.2706 54.6948 15.171C54.6297 15.0713 54.5344 14.9953 54.4228 14.9541C54.3111 14.913 54.1892 14.9088 54.0751 14.9424C53.961 14.9759 53.8607 15.0453 53.789 15.1403C53.7644 15.174 53.7438 15.2105 53.7278 15.249C53.6196 15.4974 53.4238 15.6974 53.1778 15.8108C52.9317 15.9243 52.6525 15.9433 52.3933 15.8642C52.3536 15.8514 52.3125 15.8434 52.2709 15.8402C52.1522 15.833 52.0342 15.8642 51.9346 15.9292C51.835 15.9942 51.759 16.0896 51.7178 16.2012C51.6766 16.3128 51.6725 16.4347 51.706 16.5489C51.7396 16.663 51.809 16.7633 51.9039 16.8349C51.9377 16.8596 51.9741 16.8801 52.0127 16.8962C52.2611 17.0044 52.461 17.2002 52.5745 17.4462C52.6879 17.6923 52.7069 17.9715 52.6279 18.2306C52.6151 18.2704 52.607 18.3115 52.6039 18.3531C52.5967 18.4718 52.6279 18.5897 52.6929 18.6894C52.7579 18.789 52.8533 18.865 52.9649 18.9062C53.0765 18.9473 53.1984 18.9515 53.3125 18.9179C53.4267 18.8844 53.527 18.815 53.5986 18.72C53.6232 18.6863 53.6438 18.6498 53.6599 18.6113C53.7681 18.3629 53.9638 18.1629 54.2099 18.0495C54.4559 17.936 54.7351 17.917 54.9943 17.9961C55.034 18.0089 55.0751 18.0169 55.1168 18.0201C55.2355 18.0273 55.3534 17.9961 55.453 17.9311C55.5526 17.8661 55.6287 17.7707 55.6698 17.6591C55.711 17.5475 55.7151 17.4256 55.6816 17.3114C55.6481 17.1973 55.5787 17.097 55.4837 17.0254C55.45 17.0008 55.4135 16.9802 55.375 16.9641Z" fill="#4D8AF0"/>
<path opacity="0.5" d="M118.477 170.509C118.228 170.401 118.028 170.205 117.915 169.959C117.801 169.713 117.782 169.434 117.861 169.175C117.874 169.135 117.882 169.094 117.885 169.052C117.893 168.933 117.861 168.815 117.796 168.716C117.731 168.616 117.636 168.54 117.524 168.499C117.413 168.458 117.291 168.454 117.177 168.487C117.063 168.521 116.962 168.59 116.891 168.685C116.866 168.719 116.845 168.755 116.829 168.794C116.721 169.042 116.525 169.242 116.279 169.356C116.033 169.469 115.754 169.488 115.495 169.409C115.455 169.396 115.414 169.388 115.372 169.385C115.254 169.378 115.136 169.409 115.036 169.474C114.937 169.539 114.861 169.635 114.819 169.746C114.778 169.858 114.774 169.98 114.808 170.094C114.841 170.208 114.911 170.308 115.006 170.38C115.039 170.404 115.076 170.425 115.114 170.441C115.363 170.549 115.563 170.745 115.676 170.991C115.789 171.237 115.808 171.516 115.729 171.776C115.717 171.815 115.709 171.856 115.705 171.898C115.698 172.017 115.729 172.135 115.794 172.234C115.859 172.334 115.955 172.41 116.066 172.451C116.178 172.492 116.3 172.496 116.414 172.463C116.528 172.429 116.629 172.36 116.7 172.265C116.725 172.231 116.745 172.195 116.761 172.156C116.87 171.908 117.065 171.708 117.311 171.594C117.558 171.481 117.837 171.462 118.096 171.541C118.136 171.554 118.177 171.562 118.218 171.565C118.337 171.572 118.455 171.541 118.555 171.476C118.654 171.411 118.73 171.316 118.771 171.204C118.813 171.092 118.817 170.97 118.783 170.856C118.75 170.742 118.68 170.642 118.585 170.57C118.552 170.546 118.515 170.525 118.477 170.509Z" fill="#4D8AF0"/>
<path opacity="0.5" d="M228.184 135.215C229.179 135.215 229.987 134.408 229.987 133.412C229.987 132.417 229.179 131.609 228.184 131.609C227.188 131.609 226.381 132.417 226.381 133.412C226.381 134.408 227.188 135.215 228.184 135.215Z" fill="#F55F44"/>
<path opacity="0.5" d="M188.52 146.633C189.515 146.633 190.323 145.826 190.323 144.83C190.323 143.835 189.515 143.027 188.52 143.027C187.524 143.027 186.717 143.835 186.717 144.83C186.717 145.826 187.524 146.633 188.52 146.633Z" fill="#4D8AF0"/>
<path opacity="0.5" d="M31.0685 164.362C32.0642 164.362 32.8714 163.554 32.8714 162.559C32.8714 161.563 32.0642 160.756 31.0685 160.756C30.0728 160.756 29.2656 161.563 29.2656 162.559C29.2656 163.554 30.0728 164.362 31.0685 164.362Z" fill="#47E6B1"/>
<path opacity="0.5" d="M123.615 3.60576C124.611 3.60576 125.418 2.79858 125.418 1.80288C125.418 0.807177 124.611 0 123.615 0C122.62 0 121.812 0.807177 121.812 1.80288C121.812 2.79858 122.62 3.60576 123.615 3.60576Z" fill="#F55F44"/>
<path d="M61.567 107.421L54.3555 118.238C54.3555 118.238 56.7593 129.356 109.944 129.055C163.129 128.755 167.336 118.238 167.336 118.238L157.42 103.815L127.072 83.082L61.567 107.421Z" fill="#1E5DD6"/>
<path opacity="0.15" d="M61.567 107.421L54.3555 118.238C54.3555 118.238 56.7593 129.356 109.944 129.055C163.129 128.755 167.336 118.238 167.336 118.238L157.42 103.815L127.072 83.082L61.567 107.421Z" fill="black"/>
<path d="M214.961 67.3073L120.31 109.074L4.92578 67.3073L110.695 19.2305L162.615 43.1697L164.475 44.0291L214.961 67.3073Z" fill="#1E5DD6"/>
<path opacity="0.15" d="M214.961 67.3073L120.31 109.074L4.92578 67.3073L110.695 19.2305L162.615 43.1697L164.475 44.0291L214.961 67.3073Z" fill="black"/>
<path d="M166.434 77.3195L164.631 77.4276L162.615 43.1699L164.475 44.0293L166.434 77.3195Z" fill="#F5F5F5"/>
<path d="M62.7689 67.1574L54.3555 118.239C54.3555 118.239 114.752 98.7078 167.336 118.239L159.523 64.1526C159.523 64.1526 88.9107 55.4387 62.7689 67.1574Z" fill="#1E5DD6"/>
<path d="M166.284 87.7399C171.097 87.7399 174.998 85.0493 174.998 81.7303C174.998 78.4113 171.097 75.7207 166.284 75.7207C161.472 75.7207 157.57 78.4113 157.57 81.7303C157.57 85.0493 161.472 87.7399 166.284 87.7399Z" fill="#F5F5F5"/>
</g>
<defs>
<linearGradient id="paint0_linear" x1="69.9082" y1="128.876" x2="79.7509" y2="109.038" gradientUnits="userSpaceOnUse">
<stop stop-color="#808080" stop-opacity="0.25"/>
<stop offset="0.53514" stop-color="#808080" stop-opacity="0.12"/>
<stop offset="1" stop-color="#808080" stop-opacity="0.1"/>
</linearGradient>
<clipPath id="clip0">
<rect width="239" height="172.487" fill="white"/>
</clipPath>
</defs>
</svg>
