<svg width="13" height="14" viewBox="0 0 13 14" fill="none" xmlns="http://www.w3.org/2000/svg">
<path d="M8.21174 12.4698V9.2908C8.21174 9.15029 8.15747 9.01553 8.06086 8.91617C7.96425 8.81681 7.83322 8.76099 7.69659 8.76099H5.63599C5.49936 8.76099 5.36833 8.81681 5.27172 8.91617C5.17511 9.01553 5.12083 9.15029 5.12083 9.2908V12.4698C5.12083 12.6103 5.06657 12.745 4.96997 12.8444C4.87338 12.9437 4.74236 12.9996 4.60575 12.9996L1.51522 13C1.44756 13 1.38056 12.9863 1.31806 12.9597C1.25555 12.9331 1.19875 12.894 1.15091 12.8448C1.10306 12.7956 1.06511 12.7372 1.03922 12.6729C1.01333 12.6087 1 12.5398 1 12.4702V6.34682C1 6.273 1.015 6.2 1.04403 6.1325C1.07306 6.06499 1.11549 6.00447 1.16859 5.95481L6.31975 1.13781C6.41458 1.04914 6.53813 1 6.6663 1C6.79446 0.999996 6.91802 1.04912 7.01285 1.13779L12.1647 5.95481C12.2178 6.00447 12.2603 6.06499 12.2893 6.1325C12.3183 6.20001 12.3333 6.27302 12.3333 6.34684V12.4702C12.3333 12.5398 12.32 12.6087 12.2941 12.673C12.2682 12.7372 12.2303 12.7956 12.1824 12.8448C12.1346 12.894 12.0778 12.9331 12.0153 12.9597C11.9528 12.9863 11.8858 13 11.8181 13L8.72683 12.9996C8.59021 12.9996 8.4592 12.9437 8.3626 12.8444C8.26601 12.745 8.21174 12.6103 8.21174 12.4698Z" stroke="#4664E6" stroke-linecap="round" stroke-linejoin="round"/>
</svg>
