<svg width="12" height="14" viewBox="0 0 12 14" fill="none" xmlns="http://www.w3.org/2000/svg">
<path d="M10.5005 13H1.5C1.36739 13 1.24021 12.9473 1.14645 12.8536C1.05268 12.7598 1 12.6326 1 12.5V1.5C1 1.36739 1.05268 1.24021 1.14645 1.14645C1.24021 1.05268 1.36739 1 1.5 1H7.50049L11.0005 4.5V12.5C11.0005 12.5657 10.9876 12.6307 10.9624 12.6913C10.9373 12.752 10.9005 12.8071 10.854 12.8536C10.8076 12.9 10.7525 12.9368 10.6918 12.9619C10.6312 12.9871 10.5661 13 10.5005 13Z" stroke="#949FAF" stroke-linecap="round" stroke-linejoin="round"/>
<path d="M7.49988 1V4.5H11.0004" stroke="#949FAF" stroke-linecap="round" stroke-linejoin="round"/>
<path d="M4.0011 7.5H8.0011" stroke="#949FAF" stroke-linecap="round" stroke-linejoin="round"/>
<path d="M4.0011 9.5H8.0011" stroke="#949FAF" stroke-linecap="round" stroke-linejoin="round"/>
</svg>
