<svg width="14" height="14" viewBox="0 0 14 14" fill="none" xmlns="http://www.w3.org/2000/svg">
<path d="M1.83965 10.0611C1.09388 8.80395 0.832702 7.31775 1.10517 5.88162C1.37763 4.44549 2.16499 3.15823 3.31939 2.26154C4.4738 1.36485 5.91584 0.920427 7.37473 1.01172C8.83363 1.10301 10.209 1.72374 11.2426 2.75735C12.2762 3.79096 12.897 5.16634 12.9883 6.62524C13.0796 8.08413 12.6352 9.52617 11.7385 10.6806C10.8418 11.835 9.55453 12.6224 8.1184 12.8948C6.68228 13.1673 5.19608 12.9061 3.93888 12.1604L3.9389 12.1603L1.86575 12.7526C1.77997 12.7771 1.68921 12.7783 1.60285 12.7559C1.5165 12.7335 1.4377 12.6884 1.37463 12.6254C1.31155 12.5623 1.26649 12.4835 1.24411 12.3971C1.22173 12.3108 1.22286 12.22 1.24736 12.1342L1.83969 10.0611L1.83965 10.0611Z" stroke="#4664E6" stroke-linecap="round" stroke-linejoin="round"/>
<path d="M7.00227 7.74672C7.41665 7.74672 7.75258 7.41079 7.75258 6.99641C7.75258 6.58202 7.41665 6.24609 7.00227 6.24609C6.58788 6.24609 6.25195 6.58202 6.25195 6.99641C6.25195 7.41079 6.58788 7.74672 7.00227 7.74672Z" fill="#4664E6"/>
<path d="M4.00129 7.74672C4.41568 7.74672 4.7516 7.41079 4.7516 6.99641C4.7516 6.58202 4.41568 6.24609 4.00129 6.24609C3.5869 6.24609 3.25098 6.58202 3.25098 6.99641C3.25098 7.41079 3.5869 7.74672 4.00129 7.74672Z" fill="#4664E6"/>
<path d="M10.0042 7.74672C10.4186 7.74672 10.7545 7.41079 10.7545 6.99641C10.7545 6.58202 10.4186 6.24609 10.0042 6.24609C9.58983 6.24609 9.25391 6.58202 9.25391 6.99641C9.25391 7.41079 9.58983 7.74672 10.0042 7.74672Z" fill="#4664E6"/>
</svg>
