<svg width="14" height="14" viewBox="0 0 14 14" fill="none" xmlns="http://www.w3.org/2000/svg">
<path d="M7 13C10.3137 13 13 10.3137 13 7C13 3.68629 10.3137 1 7 1C3.68629 1 1 3.68629 1 7C1 10.3137 3.68629 13 7 13Z" stroke="#949FAF" stroke-miterlimit="10"/>
<path d="M6.99988 9C8.38059 9 9.49988 7.88071 9.49988 6.5C9.49988 5.11929 8.38059 4 6.99988 4C5.61917 4 4.49988 5.11929 4.49988 6.5C4.49988 7.88071 5.61917 9 6.99988 9Z" stroke="#949FAF" stroke-miterlimit="10"/>
<path d="M2.98743 11.4609C3.36406 10.7204 3.93825 10.0986 4.64644 9.66422C5.35464 9.22989 6.16921 9 6.99998 9C7.83075 9 8.64532 9.22989 9.35351 9.66421C10.0617 10.0985 10.6359 10.7204 11.0125 11.4609" stroke="#949FAF" stroke-linecap="round" stroke-linejoin="round"/>
</svg>
