<svg width="14" height="14" viewBox="0 0 14 14" fill="none" xmlns="http://www.w3.org/2000/svg">
<path d="M7 13C10.3137 13 13 10.3137 13 7C13 3.68629 10.3137 1 7 1C3.68629 1 1 3.68629 1 7C1 10.3137 3.68629 13 7 13Z" stroke="#4664E6" stroke-miterlimit="10"/>
<path d="M7 9C8.38071 9 9.5 7.88071 9.5 6.5C9.5 5.11929 8.38071 4 7 4C5.61929 4 4.5 5.11929 4.5 6.5C4.5 7.88071 5.61929 9 7 9Z" stroke="#4664E6" stroke-miterlimit="10"/>
<path d="M2.98828 11.4609C3.36491 10.7204 3.93911 10.0986 4.6473 9.66422C5.35549 9.22989 6.17006 9 7.00083 9C7.8316 9 8.64617 9.22989 9.35437 9.66421C10.0626 10.0985 10.6368 10.7204 11.0134 11.4609" stroke="#4664E6" stroke-linecap="round" stroke-linejoin="round"/>
</svg>
