<svg width="14" height="14" viewBox="0 0 14 14" fill="none" xmlns="http://www.w3.org/2000/svg">
<path d="M4.71915 13H1.53131C1.3904 13 1.25526 12.944 1.15562 12.8444C1.05598 12.7447 1 12.6096 1 12.4687V9.50092C1 9.43115 1.01374 9.36206 1.04044 9.2976C1.06714 9.23314 1.10628 9.17456 1.15562 9.12523L9.12523 1.15562C9.22487 1.05598 9.36001 1 9.50092 1C9.64183 1 9.77697 1.05598 9.87661 1.15562L12.8444 4.12339C12.944 4.22303 13 4.35817 13 4.49908C13 4.63999 12.944 4.77513 12.8444 4.87477L4.71915 13Z" stroke="#949FAF" stroke-linecap="round" stroke-linejoin="round"/>
<path d="M7.3761 2.9043L11.0953 6.62345" stroke="#949FAF" stroke-linecap="round" stroke-linejoin="round"/>
<path d="M12.6887 12.9998H4.71904L1.03369 9.31445" stroke="#949FAF" stroke-linecap="round" stroke-linejoin="round"/>
</svg>
