<svg width="24" height="25" viewBox="0 0 24 25" fill="none" xmlns="http://www.w3.org/2000/svg">
<path d="M12 15.0137C14.0711 15.0137 15.75 13.3347 15.75 11.2637C15.75 9.1926 14.0711 7.51367 12 7.51367C9.92893 7.51367 8.25 9.1926 8.25 11.2637C8.25 13.3347 9.92893 15.0137 12 15.0137Z" stroke="#1E5DD6" stroke-width="1.5" stroke-miterlimit="10"/>
<path d="M5.98145 18.705C6.54639 17.5942 7.40768 16.6615 8.46997 16.01C9.53226 15.3585 10.7541 15.0137 12.0003 15.0137C13.2464 15.0137 14.4683 15.3585 15.5306 16.01C16.5929 16.6615 17.4542 17.5942 18.0191 18.705" stroke="#1E5DD6" stroke-width="1.5" stroke-linecap="round" stroke-linejoin="round"/>
<path d="M16.5 5.26367H21" stroke="#1E5DD6" stroke-width="1.5" stroke-linecap="round" stroke-linejoin="round"/>
<path d="M18.75 3.01367V7.51367" stroke="#1E5DD6" stroke-width="1.5" stroke-linecap="round" stroke-linejoin="round"/>
<path d="M20.889 10.5941C21.1869 12.4696 20.8834 14.3913 20.0218 16.0837C19.1602 17.776 17.7849 19.1521 16.093 20.0146C14.4012 20.8772 12.4797 21.1818 10.604 20.885C8.72828 20.5881 6.99475 19.705 5.65193 18.3621C4.30911 17.0193 3.42596 15.2858 3.1291 13.4101C2.83224 11.5344 3.13691 9.61286 3.99944 7.921C4.86196 6.22913 6.23804 4.85382 7.93039 3.99225C9.62274 3.13068 11.5444 2.82709 13.42 3.12501" stroke="#1E5DD6" stroke-width="1.5" stroke-linecap="round" stroke-linejoin="round"/>
</svg>
