<svg width="23" height="17" viewBox="0 0 23 17" fill="none" xmlns="http://www.w3.org/2000/svg">
<path d="M11.5 16.9984C9.61386 17.0232 7.74721 16.5934 6.0421 15.7418C4.7204 15.061 3.53355 14.1207 2.54495 12.9712C1.4978 11.7828 0.673287 10.3957 0.115 8.88336L0 8.49971L0.12075 8.11605C0.679437 6.60502 1.50217 5.21832 2.5461 4.02818C3.53434 2.87881 4.72079 1.93855 6.0421 1.2576C7.74722 0.406021 9.61386 -0.0237424 11.5 0.00101179C13.3861 -0.0236997 15.2528 0.406062 16.9579 1.2576C18.2796 1.93839 19.4665 2.87866 20.455 4.02818C21.5042 5.21503 22.3289 6.60251 22.885 8.11605L23 8.49971L22.8792 8.88336C21.0751 13.8415 16.5303 17.0826 11.5 16.9984ZM11.5 2.42921C7.58525 2.2997 3.99213 4.70576 2.43455 8.49971C3.99188 12.2939 7.58516 14.7001 11.5 14.5702C15.4147 14.6994 19.0076 12.2934 20.5654 8.49971C19.0099 4.70392 15.4155 2.29697 11.5 2.42921ZM11.5 12.142C9.84092 12.1536 8.40577 10.9247 8.07411 9.20846C7.74245 7.49223 8.60691 5.76801 10.1377 5.09253C11.6685 4.41705 13.438 4.97898 14.3618 6.43392C15.2856 7.88887 15.1057 9.83045 13.9322 11.0687C13.2898 11.755 12.414 12.1415 11.5 12.142Z" fill="#1E5DD6"/>
</svg>
