<svg width="1433" height="998" viewBox="0 0 1433 998" fill="none" xmlns="http://www.w3.org/2000/svg">
<path d="M507.995 249.752C522.295 249.752 533.888 238.141 533.888 223.819C533.888 209.497 522.295 197.887 507.995 197.887C493.695 197.887 482.102 209.497 482.102 223.819C482.102 238.141 493.695 249.752 507.995 249.752Z" fill="#1E5DD6"/>
<path opacity="0.1" d="M504.831 276.611C515.703 301.205 501.835 329.525 485.511 350.85C480.047 358.001 474.015 365.498 473.257 374.467C472.344 385.439 479.763 395.525 488.563 402.118C504.614 414.133 526.536 417.848 545.64 411.785C562.148 406.547 576.028 394.716 592.681 389.946C620.529 381.959 650.047 395.201 673.896 411.701C690.778 423.365 708.857 437.578 729.208 435.079C743.528 433.321 755.68 423.253 763.929 411.4C767.911 405.677 771.376 399.262 777.173 395.402C780.621 393.104 784.67 391.888 788.719 391.017C825.696 383.102 864.939 402.419 901.426 392.484C926.071 385.791 945.721 366.268 957.94 343.805C970.16 321.342 975.863 295.978 980.614 270.849C983.989 252.999 986.791 233.716 979.032 217.3C970.823 199.919 951.819 189.382 932.721 187.407C913.623 185.432 894.469 190.882 876.875 198.569C854.892 208.196 833.343 221.673 809.349 221.718C793.008 221.751 777.424 215.47 761.801 210.679C735.68 202.674 708.517 198.697 681.449 195.027C655.534 191.512 629.362 188.244 603.291 190.319C584.844 191.786 568.553 198.848 550.653 202.116C538.984 204.247 527.26 202.674 515.809 206.244C501.707 210.662 487.204 220.898 486.424 237.018C485.689 252.364 499.067 263.564 504.831 276.611Z" fill="#1E5DD6"/>
<path d="M790.245 298.511C787.867 292.302 781.735 277.71 777.697 280.605C772.595 284.264 782.799 300.43 782.799 300.43C783.088 303.397 777.352 309.572 774.277 312.651C774.277 312.406 774.277 312.266 774.277 312.266C774.248 312.383 774.203 312.496 774.144 312.601L773.887 312.461C773.819 312.707 773.695 312.935 773.525 313.125C773.525 312.707 773.498 312.461 773.498 312.461C772.907 314.966 762.603 318.14 762.603 318.14C762.603 318.14 762.325 318.14 761.846 318.14C758.983 318.14 751.531 317.493 748.078 311.959C746.292 308.962 744.007 306.292 741.322 304.066C740.403 303.345 739.286 302.921 738.12 302.85C728.579 302.237 720.854 297.401 719.311 296.369L719.027 296.173L718.966 296.352C718.604 295.833 718.253 295.281 717.924 294.712L717.757 294.405C720.067 293.244 722.01 291.465 723.371 289.266C724.733 287.066 725.46 284.532 725.471 281.944C725.471 281.849 725.471 281.749 725.471 281.654C726.31 280.201 726.752 278.552 726.752 276.873V275.2L728.93 273.259C729.927 272.372 730.957 271.435 731.464 270.213C731.667 269.719 731.759 269.185 731.731 268.651C731.78 268.194 731.712 267.731 731.532 267.308C731.353 266.884 731.069 266.513 730.706 266.23C729.036 265.076 726.251 266.23 725.042 264.624C724.485 263.899 724.585 262.911 724.313 262.058C723.756 260.323 721.751 259.386 719.896 259.358C718.041 259.33 716.264 260.005 714.482 260.513C710.738 261.578 706.83 261.944 702.953 261.595C701.904 261.408 700.828 261.446 699.795 261.707C699.164 261.968 698.604 262.374 698.159 262.892C697.713 263.411 697.396 264.027 697.233 264.691C697.095 265.19 697.013 265.702 696.988 266.219C695.434 267.975 694.575 270.238 694.571 272.584V276.873C694.574 279.163 695.394 281.377 696.882 283.115C697.058 285.134 697.671 287.089 698.678 288.846C699.685 290.604 701.062 292.12 702.714 293.29C702.714 293.401 702.714 293.515 702.714 293.63L702.786 293.674C702.696 295.004 702.491 296.324 702.173 297.618V297.334C702.173 297.334 694.376 301.489 686.022 301.59H685.103C683.455 301.534 681.852 302.136 680.647 303.263C678.174 305.595 673.841 309.282 671.179 309.282C670.622 309.282 656.564 312.032 654.236 312.489L649.886 308.222L649.752 308.473L649.496 308.222C649.02 308.259 648.548 308.328 648.081 308.428C645.854 305.784 641.398 299.637 640.368 291.387C640.368 291.387 649.986 280.415 646.45 270.191C643.431 261.478 635.115 280.153 632.754 285.782C632.341 286.764 632.29 287.861 632.609 288.877L640.423 314.101C639.679 316.056 639.466 318.173 639.805 320.237H639.716L645.408 327.55C645.408 327.55 649.691 329.38 656.391 329.346C661.302 329.354 666.169 328.419 670.727 326.591H672.047L671.797 326.685H678.575L682.886 339.744C682.741 340.932 680.658 357.515 678.987 361.225C678.491 362.464 678.267 363.796 678.33 365.129C678.418 367.692 678.835 370.232 679.572 372.688L683.348 372.548L683.203 372.844C680.006 379.409 674.665 391.107 671.507 402.04L666.01 413.196L670.132 463.231H670.299L670.616 463.281C671.062 463.348 671.73 463.448 672.61 463.56L672.287 464.118L663.203 479.179C663.203 479.179 656.725 492.46 671.056 489.955C671.056 489.955 676.353 488.416 678.514 479.357L687.937 470.505C687.937 470.505 688.377 464.625 685.71 462.277C685.543 459.561 685.119 451.629 685.771 449.721C686.556 447.411 682.429 420.854 682.429 420.854C682.429 420.854 697.345 389.868 706.378 389.098C707.041 389.052 707.705 389.139 708.333 389.355C715.758 391.776 724.753 409.754 727.398 415.349L727.521 415.605V415.656L727.621 415.873V415.934L727.71 416.124V416.174L727.788 416.347V416.386L727.855 416.526V416.582L727.905 416.688V416.732L727.938 416.81V416.855V416.905L727.966 416.972L729.141 451.807L729.258 451.868H729.314L729.214 452.588L728.701 456.186C728.701 456.186 735.179 469.852 734.783 471.581C734.388 473.31 739.1 480.244 745.772 478.32C752.445 476.395 748.473 465.546 748.473 465.546L742.046 452.281L741.762 451.69C742.402 451.296 743.006 450.846 743.567 450.346C743.567 450.346 741.606 436.105 743.567 433.026C745.527 429.947 746.117 415.895 746.117 415.895C746.117 415.895 744.742 406.273 742.386 402.04L732.517 366.758C735.474 369.514 737.774 370.59 739.696 370.518H740.013C740.858 370.534 741.692 370.326 742.43 369.915C742.827 369.691 743.2 369.428 743.544 369.129C743.61 369.072 743.671 369.011 743.728 368.945C746.474 366.636 740.587 357.588 737.251 352.211C734.037 347.023 738.465 332.927 738.799 331.879C739.096 331.66 739.416 331.473 739.751 331.321C740.442 331.024 741.183 330.863 741.935 330.847C745.132 330.958 749.064 332.799 753.932 333.725C757.315 334.301 760.743 334.568 764.174 334.523H764.375C765.739 334.523 766.976 334.495 767.978 334.456C768.893 334.42 769.788 334.178 770.596 333.747C771.289 333.343 771.916 332.835 772.456 332.241L781 322.574L780.777 322.68C781.191 321.584 781.191 320.374 780.777 319.278L789.805 303.659C790.261 302.89 790.537 302.027 790.614 301.135C790.69 300.244 790.564 299.347 790.245 298.511Z" fill="url(#paint0_linear)"/>
<path d="M688.812 469.183L679.717 477.912C677.634 486.837 672.515 488.349 672.515 488.349C658.686 490.814 664.935 477.751 664.935 477.751L673.707 462.885L674.788 461.05C674.788 461.05 681.042 459.153 685.208 460.291C685.734 460.436 686.22 460.699 686.629 461.061C689.241 463.331 688.812 469.183 688.812 469.183Z" fill="#444176"/>
<path d="M744.892 476.964C738.448 478.86 733.903 472.033 734.31 470.32C734.716 468.608 728.423 455.159 728.423 455.159L728.913 451.612L729.37 448.326L739.952 449.085L740.949 451.182L747.153 464.263C747.153 464.263 751.336 475.067 744.892 476.964Z" fill="#444176"/>
<path opacity="0.1" d="M686.729 462.543C685.732 464.256 677.65 463.391 673.713 462.856L674.793 461.021C674.793 461.021 681.048 459.124 685.214 460.262C685.74 460.406 686.226 460.67 686.634 461.032C686.69 461.958 686.729 462.543 686.729 462.543Z" fill="black"/>
<path opacity="0.1" d="M740.96 451.17C735.541 454.785 729.771 452.052 728.902 451.6L729.359 448.314L739.941 449.073L740.96 451.17Z" fill="black"/>
<path d="M742.43 432.183C740.537 435.218 742.43 449.263 742.43 449.263C736.176 454.958 728.79 450.781 728.79 450.781L727.677 416.436C727.677 416.436 715.362 388.161 706.646 388.92C697.929 389.678 683.532 420.229 683.532 420.229C683.532 420.229 687.509 446.413 686.751 448.678C685.994 450.942 686.751 461.959 686.751 461.959C685.426 464.235 671.596 461.959 671.596 461.959L667.62 412.621L672.9 401.61C675.935 390.833 681.092 379.298 684.178 372.827C685.71 369.609 686.734 367.645 686.734 367.645L696.815 365.542L729.537 358.748L741.294 401.61C743.567 405.782 744.892 415.271 744.892 415.271C744.892 415.271 744.324 429.149 742.43 432.183Z" fill="#565387"/>
<g opacity="0.1">
<path opacity="0.1" d="M731.82 450.782L730.706 416.438C730.706 416.438 718.392 388.163 709.675 388.921C709.286 388.959 708.902 389.045 708.534 389.178C717.033 392.006 727.676 416.438 727.676 416.438L728.79 450.782C731.114 451.968 733.734 452.447 736.326 452.16C734.755 451.971 733.229 451.504 731.82 450.782Z" fill="black"/>
<path opacity="0.1" d="M674.604 461.976L670.627 412.639L675.929 401.611C678.965 390.834 684.122 379.298 687.208 372.828C688.739 369.609 689.764 367.646 689.764 367.646L699.845 365.543L729.715 359.323L729.553 358.727L696.815 365.543L686.734 367.646C686.734 367.646 685.709 369.609 684.178 372.828C681.081 379.298 675.935 390.856 672.899 401.611L667.597 412.616L671.574 461.954C671.574 461.954 679.126 463.198 683.604 462.925C680.59 462.761 677.586 462.444 674.604 461.976Z" fill="black"/>
</g>
<path d="M651.563 309.131C651.563 309.131 640.763 309.689 642.278 321.085L645.308 321.464L649.853 316.533L652.125 312.361V311.412L651.563 309.131Z" fill="#CED2DF"/>
<path opacity="0.1" d="M651.563 309.131C651.563 309.131 640.763 309.689 642.278 321.085L645.308 321.464L649.853 316.533L652.125 312.361V311.412L651.563 309.131Z" fill="black"/>
<path d="M771.704 313.305C771.704 313.305 780.616 318.046 778.338 323.552L775.497 324.667L771.71 322.581L771.153 317.65L771.532 314.236L771.704 313.305Z" fill="#CED2DF"/>
<path opacity="0.1" d="M771.704 313.305C771.704 313.305 780.616 318.046 778.338 323.552L775.497 324.667L771.71 322.581L771.153 317.65L771.532 314.236L771.704 313.305Z" fill="black"/>
<path d="M714.488 264.344H706.907C700.42 264.344 695.161 269.611 695.161 276.108C695.161 282.605 700.42 287.872 706.907 287.872H714.488C720.975 287.872 726.234 282.605 726.234 276.108C726.234 269.611 720.975 264.344 714.488 264.344Z" fill="#88455E"/>
<path d="M651.49 310.742L644.857 321.341L644.3 319.455L635.288 290.048C634.98 289.045 635.029 287.967 635.427 286.996C637.705 281.452 645.737 263.011 648.65 271.629C652.058 281.669 642.774 292.502 642.774 292.502C643.832 301.293 648.761 307.663 650.699 309.872C651.189 310.447 651.49 310.742 651.49 310.742Z" fill="#EC8C9C"/>
<path d="M770.284 315.295C770.284 315.295 780.705 305.427 780.309 301.445C780.309 301.445 770.457 285.508 775.386 281.921C779.284 279.066 785.205 293.457 787.5 299.576C787.803 300.391 787.925 301.263 787.856 302.13C787.788 302.997 787.531 303.839 787.104 304.596L774.651 326.68L770.284 315.295Z" fill="#EC8C9C"/>
<path d="M702.83 287.784C702.83 287.784 704.724 299.927 699.232 304.485C693.741 309.042 714.961 309.014 714.961 309.014L722.541 301.991C722.541 301.991 713.825 293.831 716.476 287.762L702.83 287.784Z" fill="#EC8C9C"/>
<path opacity="0.1" d="M702.452 301.634C702.452 301.634 710.6 307.708 718.743 300.875L732.004 328.392L731.247 361.977C731.247 361.977 703.772 376.207 692.404 367.483C681.037 358.759 690.511 354.201 690.511 354.201L687.859 328.397L690.7 311.696C690.7 311.696 695.813 303.725 696.197 303.725C696.581 303.725 702.452 301.634 702.452 301.634Z" fill="black"/>
<path d="M702.452 301.255C702.452 301.255 710.6 307.34 718.748 300.496L732.01 328.013L731.252 361.598C731.252 361.598 703.777 375.828 692.41 367.104C681.042 358.38 690.516 353.822 690.516 353.822L687.865 328.018L690.706 311.318C690.706 311.318 695.818 303.346 696.203 303.346C696.587 303.346 702.452 301.255 702.452 301.255Z" fill="#EBF1F6"/>
<path opacity="0.1" d="M702.452 298.416C702.452 298.416 694.727 302.823 686.339 302.605C685.552 302.58 684.768 302.713 684.033 302.994C683.298 303.276 682.626 303.701 682.056 304.245C679.667 306.543 675.484 310.18 672.894 310.18C672.337 310.18 656.219 313.404 656.219 313.404L651.958 309.137C651.958 309.137 645.608 321.565 642.579 320.996L648.076 328.208C648.076 328.208 658.497 332.76 672.136 327.26H680.095L684.261 340.162C684.261 340.162 682.178 357.622 680.474 361.415C678.77 365.208 681.031 372.61 681.031 372.61L695.997 372.052C695.997 372.052 696.754 364.65 697.89 363.685C699.026 362.72 693.914 330.099 693.914 330.099C693.914 330.099 690.505 311.692 703.009 305.054L702.452 298.416Z" fill="black"/>
<path opacity="0.1" d="M696.81 365.564C696.259 367.816 695.866 370.103 695.635 372.409L684.178 372.844C685.71 369.625 686.734 367.662 686.734 367.662L696.81 365.564Z" fill="black"/>
<path opacity="0.1" d="M651.49 310.743L644.857 321.341L644.3 319.456C646.734 317.035 649.585 311.976 650.722 309.867C651.189 310.447 651.49 310.743 651.49 310.743Z" fill="black"/>
<path d="M702.452 298.416C702.452 298.416 694.342 302.823 685.96 302.605C685.173 302.58 684.389 302.713 683.654 302.994C682.919 303.276 682.247 303.701 681.677 304.245C679.288 306.543 675.105 310.18 672.515 310.18C671.958 310.18 655.84 313.404 655.84 313.404L651.562 309.131C651.562 309.131 645.213 321.559 642.183 320.99L647.68 328.203C647.68 328.203 658.101 332.755 671.741 327.255H679.7L683.866 340.151C683.866 340.151 681.783 357.61 680.079 361.404C678.374 365.197 680.636 372.599 680.636 372.599L695.601 372.041C695.601 372.041 696.359 364.639 697.495 363.674C698.631 362.709 693.518 330.088 693.518 330.088C693.518 330.088 690.109 311.681 702.613 305.043L702.452 298.416Z" fill="#CED2DF"/>
<path opacity="0.1" d="M718.748 297.266C718.748 297.266 726.479 303.167 736.799 303.848C737.929 303.919 739.008 304.338 739.891 305.047C742.493 307.258 744.699 309.9 746.413 312.856C750.579 319.689 760.81 318.931 760.81 318.931C760.81 318.931 770.757 315.802 771.325 313.353C771.325 313.353 771.609 326.74 777.864 323.505L769.638 332.999C769.119 333.598 768.484 334.085 767.77 334.43C767.056 334.774 766.28 334.969 765.488 335.001C762.397 335.124 757.028 335.163 752.495 334.282C745.672 332.954 740.748 329.73 737.15 332.575C737.15 332.575 732.416 347.373 735.635 352.689C738.855 358.005 744.547 366.919 741.89 369.2C739.233 371.482 736.014 371.287 730.712 365.787C725.41 360.287 724.836 350.988 724.836 350.988L726.161 327.08C726.161 327.08 721.049 309.052 716.136 305.449L718.748 297.266Z" fill="black"/>
<path opacity="0.1" d="M778.616 323.264L770.368 332.797C769.819 333.43 769.141 333.936 768.379 334.281C767.702 334.587 766.972 334.76 766.229 334.789C763.138 334.917 757.769 334.956 753.235 334.069C746.853 332.825 742.13 329.925 738.599 331.883C738.348 332.021 738.11 332.179 737.886 332.357C737.886 332.357 733.152 347.155 736.371 352.471C739.59 357.787 745.282 366.701 742.625 368.982C742.181 369.374 741.682 369.699 741.144 369.947C738.76 371.024 735.803 370.092 731.447 365.569C726.145 360.063 725.571 350.77 725.571 350.77L726.897 326.862C726.897 326.862 721.784 308.834 716.872 305.231L719.038 297.449C720.531 298.464 727.983 303.234 737.195 303.842C738.324 303.913 739.404 304.332 740.286 305.041C742.889 307.253 745.094 309.894 746.808 312.85C750.974 319.683 761.206 318.925 761.206 318.925C763.658 318.141 766.054 317.187 768.374 316.069C769.827 315.355 771.108 314.574 771.715 313.838C771.886 313.645 772.01 313.416 772.077 313.168C772.077 313.168 772.367 326.489 778.616 323.264Z" fill="black"/>
<path d="M778.237 323.457L769.994 333.001C769.541 333.525 768.998 333.963 768.39 334.295C767.612 334.718 766.747 334.957 765.862 334.992C762.771 335.121 757.401 335.16 752.868 334.273C746.713 333.073 742.096 330.329 738.615 331.896C738.217 332.07 737.843 332.293 737.501 332.56C737.501 332.56 732.767 347.359 735.986 352.675C739.206 357.991 744.898 366.904 742.241 369.186C741.897 369.482 741.524 369.742 741.127 369.961C738.676 371.317 735.647 370.519 731.052 365.772C725.749 360.266 725.176 350.973 725.176 350.973L726.501 327.066C726.501 327.066 721.388 309.038 716.476 305.434L718.748 297.273L719.021 297.463C720.514 298.478 727.966 303.248 737.178 303.856C738.307 303.927 739.387 304.345 740.269 305.055C742.872 307.267 745.078 309.908 746.791 312.864C750.957 319.697 761.189 318.939 761.189 318.939C763.642 318.155 766.037 317.201 768.357 316.083C770.078 315.201 771.481 314.236 771.699 313.355C771.699 313.355 771.699 313.528 771.699 313.835C771.866 316.138 772.701 326.307 778.237 323.457Z" fill="#CED2DF"/>
<path opacity="0.1" d="M716.643 288.068H702.719C703.025 290.286 703.113 292.528 702.981 294.762C705.107 296.26 707.599 297.15 710.192 297.337C712.784 297.524 715.378 297 717.696 295.822C716.359 293.345 715.546 290.534 716.643 288.068Z" fill="black"/>
<path d="M711.168 297.076C718.806 297.076 724.997 290.875 724.997 283.225C724.997 275.576 718.806 269.375 711.168 269.375C703.53 269.375 697.339 275.576 697.339 283.225C697.339 290.875 703.53 297.076 711.168 297.076Z" fill="#EC8C9C"/>
<path opacity="0.1" d="M708.294 280.762C709.837 280.577 711.38 280.031 712.9 280.338C714.282 280.617 715.457 281.57 716.838 281.86C719.5 282.418 721.973 280.455 723.984 278.625L728.328 274.665C729.292 273.789 730.283 272.869 730.779 271.664C731.274 270.459 731.102 268.875 730.043 268.116C728.456 267 725.721 268.116 724.574 266.532C724.056 265.818 724.134 264.858 723.867 264.005C723.31 262.298 721.394 261.367 719.6 261.344C717.807 261.322 716.092 261.98 714.376 262.46C710.762 263.51 706.984 263.871 703.237 263.525C702.226 263.34 701.186 263.376 700.19 263.631C699.577 263.893 699.034 264.296 698.605 264.806C698.175 265.317 697.871 265.921 697.718 266.571C696.86 269.605 698.325 274.497 699.795 277.214C701.265 279.93 705.359 281.124 708.294 280.762Z" fill="black"/>
<path d="M708.294 280.383C709.837 280.199 711.38 279.652 712.9 279.959C714.282 280.238 715.457 281.191 716.838 281.482C719.5 282.039 721.973 280.076 723.984 278.246L728.328 274.286C729.292 273.41 730.283 272.49 730.779 271.285C731.274 270.08 731.102 268.496 730.043 267.737C728.456 266.622 725.721 267.737 724.574 266.153C724.056 265.439 724.134 264.48 723.867 263.626C723.31 261.919 721.394 260.988 719.6 260.965C717.807 260.943 716.092 261.601 714.376 262.081C710.762 263.131 706.984 263.492 703.237 263.146C702.226 262.961 701.186 262.997 700.19 263.252C699.577 263.515 699.034 263.917 698.605 264.428C698.175 264.938 697.871 265.542 697.718 266.192C696.86 269.227 698.325 274.118 699.795 276.835C701.265 279.551 705.359 280.717 708.294 280.383Z" fill="#88455E"/>
<path opacity="0.1" d="M684.172 340.25C684.172 340.25 687.202 340.629 688.717 342.526C690.232 344.422 692.883 344.991 692.883 344.991" fill="black"/>
<path opacity="0.1" d="M656.887 315.199C656.887 315.199 659.36 320.727 657.834 321.285C656.308 321.843 656.887 325.837 656.887 325.837" fill="black"/>
<g opacity="0.1">
<path opacity="0.1" d="M657.739 313.302C657.739 313.302 673.841 310.078 674.398 310.078C676.993 310.078 681.17 306.441 683.56 304.143C684.286 303.446 685.18 302.948 686.155 302.698H685.949C685.162 302.674 684.378 302.806 683.643 303.087C682.908 303.369 682.236 303.794 681.666 304.338C679.277 306.636 675.094 310.273 672.504 310.273C672.053 310.273 661.749 312.32 657.566 313.152L657.739 313.302Z" fill="black"/>
<path opacity="0.1" d="M702.474 299.212V298.504C698.601 300.482 694.432 301.818 690.132 302.459C694.399 302.078 698.571 300.981 702.474 299.212Z" fill="black"/>
<path opacity="0.1" d="M682.563 372.502C682.563 372.502 680.29 365.1 682.006 361.307C683.721 357.514 685.793 340.054 685.793 340.054L681.638 327.152H673.657L673.172 327.342H679.717L683.866 340.25C683.866 340.25 681.783 357.709 680.079 361.502C678.374 365.295 680.636 372.697 680.636 372.697L695.601 372.139V372.022L682.563 372.502Z" fill="black"/>
</g>
<g opacity="0.1">
<path opacity="0.1" d="M742.43 366.149C742.087 366.445 741.714 366.705 741.317 366.925C738.866 368.28 735.836 367.482 731.241 362.735C727.031 358.368 725.805 351.579 725.477 349.008L725.365 350.971C725.365 350.971 725.922 360.27 731.241 365.77C735.836 370.534 738.866 371.315 741.317 369.959C741.714 369.74 742.087 369.48 742.43 369.184C743.227 368.498 743.271 367.209 742.854 365.603C742.75 365.811 742.606 365.997 742.43 366.149Z" fill="black"/>
<path opacity="0.1" d="M775.559 323.74L770.195 329.949C769.742 330.472 769.198 330.911 768.591 331.243C767.813 331.666 766.947 331.905 766.062 331.94C762.971 332.068 757.602 332.107 753.069 331.22C746.914 330.021 742.297 327.277 738.816 328.844C738.418 329.017 738.044 329.24 737.702 329.508C737.702 329.508 734.644 339.069 735.112 345.578C735.474 339.493 737.702 332.542 737.702 332.542C738.044 332.275 738.418 332.052 738.816 331.879C742.302 330.311 746.914 333.055 753.069 334.255C757.602 335.136 762.966 335.097 766.062 334.974C766.947 334.939 767.813 334.7 768.591 334.277C769.197 333.95 769.74 333.518 770.195 333L778.444 323.467C778.017 323.733 777.534 323.896 777.033 323.944C776.533 323.991 776.028 323.921 775.559 323.74Z" fill="black"/>
</g>
<path d="M533.342 392.066C533.409 392.131 533.494 392.172 533.585 392.184C533.676 392.196 533.769 392.178 533.85 392.133C533.678 392.136 533.507 392.114 533.342 392.066Z" fill="url(#paint1_linear)"/>
<path d="M590.102 299.665C589.099 299.375 587.668 298.901 585.947 298.298C587.735 295.994 589.044 293.354 589.796 290.534L589.651 290.589C589.701 290.417 589.751 290.249 589.796 290.071C586.493 291.415 582.839 289.139 580.511 286.216C578.183 283.293 576.612 279.668 574.061 276.979C572.998 275.909 571.855 274.923 570.642 274.028C569.89 273.47 569.082 272.84 568.163 272.812C566.676 272.768 565.512 274.229 564.081 274.658C563.139 274.871 562.158 274.834 561.235 274.553C557.542 273.705 553.994 272.137 550.224 271.724C548.206 271.475 546.159 271.706 544.247 272.399C542.354 273.119 541.49 274.552 539.959 275.702C538.288 276.934 535.024 276.906 533.08 277.124C530.722 277.394 528.347 277.493 525.974 277.42C524.61 277.301 523.237 277.352 521.886 277.57C519.062 278.189 516.795 280.437 514.678 282.59C514.101 283.078 513.685 283.729 513.487 284.459C513.459 284.665 513.459 284.873 513.487 285.078C513.465 285.641 513.562 286.201 513.771 286.724C514.422 288.66 515.343 290.495 516.505 292.174C517.369 293.412 518.377 294.578 518.867 296.045C519.099 296.766 519.221 297.518 519.229 298.276C519.205 299.081 519.121 299.882 518.978 300.675C518.604 302.865 517.99 305.007 517.146 307.061C516.622 308.116 516.261 309.245 516.076 310.408C516.061 310.646 516.061 310.885 516.076 311.122C515.937 314.804 519.647 317.453 520.365 321.113C520.424 321.416 520.459 321.724 520.471 322.033C520.393 324.314 519.095 326.546 517.179 327.433C517.346 327.499 517.519 327.555 517.692 327.611C517.527 327.715 517.356 327.808 517.179 327.89C517.53 328.024 517.887 328.141 518.249 328.236C516.071 330.135 514.241 332.4 512.84 334.929C506.396 346.945 462.753 370.478 462.753 370.478L463.399 370.847L462.876 371.187C459.099 373.703 450.238 381.038 458.247 390.314C458.247 390.314 464.502 380.43 468.885 376.218C469.08 376.029 469.275 375.856 469.442 375.694C469.539 375.842 469.603 376.009 469.632 376.184C469.661 376.359 469.653 376.538 469.609 376.709L498.304 360.561C498.304 360.561 508.502 353.41 511.348 351.798C513.351 350.548 515.531 349.607 517.814 349.008L517.48 349.148C518.553 348.852 519.659 348.695 520.772 348.679C525.851 348.757 531.354 352.484 533.164 367.238C535.592 386.995 534.467 390.559 533.687 391.045C533.591 391.038 533.496 391.021 533.403 390.995C533.428 391.016 533.454 391.034 533.481 391.05C533.376 391.043 533.271 391.024 533.17 390.995C533.226 391.046 533.294 391.082 533.368 391.1C533.442 391.118 533.52 391.116 533.593 391.095C533.646 391.111 533.701 391.116 533.756 391.109C533.81 391.102 533.863 391.084 533.91 391.056C534.038 391.063 534.167 391.063 534.295 391.056C534.295 391.238 534.282 391.424 534.256 391.614C534.217 391.614 534.027 391.72 534.256 391.731C534.194 392.846 534.2 394.057 534.256 395.323C531.733 395.463 529.21 395.613 527.015 395.747L527.21 394.704L527.299 394.235C529.237 394.079 531.075 393.51 531.293 391.937C531.766 388.479 527.026 386.633 522.994 386.404C518.961 386.175 494.778 387.787 494.778 387.787C494.778 387.787 491.153 392.489 502.654 393.923C502.995 394.102 503.35 394.287 503.718 394.481C508.223 397.052 514.333 401.788 517.263 404.12L517.669 404.443L516.355 405.514C523.467 407.126 530.346 434.347 534.139 446.792C537.932 459.237 546.23 458.785 553.109 456.938C559.553 455.209 560.349 436.467 560.455 434.113V433.873L571.917 448.053L572.786 449.129C573.12 449.304 573.451 449.468 573.777 449.62C582.455 453.753 592.04 445.827 589.317 436.79C586.56 427.682 582.282 414.21 579.431 408.515C577.041 403.746 573.956 395.825 572.084 390.866C572.327 390.769 572.564 390.655 572.792 390.526C572.792 390.526 572.747 390.303 572.675 389.896L572.792 389.834C572.792 389.834 570.007 375.488 569.884 365.291C569.884 365.112 569.884 364.926 569.884 364.733C569.884 364.621 569.884 364.51 569.884 364.404C571.956 363.93 573.271 363.746 573.271 363.746L573.31 363.299L573.07 363.35L574.223 350.135C574.223 350.135 578.456 341.116 575.214 337.361C574.229 336.264 573.571 334.911 573.315 333.457C572.758 330.004 573.315 324.242 580.862 319.456C592.48 312.076 597.014 306.069 597.014 306.069C597.014 306.069 597.214 301.762 590.102 299.665ZM567.027 308.835V302.727C569.183 302.621 571.382 302.872 573.549 302.727C574.613 302.653 575.666 302.475 576.696 302.197L577.219 302.56C574.05 305.002 570.634 307.105 567.027 308.835ZM534.083 404.577C534.935 405.168 535.793 405.782 536.634 406.401C537.157 409.413 537.62 411.539 537.653 411.689C536.692 409.21 535.496 406.829 534.083 404.577Z" fill="url(#paint2_linear)"/>
<path d="M552.496 399.557L551.995 402.284L551.611 404.371L550.909 408.186L544.103 412.955C544.103 412.955 543.49 412.431 542.476 411.6C539.692 409.302 533.827 404.638 529.522 402.117C528.415 401.409 527.218 400.856 525.963 400.471L552.496 399.557Z" fill="#FFBDC6"/>
<path opacity="0.1" d="M552.496 399.557L551.995 402.284C550.495 402.368 548.99 402.291 547.506 402.056L531.627 402.284C530.875 402.24 530.173 402.178 529.516 402.111C528.41 401.404 527.212 400.85 525.957 400.466L552.496 399.557Z" fill="black"/>
<path d="M547.506 401.61C547.506 401.61 555.448 402.971 555.899 399.563C556.35 396.154 551.817 394.358 547.968 394.102C544.119 393.845 520.967 395.474 520.967 395.474C520.967 395.474 516.884 400.924 531.627 401.833L547.506 401.61Z" fill="#7679B4"/>
<path opacity="0.1" d="M552.496 399.557L551.995 402.284L551.611 404.371L550.909 408.186L544.103 412.955C544.103 412.955 543.49 412.431 542.476 411.6C539.692 409.302 533.827 404.638 529.522 402.117C528.415 401.409 527.218 400.856 525.963 400.471L552.496 399.557Z" fill="black"/>
<path opacity="0.1" d="M552.496 399.557L551.995 402.284C550.495 402.368 548.99 402.291 547.506 402.056L531.627 402.284C530.875 402.24 530.173 402.178 529.516 402.111C528.41 401.404 527.212 400.85 525.957 400.466L552.496 399.557Z" fill="black"/>
<path opacity="0.1" d="M547.506 401.61C547.506 401.61 555.448 402.971 555.899 399.563C556.35 396.154 551.817 394.358 547.968 394.102C544.119 393.845 520.967 395.474 520.967 395.474C520.967 395.474 516.884 400.924 531.627 401.833L547.506 401.61Z" fill="black"/>
<path d="M564.855 289.598H523.345V338.897H564.855V289.598Z" fill="#A66477"/>
<path opacity="0.1" d="M564.855 289.598H523.345V338.897H564.855V289.598Z" fill="black"/>
<path d="M474.689 373.999C474.004 374.172 473.135 374.83 472.16 375.789C467.966 379.939 461.985 389.673 461.985 389.673C454.321 380.536 462.803 373.312 466.44 370.83C467.32 370.228 467.911 369.904 467.911 369.904L474.689 373.999Z" fill="#FFBDC6"/>
<path d="M552.045 305.16C552.045 305.16 554.089 319.473 561.118 322.882C568.147 326.29 552.045 332.649 552.045 332.649L530.04 324.471C530.04 324.471 542.515 320.383 540.02 308.34L552.045 305.16Z" fill="#FFBDC6"/>
<path d="M528.474 391.262L527.973 393.989L527.589 396.076L526.887 399.891L520.081 404.66C520.081 404.66 519.468 404.136 518.455 403.305C515.67 401.007 509.805 396.343 505.5 393.822C504.394 393.115 503.196 392.561 501.941 392.177L528.474 391.262Z" fill="#FFBDC6"/>
<path opacity="0.1" d="M528.474 391.262L527.973 393.989C526.473 394.073 524.968 393.996 523.484 393.761L507.605 393.989C506.853 393.945 506.151 393.883 505.494 393.816C504.388 393.109 503.191 392.555 501.935 392.171L528.474 391.262Z" fill="black"/>
<path d="M523.462 393.309C523.462 393.309 531.404 394.671 531.855 391.262C532.306 387.854 527.773 386.036 523.913 385.813C520.053 385.589 496.917 387.174 496.917 387.174C496.917 387.174 492.835 392.623 507.577 393.533L523.462 393.309Z" fill="#7679B4"/>
<path opacity="0.1" d="M527.567 396.082L526.865 399.897L520.059 404.666C520.059 404.666 519.446 404.142 518.432 403.311L527.433 395.92L527.567 396.082Z" fill="black"/>
<path d="M572.474 448.092C572.162 447.939 571.847 447.777 571.527 447.606L570.698 446.546L559.737 432.601V432.847C559.664 435.162 558.873 453.625 552.713 455.326C546.136 457.145 538.193 457.597 534.568 445.33C530.942 433.064 524.359 406.256 517.552 404.666L527.645 396.372C527.645 396.372 534.328 404.181 537.057 411.7C536.957 411.221 532.34 389.628 536.149 385.812H569.266C569.266 385.812 574.368 400.394 577.888 407.623C580.617 413.234 584.711 426.499 587.356 435.474C589.974 444.354 580.829 452.164 572.474 448.092Z" fill="#7679B4"/>
<path opacity="0.1" d="M571.55 389.897C566.442 392.925 543.986 391.693 536.667 391.202L534.679 391.057C534.462 391.057 534.712 390.934 534.712 390.934L534.918 388.87L540.36 375.014L569.511 358.102C568.921 359.881 568.72 362.609 568.77 365.738C568.915 375.767 571.55 389.897 571.55 389.897Z" fill="black"/>
<path d="M571.55 389.221C566.442 392.25 543.986 391.017 536.667 390.527L534.679 390.382H534.35L534.712 390.287L536.506 389.813L540.36 374.361L569.511 357.438C568.921 359.217 568.72 361.945 568.77 365.074C568.915 375.086 571.55 389.221 571.55 389.221Z" fill="#F2F1F2"/>
<path opacity="0.1" d="M568.771 365.051C562.844 366.418 549.8 370.439 544.788 380.112C541.446 386.571 538.661 389.343 536.673 390.504L534.685 390.359L534.718 390.236L536.511 389.762L540.366 374.311L569.517 357.387C568.915 359.216 568.72 361.922 568.771 365.051Z" fill="black"/>
<path opacity="0.1" d="M467.883 369.91L474.689 373.999C474.004 374.172 473.135 374.83 472.16 375.789C471.603 374.116 468.028 371.818 466.412 370.836C467.292 370.234 467.883 369.91 467.883 369.91Z" fill="black"/>
<path opacity="0.1" d="M533.488 390.643C533.412 390.686 533.324 390.703 533.238 390.692C533.151 390.681 533.071 390.642 533.008 390.582C533.164 390.626 533.326 390.647 533.488 390.643Z" fill="black"/>
<path d="M548.865 321.971C548.865 321.971 542.738 322.652 538.427 318.111C538.427 318.111 520.281 323.338 514.155 335.152C508.028 346.966 466.29 370.138 466.29 370.138C466.29 370.138 473.53 374.226 472.867 376.274L500.314 360.371C500.314 360.371 510.067 353.325 512.79 351.736C515.514 350.146 530.485 340.379 533.66 366.958C536.834 393.538 533.66 390.386 533.66 390.386C533.66 390.386 538.199 391.976 544.799 379.23C551.399 366.484 571.795 363.556 571.795 363.556L572.909 350.168C572.909 350.168 576.958 341.288 573.855 337.584C572.909 336.494 572.281 335.165 572.04 333.741C571.522 330.338 572.04 324.665 579.28 319.952C590.419 312.7 594.708 306.777 594.708 306.777C594.708 306.777 594.936 302.459 588.13 300.418C581.324 298.376 553.649 287.242 553.649 287.242L552.741 291.102L574.518 306.553C574.518 306.553 563.63 315.411 555.025 315.188C554.991 315.149 556.578 321.743 548.865 321.971Z" fill="#0F3C93"/>
<path opacity="0.1" d="M553.07 311.391C552.534 309.56 552.115 307.697 551.817 305.812L539.792 309.014C540.318 311.312 540.224 313.709 539.519 315.959C541.977 316.616 544.573 316.532 546.983 315.718C549.393 314.905 551.511 313.397 553.07 311.385V311.391Z" fill="black"/>
<path d="M543.083 315.725C550.226 315.725 556.016 309.926 556.016 302.773C556.016 295.619 550.226 289.82 543.083 289.82C535.941 289.82 530.151 295.619 530.151 302.773C530.151 309.926 535.941 315.725 543.083 315.725Z" fill="#FFBDC6"/>
<path opacity="0.1" d="M549.956 273.313C553.543 273.721 556.957 275.266 560.488 276.102C561.371 276.38 562.311 276.416 563.212 276.208C564.582 275.784 565.696 274.345 567.111 274.39C567.985 274.39 568.781 275.015 569.483 275.589C570.646 276.473 571.739 277.444 572.753 278.495C575.186 281.145 576.701 284.715 578.924 287.593C581.146 290.472 584.649 292.714 587.807 291.392C585.663 299.759 578.623 306.157 571.015 306.676C567.979 306.882 564.888 306.252 561.931 307.144C561.198 307.444 560.425 307.632 559.636 307.702C557.965 307.702 556.584 306.146 555.526 304.634C553.053 301.075 551.07 297.037 548.285 293.796C547.366 292.725 546.28 291.704 544.983 291.509C543.685 291.314 542.487 291.933 541.329 292.535C539.419 293.528 537.464 294.555 535.982 296.25C534.501 297.946 533.565 300.484 534.178 302.782C534.506 304.021 535.264 305.136 535.291 306.436C535.291 308.5 533.498 310.011 533.136 312.014C533.056 312.859 533.027 313.709 533.047 314.558C532.885 317.313 531.092 319.578 529.209 321.301C528.48 321.976 527.667 322.696 527.455 323.739C527.31 324.447 527.455 325.201 527.36 325.92C527.087 327.711 525.305 328.614 523.729 328.849C521.888 329.119 520.009 328.896 518.282 328.202C520.51 327.158 521.841 324.185 521.328 321.508C520.627 317.821 516.929 315.177 517.24 311.417C517.415 310.266 517.76 309.147 518.265 308.098C519.072 306.07 519.659 303.96 520.014 301.806C520.378 300.148 520.342 298.427 519.908 296.786C519.435 295.341 518.471 294.192 517.647 292.97C516.531 291.31 515.65 289.502 515.029 287.599C514.804 287.036 514.718 286.428 514.779 285.825C514.958 285.114 515.346 284.473 515.893 283.984C517.92 281.859 520.092 279.645 522.788 279.031C524.076 278.816 525.386 278.765 526.686 278.88C528.957 278.953 531.23 278.856 533.487 278.59C535.347 278.373 538.5 278.401 540.07 277.185C541.535 276.069 542.365 274.647 544.175 273.933C546.022 273.255 548.008 273.043 549.956 273.313Z" fill="black"/>
<path opacity="0.1" d="M557.147 407.055C557.147 407.055 564.632 421.82 562.365 426.366L557.147 407.055Z" fill="black"/>
<path opacity="0.1" d="M570.72 446.547L559.759 432.601V432.847C559.759 432.847 559.124 428.34 561.212 429.857C565.785 433.17 573.103 438.603 573.259 439.541C573.415 440.478 571.778 444.237 570.72 446.547Z" fill="black"/>
<g opacity="0.1">
<path opacity="0.1" d="M555.209 315.149C555.209 315.149 556.133 318.987 553.142 320.905C557.748 320.113 557.949 316.527 557.81 314.965C556.95 315.104 556.079 315.166 555.209 315.149Z" fill="black"/>
<path opacity="0.1" d="M469.019 369.228C469.019 369.228 510.758 346.057 516.884 334.242C521.279 325.764 531.866 320.682 537.492 318.484C533.387 319.862 519.574 325.145 514.383 335.152C508.257 346.966 466.518 370.137 466.518 370.137L469.019 369.228Z" fill="black"/>
<path opacity="0.1" d="M563.329 313.347C570.43 311.116 577.22 305.611 577.22 305.611L555.442 290.16L555.938 288.04L553.855 287.203L552.947 291.063L574.724 306.514C571.23 309.266 567.401 311.562 563.329 313.347Z" fill="black"/>
<path opacity="0.1" d="M563.468 365.703C566.251 364.752 569.106 364.03 572.006 363.544L572.045 363.104C569.124 363.746 566.256 364.615 563.468 365.703Z" fill="black"/>
<path opacity="0.1" d="M537.074 389.505H536.873C536.798 389.547 536.71 389.564 536.624 389.553C536.538 389.542 536.457 389.504 536.395 389.443C536.55 389.487 536.712 389.508 536.873 389.505C537.62 389.07 538.739 385.678 536.395 366.043C533.888 345.081 524.052 346.727 518.667 349.136C524.169 347.619 531.744 348.93 533.899 366.953C536.244 386.587 535.125 389.984 534.378 390.414C535.346 390.378 536.282 390.062 537.074 389.505Z" fill="black"/>
<path opacity="0.1" d="M534.379 390.419C534.217 390.422 534.055 390.401 533.899 390.357C533.962 390.418 534.043 390.456 534.129 390.467C534.215 390.478 534.303 390.461 534.379 390.419Z" fill="black"/>
</g>
<path d="M549.956 272.874C553.543 273.281 556.957 274.826 560.488 275.663C561.371 275.94 562.311 275.977 563.212 275.769C564.582 275.345 565.696 273.906 567.111 273.951C567.985 273.951 568.781 274.575 569.483 275.15C570.646 276.033 571.739 277.005 572.753 278.056C575.186 280.706 576.701 284.276 578.924 287.154C581.146 290.032 584.649 292.274 587.807 290.952C585.663 299.32 578.623 305.718 571.015 306.236C567.979 306.443 564.888 305.812 561.931 306.705C561.198 307.004 560.425 307.192 559.636 307.263C557.965 307.263 556.584 305.706 555.526 304.195C553.053 300.636 551.07 296.597 548.285 293.357C547.366 292.286 546.28 291.265 544.983 291.07C543.685 290.874 542.487 291.494 541.329 292.096C539.419 293.089 537.464 294.115 535.982 295.811C534.501 297.507 533.565 300.045 534.178 302.343C534.506 303.581 535.264 304.697 535.291 305.996C535.291 308.06 533.498 309.572 533.136 311.575C533.056 312.42 533.027 313.269 533.047 314.118C532.885 316.874 531.092 319.138 529.209 320.862C528.48 321.537 527.667 322.257 527.455 323.3C527.31 324.008 527.455 324.761 527.36 325.481C527.087 327.271 525.305 328.175 523.729 328.409C521.888 328.679 520.009 328.456 518.282 327.762C520.51 326.719 521.841 323.746 521.328 321.068C520.627 317.381 516.929 314.737 517.24 310.978C517.415 309.826 517.76 308.708 518.265 307.659C519.072 305.63 519.659 303.521 520.014 301.367C520.378 299.709 520.342 297.988 519.908 296.346C519.435 294.902 518.471 293.753 517.647 292.531C516.531 290.87 515.65 289.063 515.029 287.159C514.804 286.597 514.718 285.988 514.779 285.386C514.958 284.674 515.346 284.033 515.893 283.545C517.92 281.42 520.092 279.205 522.788 278.591C524.076 278.377 525.386 278.326 526.686 278.441C528.957 278.513 531.23 278.416 533.487 278.151C535.347 277.933 538.5 277.961 540.07 276.745C541.535 275.63 542.365 274.207 544.175 273.493C546.022 272.816 548.008 272.603 549.956 272.874Z" fill="#A66477"/>
<path d="M919.237 243.801C919.237 243.729 919.237 243.662 919.237 243.595C919.237 243.528 919.237 243.45 919.204 243.383H919.115C919.115 243.232 919.115 243.082 919.115 242.92C918.892 237.749 911.752 226.743 908.889 229.956C906.383 232.779 910.164 239.919 912.091 243.132L912.264 243.422L912.169 243.36C912.169 243.36 904.199 267.168 903.258 268.094C902.317 269.02 895.756 287.74 887.106 289.848C885.396 290.255 883.976 290.623 882.784 290.964L882.879 290.646C883.436 288.822 884.121 287.098 884.399 285.068C884.678 283.037 884.399 280.577 883.375 279.59C882.873 279.099 882.261 279.032 881.848 278.251C881.581 277.566 881.438 276.839 881.425 276.104L880.69 267.078L881.202 266.922C884.299 265.929 887.301 263.575 887.652 260.407C887.544 260.448 887.435 260.483 887.323 260.513C887.364 260.329 887.396 260.143 887.418 259.955C884.817 260.982 882.405 258.282 879.899 257.071C875.772 255.047 871.055 256.954 866.794 257.417C861.965 257.947 857.381 255.939 852.447 256.302C849.762 256.508 846.777 258.332 846.922 260.982C847.005 262.437 848.035 263.67 848.459 265.065C849.528 268.439 847.15 271.825 845.067 274.704C843.697 276.595 842.382 278.898 842.148 281.118C837.353 276.098 832.168 270.297 831.566 268.116L817.692 244.309C817.692 244.309 817.364 244.66 816.835 245.179C816.751 244.922 816.651 244.621 816.539 244.32C814.768 239.35 809.756 227.307 803.401 229.516C797.046 231.725 806.035 244.069 809.945 248.989L810.502 249.669C810.174 249.75 809.83 249.734 809.511 249.625L824.983 276.204C824.983 276.204 827.796 281.291 830.374 282.675C830.374 282.675 849.595 306.945 849.829 311.798C850.063 316.651 858.473 329.597 858.473 329.597C858.473 329.597 861.286 350.632 856.362 354.33H856.423H856.462H856.524H856.579H856.691H856.763H856.835H856.93H857.008H857.119H857.175C856.941 354.559 856.702 354.81 856.457 355.083C852.809 359.133 848.147 367.813 854.518 382.572C863.892 404.327 865.301 412.85 865.301 412.85C865.301 412.85 847.479 413.776 843.97 414.468C840.862 415.081 828.781 415.511 826.019 415.583C825.033 414.434 822.12 411.89 818.188 415.583C813.264 420.207 809.75 435.664 809.75 435.664C809.75 435.664 807.873 448.148 814.206 444.907C814.206 444.907 821.708 434.504 823.813 434.041C824.86 433.812 825.969 432.267 826.815 430.778L826.86 430.806C826.91 430.806 827.116 430.694 827.45 430.56C829.01 429.941 833.304 428.452 836.69 429.194C838.545 429.601 846.498 429.696 854.836 429.673C852.953 434.192 849.578 445.85 849.578 445.85C849.578 445.85 848.169 456.721 852.848 456.275C856.189 455.946 861.313 447.395 863.987 442.514C865.925 441.092 871.478 435.993 875.583 436.378L903.241 425.746C903.241 425.746 909.802 422.048 906.288 409.799C903.503 400.059 895.577 380.123 892.447 372.353L892.353 372.152C891.595 370.273 891.139 369.157 891.139 369.157C889.853 365.61 889.009 361.917 888.627 358.163C888.599 357.867 888.577 357.566 888.554 357.27C888.942 357.107 889.307 356.895 889.64 356.64C889.64 356.64 887.062 330.523 889.64 327.745L889.685 327.695V327.662L889.729 327.606L889.83 327.478L889.952 327.321C890.091 327.137 890.259 326.909 890.448 326.63C891.924 324.465 894.675 319.523 893.884 313.689C893.851 313.436 893.81 313.181 893.762 312.924C893.459 311.342 892.918 309.815 892.158 308.395C892.046 307.804 891.977 307.206 891.952 306.605C891.952 306.264 891.952 305.891 891.952 305.489V305.422C891.952 305.314 891.952 305.206 891.952 305.098V305.02C891.952 304.758 891.996 304.463 892.035 304.217V304.117C892.035 304.016 892.052 303.914 892.085 303.81V303.682C892.085 303.581 892.13 303.481 892.152 303.38V303.274C892.186 303.141 892.219 303.007 892.264 302.873V302.806C892.297 302.694 892.334 302.585 892.375 302.477L892.425 302.348L892.536 302.081L892.592 301.947C892.637 301.846 892.687 301.746 892.737 301.646L892.776 301.562C892.843 301.439 892.913 301.318 892.988 301.199L893.049 301.105L893.233 300.842L893.322 300.725L893.517 300.491L893.606 300.391C893.706 300.285 893.806 300.179 893.918 300.078C896.964 297.289 910.56 276.734 910.56 276.734C910.56 276.734 913.84 272.11 913.84 269.109C914.024 269.042 919.822 249.686 919.237 243.801ZM882.74 416.582C882.405 413.413 882.071 409.486 881.765 405.426L887.067 413.703C887.067 413.703 886.566 416.225 882.74 416.582Z" fill="url(#paint3_linear)"/>
<path d="M827.456 414.828C827.456 414.828 824.281 409.808 819.514 414.377C814.746 418.945 811.349 434.14 811.349 434.14C811.349 434.14 809.533 446.411 815.659 443.226C815.659 443.226 822.9 433.002 824.961 432.55C827.021 432.098 829.272 426.414 829.272 426.414L827.456 414.828Z" fill="#493545"/>
<path d="M861.48 427.095C861.48 427.095 857.169 425.048 855.811 426.643C854.452 428.239 849.912 444.136 849.912 444.136C849.912 444.136 848.553 454.59 853.087 454.132C857.621 453.675 865.563 437.309 865.563 437.309L861.48 427.095Z" fill="#493545"/>
<path opacity="0.05" d="M861.48 427.095C861.48 427.095 857.169 425.048 855.811 426.643C854.452 428.239 849.912 444.136 849.912 444.136C849.912 444.136 848.553 454.59 853.087 454.132C857.621 453.675 865.563 437.309 865.563 437.309L861.48 427.095Z" fill="black"/>
<path d="M876.451 396.198L886.204 411.42C886.204 411.42 885.524 414.829 879.626 414.148L859.436 426.872C859.436 426.872 857.682 442.362 863.291 440.956C864.198 440.728 870.531 434.14 875.087 434.597L901.86 424.144C901.86 424.144 908.209 420.507 904.806 408.47C901.403 396.432 890.153 368.52 890.153 368.52L872.369 378.482L876.451 396.198Z" fill="#0D3481"/>
<path opacity="0.05" d="M876.451 396.198L886.204 411.42C886.204 411.42 885.524 414.829 879.626 414.148L859.436 426.872C859.436 426.872 857.682 442.362 863.291 440.956C864.198 440.728 870.531 434.14 875.087 434.597L901.86 424.144C901.86 424.144 908.209 420.507 904.806 408.47C901.403 396.432 890.153 368.52 890.153 368.52L872.369 378.482L876.451 396.198Z" fill="black"/>
<path d="M882.578 418.69C883.937 427.325 876.229 428.006 876.229 428.006C876.229 428.006 841.519 428.686 837.437 427.777C833.354 426.868 827.907 429.367 827.907 429.367C820.873 425.049 826.548 414.373 826.548 414.373C826.548 414.373 841.068 413.921 844.471 413.257C847.874 412.593 865.112 411.651 865.112 411.651C865.112 411.651 863.753 403.245 854.674 381.892C848.509 367.389 853.004 358.854 856.551 354.877C857.457 353.822 858.505 352.898 859.665 352.133L887.569 353.494C887.538 354.903 887.591 356.313 887.724 357.716C888.201 362.534 889.452 367.243 891.428 371.662C889.841 371.662 879.632 381.206 879.632 381.206C879.632 381.206 881.214 410.061 882.578 418.69Z" fill="#0F3C93"/>
<path opacity="0.1" d="M828.587 415.281C828.587 415.281 843.106 414.829 846.509 414.165C849.913 413.502 867.15 412.576 867.15 412.576C867.15 412.576 865.791 404.169 856.713 382.817C850.547 368.314 855.042 359.779 858.59 355.802C859.495 354.747 860.543 353.823 861.703 353.058L887.557 354.318C887.557 354.051 887.557 353.76 887.557 353.509L859.654 352.148C858.494 352.914 857.446 353.838 856.54 354.893C853.009 358.876 848.498 367.404 854.663 381.907C863.764 403.244 865.112 411.65 865.112 411.65C865.112 411.65 847.846 412.559 844.471 413.239C841.096 413.92 826.548 414.355 826.548 414.355C826.548 414.355 820.878 425.037 827.907 429.371C827.907 429.371 828.119 429.271 828.464 429.126C823.791 424.312 828.587 415.281 828.587 415.281Z" fill="black"/>
<path d="M870.096 268.746H856.033V304.412H870.096V268.746Z" fill="#493545"/>
<path opacity="0.1" d="M870.096 268.746H856.033V304.412H870.096V268.746Z" fill="black"/>
<path d="M878.139 263.514C878.624 263.648 879.169 263.665 879.498 264.334C879.702 264.869 879.813 265.435 879.827 266.008L880.712 277.03C880.725 277.752 880.864 278.465 881.124 279.138C881.497 279.886 882.116 279.975 882.6 280.455C883.575 281.425 883.859 283.857 883.592 285.838C883.324 287.818 882.65 289.514 882.121 291.304C881.364 293.87 880.862 296.754 879.799 298.918C878.735 301.082 876.802 302.265 875.555 300.447C874.307 298.628 874.474 294.958 874.24 291.951C873.85 286.931 871.895 282.602 871.762 277.549C871.65 273.46 872.748 269.645 873.433 265.768C873.923 263.107 873.951 259.877 874.664 257.484C875.259 260.329 876.396 263.035 878.139 263.514Z" fill="#493545"/>
<path opacity="0.1" d="M878.139 263.514C878.624 263.648 879.169 263.665 879.498 264.334C879.702 264.869 879.813 265.435 879.827 266.008L880.712 277.03C880.725 277.752 880.864 278.465 881.124 279.138C881.497 279.886 882.116 279.975 882.6 280.455C883.575 281.425 883.859 283.857 883.592 285.838C883.324 287.818 882.65 289.514 882.121 291.304C881.364 293.87 880.862 296.754 879.799 298.918C878.735 301.082 876.802 302.265 875.555 300.447C874.307 298.628 874.474 294.958 874.24 291.951C873.85 286.931 871.895 282.602 871.762 277.549C871.65 273.46 872.748 269.645 873.433 265.768C873.923 263.107 873.951 259.877 874.664 257.484C875.259 260.329 876.396 263.035 878.139 263.514Z" fill="black"/>
<path d="M818.606 247.845L813.164 252.391C813.164 252.391 812.518 251.632 811.555 250.405C807.773 245.569 799.079 233.437 805.222 231.267C811.365 229.097 816.222 240.928 817.937 245.814C818.372 247.053 818.606 247.845 818.606 247.845Z" fill="#C77485"/>
<path d="M916.831 246.255C914.564 249.663 911.39 246.255 911.39 246.255C911.39 246.255 910.983 245.647 910.409 244.665C908.543 241.502 904.884 234.491 907.307 231.713C910.092 228.539 916.993 239.372 917.204 244.453C917.27 245.078 917.139 245.708 916.831 246.255Z" fill="#C77485"/>
<path d="M861.024 283.06C861.024 283.06 865.563 297.602 864.198 301.914C862.834 306.225 873.956 311.246 873.956 311.246H886.661C886.661 311.246 891.2 301.93 890.064 299.203C888.927 296.475 879.175 294.433 879.175 294.433C879.175 294.433 873.505 294.433 873.734 279.211L861.024 283.06Z" fill="#C77485"/>
<path opacity="0.1" d="M818.606 247.845L813.164 252.391C813.164 252.391 812.518 251.632 811.555 250.405C813.532 250.054 816.601 247.164 817.943 245.814C818.372 247.053 818.606 247.845 818.606 247.845Z" fill="black"/>
<path opacity="0.1" d="M916.831 246.256C914.564 249.664 911.389 246.256 911.389 246.256C911.389 246.256 910.983 245.648 910.409 244.666L910.482 244.438C911.952 245.492 916.525 244.594 917.204 244.438C917.273 245.068 917.143 245.704 916.831 246.256Z" fill="black"/>
<path opacity="0.1" d="M887.713 357.71C880.695 360.918 857.894 355.206 856.523 354.866C857.429 353.81 858.477 352.886 859.637 352.121L887.54 353.482C887.516 354.894 887.573 356.305 887.713 357.71Z" fill="black"/>
<path d="M863.976 295.553C863.976 295.553 858.534 297.372 850.82 290.327C850.82 290.327 833.555 273.286 832.441 269.197L819.074 245.769C819.074 245.769 813.404 251.905 811.131 250.996L826.102 277.123C826.102 277.123 828.826 282.144 831.321 283.482C831.321 283.482 849.924 307.34 850.146 312.109C850.369 316.878 858.529 329.652 858.529 329.652C858.529 329.652 861.252 350.324 856.485 353.961C856.485 353.961 883.024 360.778 888.693 356.232C888.693 356.232 886.198 330.572 888.693 327.834C888.693 327.834 896.407 318.747 891.189 308.751C891.189 308.751 890.075 303.301 893.004 300.574C895.934 297.846 909.112 277.625 909.112 277.625C909.112 277.625 912.286 273.079 912.286 270.129C912.286 270.129 918.184 250.137 917.299 244.91C917.299 244.91 912.08 246.026 910.493 244.91C910.493 244.91 902.779 268.338 901.871 269.219C900.963 270.101 894.631 288.531 886.221 290.578C877.811 292.625 876.468 293.529 876.468 293.529C876.468 293.529 892.798 303.753 884.862 308.294C876.925 312.834 863.976 295.553 863.976 295.553Z" fill="#1BB6AB"/>
<path opacity="0.1" d="M874.285 286.555C874.015 284.415 873.905 282.258 873.956 280.102L861.252 283.962C861.586 284.809 861.853 285.682 862.048 286.572C863.502 287.214 865.463 288.731 867.15 288.731C869.703 288.814 872.212 288.049 874.285 286.555Z" fill="black"/>
<path d="M866.922 288.058C873.437 288.058 878.718 282.769 878.718 276.244C878.718 269.719 873.437 264.43 866.922 264.43C860.407 264.43 855.125 269.719 855.125 276.244C855.125 282.769 860.407 288.058 866.922 288.058Z" fill="#C77485"/>
<path opacity="0.1" d="M852.887 258.043C850.291 258.243 847.395 260.039 847.54 262.644C847.618 264.078 848.598 265.288 849.027 266.661C850.057 269.98 847.763 273.31 845.747 276.143C843.73 278.977 841.848 282.731 843.574 285.732C844.067 286.455 844.598 287.149 845.167 287.813C847.3 290.696 847.273 294.59 848.219 298.054C849.429 302.486 852.287 306.285 856.207 308.671C860.127 311.057 864.81 311.849 869.295 310.883C867.606 308.725 866.765 306.023 866.928 303.286C867.056 301.3 867.696 299.225 866.928 297.39C865.936 295.031 863.029 294.099 861.531 292.035C860.033 289.971 860.133 287.11 860.857 284.65C861.581 282.19 862.834 279.909 863.436 277.398C863.584 276.666 863.77 275.942 863.992 275.229C865.04 272.25 868.17 270.521 871.233 269.779C874.296 269.037 877.515 268.992 880.506 268.016C883.497 267.04 886.405 264.753 886.75 261.612C884.232 262.622 881.899 259.989 879.47 258.779C875.471 256.793 870.91 258.662 866.788 259.119C862.093 259.643 857.638 257.697 852.887 258.043Z" fill="black"/>
<path d="M852.658 257.589C850.063 257.79 847.167 259.586 847.311 262.191C847.389 263.625 848.37 264.835 848.798 266.207C849.829 269.526 847.534 272.857 845.518 275.69C843.502 278.524 841.619 282.278 843.346 285.279C843.838 286.001 844.37 286.696 844.939 287.359C847.072 290.243 847.044 294.137 847.991 297.601C849.2 302.032 852.058 305.832 855.978 308.218C859.898 310.604 864.582 311.396 869.066 310.43C867.378 308.272 866.536 305.57 866.699 302.833C866.827 300.847 867.468 298.772 866.699 296.937C865.708 294.578 862.8 293.646 861.302 291.582C859.804 289.518 859.904 286.657 860.628 284.197C861.352 281.737 862.605 279.455 863.207 276.945C863.355 276.213 863.541 275.489 863.764 274.775C864.811 271.797 867.941 270.068 871.004 269.326C874.068 268.584 877.287 268.539 880.278 267.563C883.269 266.587 886.176 264.3 886.521 261.159C884.004 262.169 881.67 259.536 879.242 258.326C875.243 256.34 870.681 258.209 866.56 258.666C861.876 259.185 857.437 257.216 852.658 257.589Z" fill="#493545"/>
<path opacity="0.1" d="M878.607 302.488C878.607 302.488 883.33 306.711 884.26 308.574L878.607 302.488Z" fill="black"/>
<path opacity="0.1" d="M888.827 327.707C888.827 327.707 882.929 327.707 880.206 328.388C877.482 329.068 870.904 328.388 870.904 328.388" fill="black"/>
<g opacity="0.1">
<path opacity="0.1" d="M884.845 308.279C884.337 308.57 883.786 308.781 883.213 308.904C884.692 309.232 886.241 309.01 887.569 308.279C895.511 303.733 879.175 293.514 879.175 293.514H876.452C876.452 293.514 892.787 303.738 884.845 308.279Z" fill="black"/>
<path opacity="0.1" d="M917.338 245.307C917.338 245.162 917.305 245.023 917.282 244.895C916.349 245.088 915.407 245.232 914.458 245.324C915.416 245.429 916.382 245.424 917.338 245.307Z" fill="black"/>
<path opacity="0.1" d="M859.214 353.947C863.976 350.31 861.258 329.637 861.258 329.637C861.258 329.637 853.093 316.914 852.864 312.145C852.636 307.375 834.039 283.518 834.039 283.518C831.544 282.157 828.82 277.159 828.82 277.159C828.82 277.159 813.393 251.94 811.126 251.031L826.097 277.159C826.097 277.159 828.82 282.179 831.316 283.518C831.316 283.518 849.918 307.375 850.141 312.145C850.363 316.914 858.529 329.654 858.529 329.654C858.529 329.654 861.252 350.326 856.484 353.963C856.484 353.963 872.798 358.152 882.578 357.773C872.776 357.427 859.214 353.947 859.214 353.947Z" fill="black"/>
<path opacity="0.1" d="M864.109 295.733L863.976 295.561C863.82 295.607 863.662 295.642 863.502 295.667C863.714 295.694 863.914 295.717 864.109 295.733Z" fill="black"/>
</g>
<g opacity="0.1">
<path opacity="0.1" d="M917.282 244.867L917.143 244.895C916.904 251.873 912.069 268.267 912.069 268.267C912.069 271.218 908.895 275.764 908.895 275.764C908.895 275.764 895.739 295.985 892.787 298.712C889.835 301.44 890.972 306.89 890.972 306.89L890.999 306.945C890.91 305.11 891.133 302.265 893.01 300.525C895.956 297.797 909.117 277.577 909.117 277.577C909.117 277.577 912.292 273.031 912.292 270.08C912.292 270.114 918.19 250.122 917.282 244.867Z" fill="black"/>
<path opacity="0.1" d="M888.476 326C888.816 327.93 888.588 325.889 888.705 327.819C888.705 327.819 894.274 321.276 892.754 313.188C893.21 320.417 888.476 326 888.476 326Z" fill="black"/>
</g>
<path opacity="0.1" d="M716.665 555.99C848.217 555.99 954.86 545.73 954.86 533.075C954.86 520.419 848.217 510.16 716.665 510.16C585.114 510.16 478.47 520.419 478.47 533.075C478.47 545.73 585.114 555.99 716.665 555.99Z" fill="#1E5DD6"/>
<path d="M624.333 509.825C624.333 509.825 616.223 482.242 625.853 461.943C629.949 453.454 631.184 443.863 629.373 434.611C628.479 430.225 627.185 425.931 625.508 421.781" stroke="#535461" stroke-width="2" stroke-miterlimit="10"/>
<path d="M631.512 408.962C631.512 412.342 625.385 422.143 625.385 422.143C625.385 422.143 619.259 412.342 619.259 408.962C619.197 408.12 619.309 407.275 619.587 406.478C619.866 405.682 620.306 404.952 620.88 404.333C621.453 403.715 622.148 403.222 622.92 402.884C623.692 402.547 624.526 402.373 625.369 402.373C626.211 402.373 627.045 402.547 627.817 402.884C628.59 403.222 629.284 403.715 629.858 404.333C630.431 404.952 630.871 405.682 631.15 406.478C631.429 407.275 631.541 408.12 631.479 408.962H631.512Z" fill="#6C63FF"/>
<path d="M641.598 427.682C639.766 430.521 629.317 435.418 629.317 435.418C629.317 435.418 629.507 423.866 631.339 421.027C631.746 420.29 632.299 419.645 632.965 419.131C633.632 418.617 634.396 418.247 635.212 418.042C636.027 417.837 636.876 417.802 637.705 417.94C638.535 418.078 639.327 418.385 640.033 418.843C640.738 419.301 641.342 419.899 641.807 420.601C642.272 421.302 642.588 422.092 642.735 422.921C642.881 423.751 642.856 424.601 642.661 425.42C642.465 426.239 642.104 427.009 641.598 427.682Z" fill="#6C63FF"/>
<path d="M641.158 459.683C638.145 461.206 626.677 460.152 626.677 460.152C626.677 460.152 632.665 450.273 635.678 448.75C636.4 448.316 637.204 448.036 638.04 447.926C638.875 447.817 639.724 447.882 640.533 448.116C641.343 448.351 642.095 448.75 642.744 449.289C643.392 449.827 643.922 450.494 644.302 451.248C644.681 452.001 644.901 452.825 644.949 453.667C644.996 454.51 644.869 455.353 644.576 456.144C644.283 456.935 643.83 457.657 643.246 458.265C642.662 458.873 641.959 459.354 641.181 459.678L641.158 459.683Z" fill="#6C63FF"/>
<path d="M635.383 483.814C632.67 485.822 621.164 486.731 621.164 486.731C621.164 486.731 625.396 475.982 628.114 473.968C629.422 473.172 630.98 472.896 632.482 473.192C633.984 473.489 635.32 474.338 636.228 475.572C637.136 476.806 637.55 478.335 637.388 479.86C637.227 481.384 636.501 482.793 635.355 483.808L635.383 483.814Z" fill="#6C63FF"/>
<path d="M616.474 436.077C618.897 438.431 630.175 440.874 630.175 440.874C630.175 440.874 627.39 429.657 624.99 427.297C624.43 426.669 623.746 426.162 622.982 425.809C622.218 425.457 621.389 425.265 620.548 425.247C619.707 425.23 618.871 425.385 618.093 425.705C617.314 426.025 616.61 426.502 616.024 427.107C615.437 427.711 614.982 428.43 614.685 429.219C614.388 430.007 614.257 430.848 614.299 431.69C614.341 432.532 614.556 433.356 614.931 434.11C615.305 434.865 615.83 435.535 616.474 436.077Z" fill="#6C63FF"/>
<path d="M610.086 464.39C613.099 465.912 624.567 464.858 624.567 464.858C624.567 464.858 618.602 454.98 615.588 453.485C614.16 452.891 612.56 452.86 611.109 453.398C609.659 453.937 608.466 455.005 607.769 456.388C607.073 457.772 606.924 459.368 607.354 460.856C607.784 462.344 608.76 463.615 610.086 464.412V464.39Z" fill="#6C63FF"/>
<path d="M607.635 492.76C610.347 494.768 621.854 495.677 621.854 495.677C621.854 495.677 617.621 484.929 614.903 482.915C614.266 482.351 613.519 481.925 612.709 481.666C611.899 481.407 611.043 481.319 610.198 481.409C609.352 481.499 608.534 481.764 607.796 482.188C607.059 482.612 606.417 483.185 605.912 483.871C605.408 484.556 605.051 485.34 604.866 486.171C604.68 487.002 604.669 487.863 604.834 488.699C604.998 489.534 605.335 490.327 605.822 491.025C606.309 491.723 606.936 492.312 607.663 492.755L607.635 492.76Z" fill="#6C63FF"/>
<path opacity="0.1" d="M631.512 408.962C631.512 412.342 625.385 422.143 625.385 422.143C625.385 422.143 619.259 412.342 619.259 408.962C619.197 408.12 619.309 407.275 619.587 406.478C619.866 405.682 620.306 404.952 620.88 404.333C621.453 403.715 622.148 403.222 622.92 402.884C623.692 402.547 624.526 402.373 625.369 402.373C626.211 402.373 627.045 402.547 627.817 402.884C628.59 403.222 629.284 403.715 629.858 404.333C630.431 404.952 630.871 405.682 631.15 406.478C631.429 407.275 631.541 408.12 631.479 408.962H631.512Z" fill="#0DE3D5"/>
<path opacity="0.1" d="M641.598 427.682C639.766 430.521 629.317 435.418 629.317 435.418C629.317 435.418 629.507 423.866 631.339 421.027C631.746 420.29 632.299 419.645 632.965 419.131C633.632 418.617 634.396 418.247 635.212 418.042C636.027 417.837 636.876 417.802 637.705 417.94C638.535 418.078 639.327 418.385 640.033 418.843C640.738 419.301 641.342 419.899 641.807 420.601C642.272 421.302 642.588 422.092 642.735 422.921C642.881 423.751 642.856 424.601 642.661 425.42C642.465 426.239 642.104 427.009 641.598 427.682Z" fill="#0DE3D5"/>
<path opacity="0.1" d="M641.158 459.683C638.145 461.206 626.677 460.152 626.677 460.152C626.677 460.152 632.665 450.273 635.678 448.75C636.4 448.316 637.204 448.036 638.04 447.926C638.875 447.817 639.724 447.882 640.533 448.116C641.343 448.351 642.095 448.75 642.744 449.289C643.392 449.827 643.922 450.494 644.302 451.248C644.681 452.001 644.901 452.825 644.949 453.667C644.996 454.51 644.869 455.353 644.576 456.144C644.283 456.935 643.83 457.657 643.246 458.265C642.662 458.873 641.959 459.354 641.181 459.678L641.158 459.683Z" fill="#0DE3D5"/>
<path opacity="0.1" d="M635.383 483.814C632.67 485.822 621.164 486.731 621.164 486.731C621.164 486.731 625.396 475.982 628.114 473.968C629.422 473.172 630.98 472.896 632.482 473.192C633.984 473.489 635.32 474.338 636.228 475.572C637.136 476.806 637.55 478.335 637.388 479.86C637.227 481.384 636.501 482.793 635.355 483.808L635.383 483.814Z" fill="#0DE3D5"/>
<path opacity="0.1" d="M616.474 436.077C618.897 438.431 630.175 440.874 630.175 440.874C630.175 440.874 627.39 429.657 624.99 427.297C624.43 426.669 623.746 426.162 622.982 425.809C622.218 425.457 621.389 425.265 620.548 425.247C619.707 425.23 618.871 425.385 618.093 425.705C617.314 426.025 616.61 426.502 616.024 427.107C615.437 427.711 614.982 428.43 614.685 429.219C614.388 430.007 614.257 430.848 614.299 431.69C614.341 432.532 614.556 433.356 614.931 434.11C615.305 434.865 615.83 435.535 616.474 436.077Z" fill="#0DE3D5"/>
<path opacity="0.1" d="M610.086 464.39C613.099 465.912 624.567 464.858 624.567 464.858C624.567 464.858 618.602 454.98 615.588 453.485C614.16 452.891 612.56 452.86 611.109 453.398C609.659 453.937 608.466 455.005 607.769 456.388C607.073 457.772 606.924 459.368 607.354 460.856C607.784 462.344 608.76 463.615 610.086 464.412V464.39Z" fill="#0DE3D5"/>
<path opacity="0.1" d="M607.635 492.76C610.347 494.768 621.854 495.677 621.854 495.677C621.854 495.677 617.621 484.929 614.903 482.915C614.266 482.351 613.519 481.925 612.709 481.666C611.899 481.407 611.043 481.319 610.198 481.409C609.352 481.499 608.534 481.764 607.796 482.188C607.059 482.612 606.417 483.185 605.912 483.871C605.408 484.556 605.051 485.34 604.866 486.171C604.68 487.002 604.669 487.863 604.834 488.699C604.998 489.534 605.335 490.327 605.822 491.025C606.309 491.723 606.936 492.312 607.663 492.755L607.635 492.76Z" fill="#0DE3D5"/>
<path d="M788.435 510.22C788.435 510.22 780.326 482.636 789.956 462.338C794.051 453.849 795.287 444.258 793.476 435.005C792.581 430.62 791.288 426.325 789.61 422.176" stroke="#535461" stroke-width="2" stroke-miterlimit="10"/>
<path d="M795.603 409.351C795.603 412.731 789.477 422.532 789.477 422.532C789.477 422.532 783.35 412.731 783.35 409.351C783.464 407.806 784.158 406.362 785.291 405.308C786.424 404.254 787.913 403.668 789.46 403.668C791.007 403.668 792.496 404.254 793.629 405.308C794.762 406.362 795.456 407.806 795.57 409.351H795.603Z" fill="#6C63FF"/>
<path d="M805.706 428.072C803.874 430.912 793.426 435.809 793.426 435.809C793.426 435.809 793.615 424.257 795.447 421.418C795.854 420.681 796.407 420.035 797.074 419.522C797.74 419.008 798.504 418.637 799.32 418.432C800.135 418.228 800.984 418.193 801.814 418.331C802.643 418.469 803.435 418.776 804.141 419.234C804.846 419.692 805.451 420.29 805.915 420.991C806.38 421.693 806.696 422.483 806.843 423.312C806.99 424.141 806.964 424.992 806.769 425.811C806.574 426.629 806.212 427.399 805.706 428.072Z" fill="#6C63FF"/>
<path d="M805.283 460.074C802.27 461.596 790.802 460.542 790.802 460.542C790.802 460.542 796.79 450.663 799.803 449.141C800.526 448.702 801.332 448.418 802.17 448.307C803.008 448.196 803.86 448.259 804.672 448.494C805.484 448.728 806.239 449.129 806.889 449.67C807.54 450.21 808.071 450.88 808.45 451.637C808.83 452.393 809.048 453.22 809.093 454.066C809.138 454.911 809.007 455.757 808.71 456.549C808.412 457.341 807.954 458.064 807.365 458.67C806.775 459.277 806.066 459.755 805.283 460.074Z" fill="#6C63FF"/>
<path d="M799.485 484.204C796.773 486.212 785.266 487.122 785.266 487.122C785.266 487.122 789.499 476.373 792.217 474.359C793.525 473.563 795.083 473.286 796.585 473.583C798.086 473.88 799.422 474.729 800.33 475.963C801.238 477.196 801.652 478.726 801.491 480.25C801.329 481.775 800.604 483.183 799.457 484.199L799.485 484.204Z" fill="#6C63FF"/>
<path d="M780.588 436.468C783.01 438.822 794.289 441.265 794.289 441.265C794.289 441.265 791.504 430.047 789.104 427.688C788.543 427.059 787.86 426.553 787.096 426.2C786.332 425.847 785.503 425.656 784.662 425.638C783.821 425.62 782.985 425.776 782.206 426.096C781.428 426.416 780.724 426.893 780.137 427.497C779.551 428.102 779.095 428.821 778.799 429.609C778.502 430.398 778.371 431.239 778.413 432.081C778.455 432.922 778.67 433.746 779.044 434.501C779.418 435.256 779.944 435.925 780.588 436.468Z" fill="#6C63FF"/>
<path d="M774.188 464.781C777.201 466.304 788.669 465.249 788.669 465.249C788.669 465.249 782.682 455.371 779.669 453.848C778.24 453.254 776.64 453.223 775.189 453.762C773.739 454.3 772.546 455.368 771.849 456.752C771.153 458.135 771.004 459.731 771.434 461.219C771.864 462.707 772.84 463.978 774.166 464.775L774.188 464.781Z" fill="#6C63FF"/>
<path d="M771.743 493.152C774.456 495.16 785.962 496.069 785.962 496.069C785.962 496.069 781.729 485.32 779.011 483.306C777.703 482.51 776.145 482.233 774.644 482.53C773.142 482.827 771.806 483.676 770.898 484.91C769.99 486.144 769.576 487.673 769.738 489.198C769.899 490.722 770.625 492.13 771.771 493.146L771.743 493.152Z" fill="#6C63FF"/>
<path opacity="0.1" d="M795.603 409.351C795.603 412.731 789.477 422.532 789.477 422.532C789.477 422.532 783.35 412.731 783.35 409.351C783.464 407.806 784.158 406.362 785.291 405.308C786.424 404.254 787.913 403.668 789.46 403.668C791.007 403.668 792.496 404.254 793.629 405.308C794.762 406.362 795.456 407.806 795.57 409.351H795.603Z" fill="#6C63FF"/>
<path opacity="0.1" d="M805.706 428.072C803.874 430.912 793.426 435.809 793.426 435.809C793.426 435.809 793.615 424.257 795.447 421.418C795.854 420.681 796.407 420.035 797.074 419.522C797.74 419.008 798.504 418.637 799.32 418.432C800.135 418.228 800.984 418.193 801.814 418.331C802.643 418.469 803.435 418.776 804.141 419.234C804.846 419.692 805.451 420.29 805.915 420.991C806.38 421.693 806.696 422.483 806.843 423.312C806.99 424.141 806.964 424.992 806.769 425.811C806.574 426.629 806.212 427.399 805.706 428.072Z" fill="#6C63FF"/>
<path opacity="0.1" d="M805.283 460.074C802.27 461.596 790.802 460.542 790.802 460.542C790.802 460.542 796.79 450.663 799.803 449.141C800.526 448.702 801.332 448.418 802.17 448.307C803.008 448.196 803.86 448.259 804.672 448.494C805.484 448.728 806.239 449.129 806.889 449.67C807.54 450.21 808.071 450.88 808.45 451.637C808.83 452.393 809.048 453.22 809.093 454.066C809.138 454.911 809.007 455.757 808.71 456.549C808.412 457.341 807.954 458.064 807.365 458.67C806.775 459.277 806.066 459.755 805.283 460.074Z" fill="#6C63FF"/>
<path opacity="0.1" d="M799.485 484.204C796.773 486.212 785.266 487.122 785.266 487.122C785.266 487.122 789.499 476.373 792.217 474.359C793.525 473.563 795.083 473.286 796.585 473.583C798.086 473.88 799.422 474.729 800.33 475.963C801.238 477.196 801.652 478.726 801.491 480.25C801.329 481.775 800.604 483.183 799.457 484.199L799.485 484.204Z" fill="#6C63FF"/>
<path opacity="0.1" d="M780.588 436.468C783.01 438.822 794.289 441.265 794.289 441.265C794.289 441.265 791.504 430.047 789.104 427.688C788.543 427.059 787.86 426.553 787.096 426.2C786.332 425.847 785.503 425.656 784.662 425.638C783.821 425.62 782.985 425.776 782.206 426.096C781.428 426.416 780.724 426.893 780.137 427.497C779.551 428.102 779.095 428.821 778.799 429.609C778.502 430.398 778.371 431.239 778.413 432.081C778.455 432.922 778.67 433.746 779.044 434.501C779.418 435.256 779.944 435.925 780.588 436.468Z" fill="#6C63FF"/>
<path opacity="0.1" d="M774.188 464.781C777.201 466.304 788.669 465.249 788.669 465.249C788.669 465.249 782.682 455.371 779.669 453.848C778.24 453.254 776.64 453.223 775.189 453.762C773.739 454.3 772.546 455.368 771.849 456.752C771.153 458.135 771.004 459.731 771.434 461.219C771.864 462.707 772.84 463.978 774.166 464.775L774.188 464.781Z" fill="#6C63FF"/>
<path opacity="0.1" d="M771.743 493.152C774.456 495.16 785.962 496.069 785.962 496.069C785.962 496.069 781.729 485.32 779.011 483.306C777.703 482.51 776.145 482.233 774.644 482.53C773.142 482.827 771.806 483.676 770.898 484.91C769.99 486.144 769.576 487.673 769.738 489.198C769.899 490.722 770.625 492.13 771.771 493.146L771.743 493.152Z" fill="#6C63FF"/>
<path opacity="0.5" d="M828.119 195.527H824.621C824.952 195.543 825.283 195.491 825.594 195.375C825.905 195.259 826.189 195.081 826.429 194.852C826.669 194.623 826.86 194.347 826.99 194.042C827.121 193.736 827.188 193.408 827.188 193.075C827.188 192.743 827.121 192.415 826.99 192.109C826.86 191.804 826.669 191.528 826.429 191.299C826.189 191.07 825.905 190.892 825.594 190.776C825.283 190.66 824.952 190.608 824.621 190.624H796.261C795.632 190.654 795.038 190.925 794.604 191.382C794.169 191.838 793.927 192.445 793.927 193.075C793.927 193.706 794.169 194.313 794.604 194.769C795.038 195.226 795.632 195.497 796.261 195.527H799.758C799.129 195.557 798.536 195.828 798.101 196.285C797.667 196.741 797.424 197.348 797.424 197.979C797.424 198.609 797.667 199.216 798.101 199.672C798.536 200.129 799.129 200.4 799.758 200.43H794.863C794.531 200.414 794.2 200.466 793.89 200.582C793.579 200.698 793.295 200.876 793.055 201.105C792.815 201.335 792.624 201.61 792.493 201.915C792.362 202.221 792.295 202.55 792.295 202.882C792.295 203.214 792.362 203.543 792.493 203.848C792.624 204.153 792.815 204.429 793.055 204.658C793.295 204.887 793.579 205.065 793.89 205.181C794.2 205.297 794.531 205.349 794.863 205.333H823.201C823.532 205.349 823.863 205.297 824.174 205.181C824.484 205.065 824.769 204.887 825.009 204.658C825.249 204.429 825.44 204.153 825.57 203.848C825.701 203.543 825.768 203.214 825.768 202.882C825.768 202.55 825.701 202.221 825.57 201.915C825.44 201.61 825.249 201.335 825.009 201.105C824.769 200.876 824.484 200.698 824.174 200.582C823.863 200.466 823.532 200.414 823.201 200.43H828.119C828.748 200.4 829.341 200.129 829.775 199.672C830.21 199.216 830.452 198.609 830.452 197.979C830.452 197.348 830.21 196.741 829.775 196.285C829.341 195.828 828.748 195.557 828.119 195.527Z" fill="#DEE3F3"/>
<path opacity="0.5" d="M664.25 209.83H661.588C661.841 209.844 662.094 209.806 662.332 209.719C662.57 209.631 662.788 209.496 662.972 209.321C663.157 209.147 663.303 208.936 663.403 208.703C663.504 208.47 663.555 208.218 663.555 207.964C663.555 207.71 663.504 207.459 663.403 207.226C663.303 206.992 663.157 206.782 662.972 206.607C662.788 206.433 662.57 206.298 662.332 206.21C662.094 206.123 661.841 206.085 661.588 206.098H640.022C639.546 206.125 639.097 206.333 638.769 206.68C638.441 207.027 638.258 207.486 638.258 207.964C638.258 208.442 638.441 208.902 638.769 209.249C639.097 209.596 639.546 209.804 640.022 209.83H642.684C642.431 209.816 642.178 209.854 641.94 209.942C641.702 210.029 641.484 210.165 641.3 210.339C641.116 210.514 640.969 210.724 640.869 210.957C640.768 211.191 640.717 211.442 640.717 211.696C640.717 211.95 640.768 212.201 640.869 212.435C640.969 212.668 641.116 212.878 641.3 213.053C641.484 213.228 641.702 213.363 641.94 213.45C642.178 213.538 642.431 213.576 642.684 213.562H638.958C638.705 213.548 638.452 213.586 638.214 213.674C637.976 213.761 637.758 213.896 637.574 214.071C637.39 214.245 637.243 214.456 637.143 214.689C637.042 214.922 636.991 215.174 636.991 215.428C636.991 215.682 637.042 215.933 637.143 216.166C637.243 216.4 637.39 216.61 637.574 216.785C637.758 216.959 637.976 217.095 638.214 217.182C638.452 217.27 638.705 217.308 638.958 217.294H660.524C660.777 217.308 661.031 217.27 661.269 217.182C661.507 217.095 661.724 216.959 661.909 216.785C662.093 216.61 662.239 216.4 662.34 216.166C662.44 215.933 662.492 215.682 662.492 215.428C662.492 215.174 662.44 214.922 662.34 214.689C662.239 214.456 662.093 214.245 661.909 214.071C661.724 213.896 661.507 213.761 661.269 213.674C661.031 213.586 660.777 213.548 660.524 213.562H664.25C664.726 213.536 665.175 213.328 665.503 212.981C665.831 212.634 666.014 212.174 666.014 211.696C666.014 211.218 665.831 210.758 665.503 210.411C665.175 210.064 664.726 209.856 664.25 209.83Z" fill="#DEE3F3"/>
<path d="M483.238 474.125C483.238 474.125 492.985 493.286 485.043 503.767C477.1 514.248 485.767 542.813 485.767 542.813" stroke="#0DE3D5" stroke-miterlimit="10"/>
<path d="M486.146 468.135C486.146 471.828 483.439 474.829 483.439 474.829C483.439 474.829 480.732 471.833 480.732 468.135C480.732 464.437 483.439 461.441 483.439 461.441C483.439 461.441 486.146 464.442 486.146 468.135Z" fill="#0DE3D5"/>
<path d="M488.29 474.125C488.29 474.125 478.543 493.286 486.485 503.767C494.428 514.248 485.761 542.813 485.761 542.813" stroke="#0DE3D5" stroke-miterlimit="10"/>
<path d="M485.405 468.135C485.405 471.828 488.112 474.829 488.112 474.829C488.112 474.829 490.818 471.833 490.818 468.135C490.818 464.437 488.112 461.441 488.112 461.441C488.112 461.441 485.405 464.442 485.405 468.135Z" fill="#0DE3D5"/>
<path opacity="0.1" d="M485.405 468.135C485.405 471.828 488.112 474.829 488.112 474.829C488.112 474.829 490.818 471.833 490.818 468.135C490.818 464.437 488.112 461.441 488.112 461.441C488.112 461.441 485.405 464.442 485.405 468.135Z" fill="black"/>
<path d="M492.272 474.125C492.272 474.125 502.019 493.286 494.077 503.767C486.134 514.248 494.801 542.813 494.801 542.813" stroke="#0DE3D5" stroke-miterlimit="10"/>
<path d="M495.152 468.135C495.152 471.828 492.445 474.829 492.445 474.829C492.445 474.829 489.738 471.833 489.738 468.135C489.738 464.437 492.445 461.441 492.445 461.441C492.445 461.441 495.152 464.442 495.152 468.135Z" fill="#0DE3D5"/>
<path d="M493.631 483.485C491.075 486.145 487.048 486.424 487.048 486.424C487.048 486.424 487.17 482.386 489.727 479.731C492.283 477.075 496.31 476.791 496.31 476.791C496.31 476.791 496.171 480.818 493.631 483.485Z" fill="#0DE3D5"/>
<path d="M493.887 496.705C491.331 499.366 487.304 499.645 487.304 499.645C487.304 499.645 487.426 495.606 489.983 492.951C492.539 490.296 496.566 490.012 496.566 490.012C496.566 490.012 496.444 494.039 493.887 496.705Z" fill="#0DE3D5"/>
<path d="M480.019 503.974C482.436 506.763 482.353 510.801 482.353 510.801C482.353 510.801 478.348 510.316 475.931 507.527C473.514 504.738 473.597 500.699 473.597 500.699C473.597 500.699 477.602 501.185 480.019 503.974Z" fill="#0DE3D5"/>
<path d="M482.247 475.799C485.321 477.84 486.318 481.756 486.318 481.756C486.318 481.756 482.33 482.364 479.256 480.322C476.182 478.281 475.185 474.365 475.185 474.365C475.185 474.365 479.189 473.746 482.247 475.799Z" fill="#0DE3D5"/>
<path opacity="0.1" d="M482.247 475.799C485.321 477.84 486.318 481.756 486.318 481.756C486.318 481.756 482.33 482.364 479.256 480.322C476.182 478.281 475.185 474.365 475.185 474.365C475.185 474.365 479.189 473.746 482.247 475.799Z" fill="black"/>
<path d="M497.313 474.125C497.313 474.125 487.566 493.286 495.508 503.767C503.45 514.248 494.784 542.813 494.784 542.813" stroke="#0DE3D5" stroke-miterlimit="10"/>
<path d="M494.427 468.135C494.427 471.828 497.134 474.829 497.134 474.829C497.134 474.829 499.841 471.833 499.841 468.135C499.841 464.437 497.134 461.441 497.134 461.441C497.134 461.441 494.427 464.442 494.427 468.135Z" fill="#0DE3D5"/>
<path opacity="0.1" d="M494.427 468.135C494.427 471.828 497.134 474.829 497.134 474.829C497.134 474.829 499.841 471.833 499.841 468.135C499.841 464.437 497.134 461.441 497.134 461.441C497.134 461.441 494.427 464.442 494.427 468.135Z" fill="black"/>
<path d="M495.207 483.768C492.617 486.401 492.422 490.461 492.422 490.461C492.422 490.461 496.449 490.233 499.039 487.6C501.629 484.967 501.824 480.906 501.824 480.906C501.824 480.906 497.797 481.135 495.207 483.768Z" fill="#0DE3D5"/>
<path opacity="0.1" d="M495.207 483.768C492.617 486.401 492.422 490.461 492.422 490.461C492.422 490.461 496.449 490.233 499.039 487.6C501.629 484.967 501.824 480.906 501.824 480.906C501.824 480.906 497.797 481.135 495.207 483.768Z" fill="black"/>
<path d="M500.281 502.071C497.691 504.703 497.496 508.764 497.496 508.764C497.496 508.764 501.523 508.535 504.113 505.903C506.703 503.27 506.898 499.209 506.898 499.209C506.898 499.209 502.854 499.438 500.281 502.071Z" fill="#0DE3D5"/>
<path d="M492.829 498.049C492.829 498.049 498.694 488.79 506.931 488.566" stroke="#0DE3D5" stroke-miterlimit="10"/>
<path d="M488.245 492.455C488.245 492.455 482.38 483.196 474.143 482.973" stroke="#0DE3D5" stroke-miterlimit="10"/>
<path d="M487.482 505.674C487.482 505.674 493.347 496.415 501.584 496.191" stroke="#0DE3D5" stroke-miterlimit="10"/>
<path d="M506.647 490.038C507.487 490.038 508.168 489.356 508.168 488.515C508.168 487.674 507.487 486.992 506.647 486.992C505.807 486.992 505.127 487.674 505.127 488.515C505.127 489.356 505.807 490.038 506.647 490.038Z" fill="#0DE3D5"/>
<path d="M474.288 484.573C475.128 484.573 475.808 483.891 475.808 483.05C475.808 482.209 475.128 481.527 474.288 481.527C473.448 481.527 472.767 482.209 472.767 483.05C472.767 483.891 473.448 484.573 474.288 484.573Z" fill="#0DE3D5"/>
<path d="M491.799 508.709C491.799 508.709 485.934 499.45 477.697 499.227" stroke="#0DE3D5" stroke-miterlimit="10"/>
<path d="M477.841 500.839C478.681 500.839 479.362 500.157 479.362 499.316C479.362 498.475 478.681 497.793 477.841 497.793C477.002 497.793 476.321 498.475 476.321 499.316C476.321 500.157 477.002 500.839 477.841 500.839Z" fill="#0DE3D5"/>
<path d="M501.696 497.792C502.536 497.792 503.216 497.11 503.216 496.269C503.216 495.428 502.536 494.746 501.696 494.746C500.856 494.746 500.175 495.428 500.175 496.269C500.175 497.11 500.856 497.792 501.696 497.792Z" fill="#0DE3D5"/>
<path d="M524.23 531.663C524.23 531.663 510.095 528.83 506.318 525.053C502.542 521.277 485.588 514.672 483.7 519.391C481.812 524.111 458.253 540.159 474.277 542.992C490.3 545.826 511.977 546.769 516.689 544.878C521.401 542.987 524.23 531.663 524.23 531.663Z" fill="#A8A8A8"/>
<path opacity="0.2" d="M474.277 541.235C490.3 544.069 511.977 545.011 516.689 543.12C520.276 541.681 522.771 534.753 523.757 531.562L524.23 531.663C524.23 531.663 521.401 542.992 516.689 544.877C511.977 546.763 490.3 545.82 474.277 542.992C469.654 542.172 468.328 540.253 468.83 537.827C469.219 539.389 470.835 540.627 474.277 541.235Z" fill="black"/>
<path d="M953.395 478.465C953.395 478.465 958.063 484.601 951.24 493.805C944.417 503.008 938.792 510.823 941.07 516.58C941.07 516.58 951.362 499.438 959.739 499.198C968.116 498.959 962.613 488.768 953.395 478.465Z" fill="#1E5DD6"/>
<path opacity="0.1" d="M953.396 478.465C953.802 479.056 954.123 479.702 954.348 480.384C962.524 490 966.874 498.975 959.021 499.204C951.702 499.416 942.925 512.519 940.819 515.832C940.889 516.088 940.972 516.339 941.07 516.585C941.07 516.585 951.363 499.444 959.739 499.204C968.116 498.964 962.613 488.768 953.396 478.465Z" fill="black"/>
<path d="M962.073 486.25C962.073 488.403 961.833 490.155 961.516 490.155C961.198 490.155 960.959 488.409 960.959 486.25C960.959 484.092 961.26 485.135 961.555 485.135C961.85 485.135 962.073 484.103 962.073 486.25Z" fill="#FFD037"/>
<path d="M965.052 488.823C963.164 489.854 961.521 490.496 961.382 490.211C961.243 489.927 962.652 488.901 964.54 487.874C966.428 486.848 965.682 487.595 965.827 487.874C965.971 488.153 966.935 487.791 965.052 488.823Z" fill="#FFD037"/>
<path d="M928.745 478.465C928.745 478.465 924.077 484.601 930.9 493.805C937.723 503.008 943.348 510.823 941.07 516.58C941.07 516.58 930.777 499.438 922.401 499.198C914.024 498.959 919.527 488.768 928.745 478.465Z" fill="#6C63FF"/>
<path opacity="0.1" d="M928.745 478.465C928.338 479.056 928.017 479.702 927.792 480.384C919.616 490 915.266 498.975 923.119 499.204C930.438 499.416 939.215 512.519 941.321 515.832C941.251 516.088 941.167 516.339 941.07 516.585C941.07 516.585 930.777 499.444 922.401 499.204C914.024 498.964 919.527 488.768 928.745 478.465Z" fill="#1E5DD6"/>
<path d="M920.067 486.25C920.067 488.403 920.306 490.155 920.624 490.155C920.941 490.155 921.181 488.409 921.181 486.25C921.181 484.092 920.88 485.135 920.585 485.135C920.29 485.135 920.067 484.103 920.067 486.25Z" fill="#FFD037"/>
<path d="M917.087 488.823C918.975 489.854 920.618 490.496 920.758 490.211C920.897 489.927 919.488 488.901 917.6 487.874C915.711 486.848 916.458 487.595 916.313 487.874C916.168 488.153 915.199 487.791 917.087 488.823Z" fill="#FFD037"/>
<path d="M921.554 515.776C921.554 515.776 934.604 515.374 938.536 512.569C942.468 509.763 958.586 506.433 959.583 510.895C960.58 515.358 979.194 533.269 964.462 533.386C949.731 533.503 930.232 531.088 926.305 528.695C922.378 526.302 921.554 515.776 921.554 515.776Z" fill="#A8A8A8"/>
<path opacity="0.2" d="M964.724 531.842C949.993 531.959 930.493 529.543 926.567 527.15C923.576 525.326 922.384 518.783 921.989 515.766H921.554C921.554 515.766 922.378 526.308 926.305 528.701C930.232 531.094 949.731 533.515 964.462 533.392C968.718 533.359 970.182 531.842 970.104 529.599C969.514 530.966 967.916 531.814 964.724 531.842Z" fill="black"/>
<path opacity="0.5" d="M554.061 228.623H550.563C550.895 228.639 551.226 228.587 551.536 228.471C551.847 228.355 552.131 228.177 552.371 227.948C552.611 227.718 552.802 227.443 552.933 227.137C553.063 226.832 553.131 226.503 553.131 226.171C553.131 225.839 553.063 225.51 552.933 225.205C552.802 224.9 552.611 224.624 552.371 224.395C552.131 224.166 551.847 223.988 551.536 223.871C551.226 223.755 550.895 223.704 550.563 223.72H522.225C521.596 223.75 521.003 224.021 520.568 224.478C520.134 224.934 519.891 225.54 519.891 226.171C519.891 226.802 520.134 227.408 520.568 227.865C521.003 228.321 521.596 228.593 522.225 228.623H525.723C525.094 228.653 524.501 228.924 524.066 229.381C523.632 229.837 523.389 230.444 523.389 231.074C523.389 231.705 523.632 232.311 524.066 232.768C524.501 233.224 525.094 233.496 525.723 233.526H520.827C520.198 233.556 519.605 233.827 519.17 234.284C518.736 234.74 518.493 235.347 518.493 235.977C518.493 236.608 518.736 237.215 519.17 237.671C519.605 238.127 520.198 238.399 520.827 238.429H549.165C549.497 238.445 549.828 238.393 550.138 238.277C550.449 238.161 550.733 237.983 550.973 237.754C551.213 237.525 551.404 237.249 551.535 236.944C551.665 236.638 551.733 236.31 551.733 235.977C551.733 235.645 551.665 235.317 551.535 235.011C551.404 234.706 551.213 234.43 550.973 234.201C550.733 233.972 550.449 233.794 550.138 233.678C549.828 233.562 549.497 233.51 549.165 233.526H554.061C554.69 233.496 555.283 233.224 555.718 232.768C556.152 232.311 556.395 231.705 556.395 231.074C556.395 230.444 556.152 229.837 555.718 229.381C555.283 228.924 554.69 228.653 554.061 228.623Z" fill="#DEE3F3"/>
<rect opacity="0.93" x="648.906" y="103" width="13.08" height="31.61" transform="rotate(18.2629 648.906 103)" fill="#0AB0A5"/>
<rect opacity="0.82" x="847" y="6.28516" width="8.4" height="20.3" transform="rotate(-39 847 6.28516)" fill="#6A97EA"/>
<rect opacity="0.7" x="930" y="88.0859" width="10.92" height="23.52" transform="rotate(120 930 88.0859)" fill="#0DE3D5"/>
<rect x="1146" y="519" width="12" height="29" transform="rotate(-30 1146 519)" fill="#6A97EA"/>
<rect x="340.799" y="465" width="13" height="28" transform="rotate(45 340.799 465)" fill="#0DE3D5"/>
<rect opacity="0.92" x="38" y="32" width="9.84" height="23.78" transform="rotate(-173 38 32)" fill="#6A97EA"/>
<rect opacity="0.85" x="350.359" y="75.9746" width="15.08" height="32.48" transform="rotate(-99 350.359 75.9746)" fill="#0DE3D5"/>
<rect opacity="0.93" x="1095" y="175" width="12.48" height="30.16" transform="rotate(-144 1095 175)" fill="#6A97EA"/>
<rect opacity="0.77" x="1388" y="88" width="10.44" height="25.23" transform="rotate(-169 1388 88)" fill="#6A97EA"/>
<rect opacity="0.97" x="127" y="185.801" width="9" height="21.75" transform="rotate(5 127 185.801)" fill="#6A97EA"/>
<rect opacity="0.77" x="415" y="256.801" width="12.96" height="31.32" transform="rotate(-175 415 256.801)" fill="#6A97EA"/>
<rect opacity="0.74" x="1055" y="331.801" width="12.12" height="29.29" transform="rotate(-61 1055 331.801)" fill="#6A97EA"/>
<rect opacity="0.82" x="1338" y="275.801" width="12.72" height="30.74" transform="rotate(94 1338 275.801)" fill="#0AB0A5"/>
<rect opacity="0.87" x="67" y="437.6" width="14.4" height="34.8" transform="rotate(-123 67 437.6)" fill="#6A97EA"/>
<rect opacity="0.84" x="1245.74" y="962.791" width="10.08" height="24.36" transform="rotate(-132 1245.74 962.791)" fill="#6A97EA"/>
<rect opacity="0.76" x="320.753" y="888.617" width="10.27" height="22.12" transform="rotate(128 320.753 888.617)" fill="#0DE3D5"/>
<rect opacity="0.83" x="1340" y="562.6" width="13.8" height="33.35" transform="rotate(-122 1340 562.6)" fill="#6A97EA"/>
<rect opacity="0.72" x="117" y="721.4" width="11.52" height="27.84" transform="rotate(-59 117 721.4)" fill="#6A97EA"/>
<rect opacity="0.77" x="415.701" y="749.473" width="11.64" height="28.13" transform="rotate(93 415.701 749.473)" fill="#6A97EA"/>
<rect opacity="0.72" x="993.303" y="798.777" width="8.4" height="20.3" transform="rotate(141 993.303 798.777)" fill="#6A97EA"/>
<rect opacity="0.88" x="1136.99" y="749" width="11.05" height="23.8" transform="rotate(36 1136.99 749)" fill="#0DE3D5"/>
<rect opacity="0.78" x="1409" y="774.4" width="11.7" height="25.2" transform="rotate(119 1409 774.4)" fill="#0DE3D5"/>
<rect opacity="0.87" x="129" y="870.199" width="7.44" height="17.98" transform="rotate(141 129 870.199)" fill="#6A97EA"/>
<rect opacity="0.93" x="476.691" y="947.09" width="7.8" height="16.8" transform="rotate(147 476.691 947.09)" fill="#0DE3D5"/>
<rect opacity="0.87" x="727.242" y="896.65" width="10.92" height="23.52" transform="rotate(157 727.242 896.65)" fill="#0DE3D5"/>
<rect opacity="0.94" x="993" y="937.199" width="10.32" height="24.94" transform="rotate(-57 993 937.199)" fill="#6A97EA"/>
<rect opacity="0.83" x="1334" y="808.199" width="13.8" height="33.35" transform="rotate(120 1334 808.199)" fill="#0AB0A5"/>
<defs>
<linearGradient id="paint0_linear" x1="711.491" y1="490.301" x2="711.491" y2="259.369" gradientUnits="userSpaceOnUse">
<stop stop-color="#808080" stop-opacity="0.25"/>
<stop offset="0.54" stop-color="#808080" stop-opacity="0.12"/>
<stop offset="1" stop-color="#808080" stop-opacity="0.1"/>
</linearGradient>
<linearGradient id="paint1_linear" x1="668.468" y1="451.015" x2="668.468" y2="450.989" gradientUnits="userSpaceOnUse">
<stop stop-color="#808080" stop-opacity="0.25"/>
<stop offset="0.54" stop-color="#808080" stop-opacity="0.12"/>
<stop offset="1" stop-color="#808080" stop-opacity="0.1"/>
</linearGradient>
<linearGradient id="paint2_linear" x1="36320.7" y1="112975" x2="36320.7" y2="50755.2" gradientUnits="userSpaceOnUse">
<stop stop-color="#808080" stop-opacity="0.25"/>
<stop offset="0.54" stop-color="#808080" stop-opacity="0.12"/>
<stop offset="1" stop-color="#808080" stop-opacity="0.1"/>
</linearGradient>
<linearGradient id="paint3_linear" x1="101489" y1="136908" x2="101489" y2="44502.1" gradientUnits="userSpaceOnUse">
<stop stop-color="#808080" stop-opacity="0.25"/>
<stop offset="0.54" stop-color="#808080" stop-opacity="0.12"/>
<stop offset="1" stop-color="#808080" stop-opacity="0.1"/>
</linearGradient>
</defs>
</svg>
