<svg width="253" height="361" viewBox="0 0 253 361" fill="none" xmlns="http://www.w3.org/2000/svg">
<path d="M228.46 161.114C228.013 160.772 227.488 160.543 226.93 160.449C226.343 160.316 225.744 160.232 225.149 160.139L217.428 159.041C216.648 158.898 215.853 158.857 215.063 158.917C214.668 158.949 214.283 159.058 213.93 159.237C213.577 159.417 213.264 159.663 213.009 159.963C212.779 160.244 212.652 160.594 212.652 160.956C212.695 161.318 212.815 161.667 213.003 161.98C213.077 162.128 213.141 162.281 213.194 162.438C213.304 162.778 213.326 163.143 213.47 163.474C213.505 163.547 213.549 163.614 213.602 163.675C213.603 163.694 213.603 163.712 213.602 163.731C213.517 164.155 213.79 164.6 213.668 165.015C213.561 165.364 213.213 165.578 212.993 165.872C212.847 166.081 212.765 166.328 212.76 166.582C212.754 166.836 212.825 167.086 212.962 167.301C213.197 167.66 213.624 167.901 213.746 168.313C213.906 168.857 213.473 169.377 213.087 169.795C212.379 170.564 211.723 171.379 211.124 172.235C210.958 172.447 210.85 172.697 210.811 172.962C210.776 173.501 211.3 173.977 211.209 174.509C211.137 174.93 210.72 175.19 210.359 175.437C209.026 176.307 207.957 177.699 207.85 179.27C207.509 176.765 206.457 174.405 204.815 172.464C204.366 171.929 203.874 171.397 203.689 170.72C203.62 170.45 203.607 170.166 203.513 169.906C203.2 169.083 202.202 168.733 201.766 167.975C201.453 167.446 201.453 166.76 201.064 166.296C200.675 165.832 200.064 165.72 199.728 165.269C199.56 164.963 199.417 164.644 199.302 164.316C199.161 164.049 198.963 163.816 198.721 163.632C198.675 163.594 198.627 163.559 198.577 163.527C198.629 163.481 198.671 163.425 198.7 163.362C198.728 163.299 198.743 163.231 198.743 163.162C198.743 162.8 198.38 162.562 198.063 162.385C197.655 162.154 197.257 161.91 196.868 161.652C197.292 161.456 197.66 161.158 197.937 160.786C198.29 160.228 198.434 159.566 198.345 158.914C198.324 158.392 198.126 157.893 197.784 157.494C197.586 157.29 197.338 157.138 197.131 156.944C196.595 156.43 196.413 155.663 196.191 154.957C195.896 154.029 195.435 153.058 194.576 152.563C194.162 152.328 193.679 152.216 193.274 151.966C192.87 151.715 192.531 151.239 192.672 150.784C192.766 150.475 193.058 150.264 193.255 150.001C193.491 149.661 193.582 149.243 193.507 148.838C193.433 148.433 193.199 148.072 192.857 147.836C192.625 147.69 192.34 147.564 192.293 147.294C192.111 147.249 191.946 147.153 191.817 147.018C191.688 146.883 191.601 146.715 191.565 146.533C191.495 146.17 191.495 145.796 191.565 145.432C191.647 144.86 191.728 144.284 191.807 143.712C191.945 143.769 192.093 143.799 192.242 143.799C192.392 143.799 192.54 143.769 192.678 143.712C192.951 144.145 193.266 144.552 193.619 144.925C194.574 146.036 195.318 147.308 195.814 148.68C195.993 149.179 196.175 149.732 196.639 149.992C196.799 150.082 196.981 150.128 197.138 150.224C197.331 150.357 197.497 150.525 197.627 150.719L198.753 152.192L198.772 152.269C198.782 152.311 198.799 152.352 198.822 152.39C198.891 152.467 198.987 152.515 199.091 152.526C200.246 152.789 201.541 153.03 202.541 152.411C203.444 151.851 203.839 150.753 204.605 150.014C205.147 149.491 205.915 149.086 206.069 148.353C205.886 148.296 205.706 148.23 205.53 148.155C205.686 148 205.843 147.824 206.057 147.616C206.366 147.318 206.646 146.991 206.891 146.639C207.154 146.203 207.365 145.737 207.518 145.253C208.122 143.551 208.728 141.851 209.337 140.151C209.625 139.344 209.914 138.536 210.278 137.754C210.654 136.906 211.099 136.089 211.51 135.257C212.567 133.103 213.384 130.841 213.947 128.513C214.046 128.193 214.079 127.856 214.044 127.523C213.956 126.988 213.545 126.57 213.153 126.187C212.759 125.766 212.31 125.398 211.817 125.095C211.57 124.943 211.295 124.841 211.007 124.795C210.72 124.75 210.426 124.761 210.143 124.828C209.34 125.064 208.835 125.874 208.65 126.685C208.465 127.495 208.534 128.337 208.456 129.16C208.343 130.351 207.929 131.498 207.828 132.693C207.775 133.385 207.828 134.085 207.744 134.771C207.59 135.675 207.271 136.544 206.803 137.336C205.786 139.221 204.409 140.895 202.748 142.264C202.557 142.425 202.359 142.574 202.171 142.747C202.171 142.611 202.193 142.478 202.212 142.345C202.075 142.379 201.942 142.424 201.814 142.481C201.83 142.326 201.814 142.169 201.766 142.02C201.516 141.28 200.399 141.092 200.198 140.337C200.165 140.151 200.147 139.963 200.145 139.774C200.079 139.115 199.625 138.558 199.468 137.918C199.311 137.277 199.433 136.68 199.154 136.13C198.916 135.788 198.635 135.476 198.32 135.201C197.943 134.777 197.672 134.272 197.527 133.726C197.486 133.574 197.448 133.416 197.404 133.265C197.452 132.923 197.413 132.574 197.291 132.25C197.006 131.548 196.269 131.099 196.003 130.394C195.796 129.846 195.886 129.156 195.494 128.73C195.287 128.526 195.032 128.375 194.751 128.29C193.316 127.739 191.81 127.391 190.276 127.257C189.417 127.18 188.47 127.133 187.855 126.539C187.137 125.846 187.103 124.6 186.262 124.064C185.522 123.591 184.475 123.944 183.901 124.606C183.814 124.704 183.735 124.807 183.662 124.915C183.558 124.501 183.535 124.072 183.596 123.65C183.596 123.542 183.618 123.433 183.628 123.34C185.042 122.887 186.247 121.953 187.027 120.705V120.72L187.065 120.816C187.156 121.042 187.3 121.261 187.513 121.283C187.656 121.284 187.793 121.234 187.902 121.144C188.092 121.015 188.267 120.866 188.423 120.698C188.501 120.615 188.576 120.525 188.649 120.432C189.012 119.948 189.251 119.385 189.345 118.79C189.401 118.431 189.408 118.06 189.47 117.704C189.529 117.425 189.605 117.15 189.699 116.881C189.731 116.791 189.762 116.701 189.79 116.612C189.818 116.522 189.859 116.401 189.89 116.302C190.087 115.666 190.193 115.006 190.204 114.341C190.204 114.23 190.204 114.118 190.204 114.007C190.192 113.573 190.093 113.146 189.912 112.75C189.731 112.354 189.472 111.998 189.15 111.702C188.611 111.269 187.896 111.083 187.501 110.496C187.244 110.097 187.187 109.586 187.037 109.125C186.875 108.569 186.558 108.069 186.122 107.682C185.686 107.295 185.149 107.036 184.572 106.935C183.877 106.859 183.178 107.05 182.621 107.467L182.577 107.498C182.266 107.732 182.003 108.022 181.8 108.352C181.385 108.239 181.006 108.026 180.696 107.733C180.382 107.445 180.141 107.083 179.824 106.805C179.528 106.537 179.165 106.353 178.772 106.272C178.379 106.19 177.971 106.214 177.591 106.341C177.199 106.496 176.851 106.74 176.573 107.053C176.296 107.367 176.097 107.741 175.995 108.144C175.822 108.785 175.854 109.515 175.493 110.05C175.214 110.462 174.756 110.669 174.436 111.046C174.237 111.285 174.101 111.569 174.041 111.872C174.003 112.041 173.985 112.213 173.988 112.386C173.988 112.46 173.988 112.537 174.007 112.615C174.007 112.615 174.007 112.64 174.007 112.649C174.018 112.735 174.036 112.819 174.06 112.902C174.149 113.216 174.309 113.506 174.527 113.75C174.735 113.982 174.993 114.165 175.283 114.285C175.402 114.331 175.523 114.369 175.647 114.4L176.02 114.483L176.152 114.514C175.702 115.349 175.453 116.275 175.422 117.22C175.392 118.165 175.581 119.104 175.976 119.965C175.976 120.049 175.954 120.135 175.945 120.222C175.894 121.441 175.948 122.662 176.108 123.873C176.152 124.349 176.177 124.881 175.879 125.258C175.743 125.409 175.591 125.544 175.424 125.661C175.593 125.444 175.766 125.228 175.942 125.014C175.499 124.575 174.8 124.519 174.173 124.566C172.958 124.652 171.779 125.007 170.723 125.605C170.021 126.001 169.299 126.533 168.497 126.437C168.023 126.388 167.556 126.128 167.095 126.252C166.836 126.356 166.594 126.498 166.377 126.672C166.205 126.793 165.998 126.857 165.787 126.855C165.295 126.255 164.533 125.849 163.943 125.364C163.271 124.775 162.657 124.126 162.109 123.424C161.093 122.217 160.08 121.005 159.082 119.783C158.242 118.756 157.38 117.642 157.232 116.327C157.217 116.198 157.21 116.068 157.21 115.937C157.231 115.313 157.311 114.691 157.449 114.081C157.486 113.935 157.486 113.782 157.449 113.636C157.354 113.326 156.994 113.209 156.683 113.141C156.724 112.904 156.752 112.666 156.768 112.426C156.944 109.766 156.752 107.062 157.323 104.457C157.539 103.458 157.894 102.44 158.625 101.713C159.769 100.574 161.685 100.299 162.563 98.9285C163.297 97.8024 163.005 96.2092 162.084 95.2161C161.162 94.2231 159.741 93.8178 158.389 93.8673C158.01 93.8571 157.636 93.9571 157.314 94.155C157.013 94.4174 156.788 94.7536 156.661 95.1295L155.303 98.3376C154.913 99.1777 154.584 100.044 154.319 100.93C153.942 102.288 153.858 103.714 153.56 105.082C153.56 106.134 152.873 107.445 152.497 108.414C152.077 109.506 151.622 110.579 151.242 111.69C151.148 111.971 150.819 112.797 150.615 113.546C150.538 113.589 150.467 113.641 150.402 113.701C150.238 113.908 150.089 114.126 149.957 114.353C149.671 114.728 149.207 114.926 148.893 115.281C148.58 115.637 148.514 116.299 148.95 116.479C149.038 116.508 149.13 116.528 149.223 116.538C149.28 116.542 149.337 116.552 149.392 116.565C149.863 116.695 150.048 117.283 149.979 117.763C149.91 118.242 149.665 118.691 149.624 119.173C149.539 120.03 150.048 120.822 150.537 121.54C151.043 122.319 151.603 123.063 152.211 123.767C152.654 124.253 153.152 124.695 153.597 125.166C155.294 126.883 156.643 128.897 158.167 130.762C158.715 131.468 159.338 132.114 160.026 132.689C160.476 133.034 160.946 133.352 161.434 133.642C162.306 134.193 163.181 134.737 164.056 135.285C164.354 135.499 164.69 135.654 165.047 135.743C165.163 135.76 165.282 135.76 165.398 135.743C165.414 135.817 165.426 135.894 165.445 135.969C165.649 136.779 166.098 137.515 166.148 138.341C166.198 139.167 166.123 140.015 166.182 140.847C166.239 141.621 166.411 142.394 166.455 143.155C166.543 144.612 166.179 146.057 165.828 147.486C165.298 149.575 164.978 151.712 163.946 153.606C163.658 154.128 163.319 154.664 163.319 155.258C163.319 155.332 163.319 155.403 163.338 155.474L162.868 155.734C162.73 155.814 162.592 155.892 162.466 155.972C161.87 156.353 161.234 156.776 160.989 157.439C160.791 157.974 160.882 158.589 160.644 159.106C160.633 159.13 160.621 159.152 160.606 159.174C160.356 159.657 159.857 160.016 159.744 160.545C159.659 160.953 159.822 161.38 159.744 161.782C159.744 161.782 159.744 161.782 159.744 161.797C159.673 162 159.616 162.206 159.575 162.416C159.571 162.485 159.578 162.554 159.594 162.62C159.653 162.855 159.784 163.066 159.97 163.224C160.083 163.331 160.206 163.427 160.337 163.511C160.472 163.598 160.61 163.678 160.751 163.756L160.832 163.799C160.951 163.861 161.071 163.917 161.193 163.972L161.274 164.009C161.416 164.068 161.56 164.124 161.704 164.173L161.804 164.204C161.917 164.241 162.033 164.275 162.149 164.306L162.228 164.328L162.3 164.344L162.613 164.409L162.73 164.43C162.868 164.455 163.009 164.473 163.153 164.486C163.194 164.486 163.238 164.486 163.278 164.486C163.385 164.486 163.488 164.501 163.592 164.504H163.739C163.849 164.504 163.956 164.504 164.053 164.504H164.166C164.313 164.504 164.461 164.483 164.608 164.464H164.655C164.787 164.446 164.918 164.424 165.05 164.396L165.151 164.374C165.273 164.35 165.395 164.319 165.517 164.285L165.583 164.266C165.731 164.223 165.878 164.173 166.022 164.121C166.521 163.917 167.005 163.68 167.471 163.412C167.785 163.239 168.098 163.066 168.412 162.908C168.645 162.792 168.883 162.689 169.127 162.599C169.72 162.347 170.365 162.241 171.009 162.289C171.326 162.333 171.64 162.397 171.949 162.481C171.951 162.514 171.951 162.547 171.949 162.58C172.204 164.069 172.456 165.555 172.705 167.038C173.115 166.745 173.549 166.488 174.003 166.268C173.919 166.491 173.863 166.724 173.837 166.961C173.818 167.146 173.818 167.332 173.837 167.518C173.865 167.808 173.928 168.136 173.749 168.365C173.64 168.511 173.436 168.591 173.376 168.752C173.333 168.915 173.322 169.086 173.345 169.253C173.332 169.446 173.25 169.628 173.113 169.765C172.976 169.903 172.793 169.988 172.599 170.005C172.688 170.254 172.69 170.525 172.604 170.776C172.518 171.026 172.349 171.24 172.125 171.385C171.995 171.447 171.872 171.525 171.761 171.617C171.654 171.753 171.582 171.914 171.551 172.084C171.137 173.616 170.285 174.999 169.096 176.065C168.65 176.412 168.244 176.804 167.882 177.235C167.66 177.57 167.476 177.928 167.333 178.302C166.497 180.321 165.648 182.34 164.787 184.359C164.31 185.489 163.846 186.636 163.695 187.852C163.319 191.184 160.309 194.012 160.873 197.322C160.988 198.149 161.326 198.932 161.851 199.586C162.479 200.329 163.419 200.759 164.36 201.105C166.778 202.033 169.328 202.538 171.868 203.048L175.857 203.856C176.64 204.033 177.434 204.157 178.234 204.227C179.197 204.292 180.185 204.202 181.122 204.443C181.702 204.595 182.257 204.87 182.856 204.901C183.371 204.929 184.004 204.821 184.308 205.232C184.613 205.644 184.377 206.197 184.666 206.562C185.13 207.15 186.262 206.562 186.767 207.116C186.905 207.327 187.011 207.556 187.081 207.797C187.157 207.946 187.264 208.079 187.394 208.187C187.425 208.362 187.438 208.541 187.432 208.719C187.366 209.436 187.214 210.143 186.98 210.826C186.604 212.082 186.229 213.339 185.854 214.597C185.712 215.041 185.607 215.496 185.541 215.958C185.517 216.182 185.517 216.408 185.541 216.632C185.607 217.316 186.005 218.021 186.667 218.244C187.18 218.378 187.726 218.311 188.191 218.058C188.64 217.828 189.061 217.548 189.445 217.223C190.139 216.705 190.75 216.085 191.255 215.386C192.823 213.071 192.315 209.944 193.415 207.385C194.146 205.675 195.57 204.292 196.043 202.488C196.154 202.146 196.167 201.78 196.081 201.43C195.883 200.811 195.215 200.459 194.591 200.236H194.563C194.051 200.056 193.527 199.909 192.995 199.797C192.863 199.769 192.729 199.744 192.594 199.726C192.296 199.484 192.059 199.178 191.901 198.831C191.876 198.648 191.826 198.469 191.753 198.299C191.704 198.225 191.637 198.164 191.558 198.12C191.48 198.077 191.392 198.052 191.302 198.049C190.988 198.018 190.568 198.132 190.226 198.108C189.527 198.055 189.063 197.377 188.435 197.068C187.808 196.759 187.128 196.833 186.46 196.879C186.221 196.912 185.978 196.897 185.745 196.836C185.467 196.707 185.212 196.534 184.992 196.323C184.606 196.027 184.155 195.824 183.676 195.729C183.196 195.635 182.701 195.651 182.229 195.778C181.929 195.897 181.611 195.967 181.288 195.985C180.677 195.954 180.244 195.413 179.793 195.005C178.557 193.888 176.798 193.594 175.299 192.861C175.069 192.777 174.878 192.614 174.759 192.403C174.587 191.985 174.976 191.561 175.327 191.274L177.905 189.164C180.727 186.85 184.255 185.105 185.566 181.714C185.701 181.259 185.913 180.829 186.193 180.443C186.295 180.325 186.412 180.221 186.541 180.133C187.111 179.767 187.802 179.632 188.47 179.759C189.283 179.94 190.053 180.272 190.74 180.737C191.863 181.411 192.954 182.126 194.017 182.902C195.071 183.641 196.071 184.45 197.012 185.325C198.659 186.871 200.029 188.703 201.563 190.37C203.096 192.038 204.849 193.594 206.979 194.392C209.108 195.19 211.683 195.153 213.511 193.814C215.621 192.267 216.299 189.504 216.832 186.967C218.008 185.844 218.362 184.143 218.936 182.636C219.297 181.683 219.758 180.78 220.147 179.827C220.611 178.707 220.975 177.553 221.338 176.399C221.751 175.241 222.03 174.04 222.172 172.82C222.323 170.89 221.799 168.842 222.348 167.029C223.073 166.871 223.731 166.469 224.443 166.237C225.503 165.89 226.638 165.946 227.761 165.955H227.833C228.22 165.995 228.609 165.903 228.937 165.695C229.313 165.386 229.373 164.86 229.392 164.378C229.435 163.208 229.36 161.878 228.46 161.114ZM183.023 108.339C182.763 108.403 182.495 108.421 182.229 108.395L183.023 108.339Z" fill="url(#paint0_linear)"/>
<path d="M184.26 127.913C183.88 128.231 183.435 128.465 182.955 128.597L180.732 129.383C179.524 129.809 178.264 130.24 176.99 130.085C176.278 129.998 173.227 129.556 172.766 129.008C172.064 128.161 174.525 126.914 175.366 126.199C175.556 126.064 175.733 125.911 175.893 125.741C176.206 125.364 176.166 124.835 176.122 124.359C175.962 123.152 175.908 121.933 175.959 120.717C175.983 120.427 176.025 120.139 176.084 119.854C176.398 118.431 177.74 118.951 178.8 119.328C180.076 119.737 181.309 120.264 182.485 120.903C182.843 121.085 183.154 121.345 183.394 121.664C183.858 122.357 183.673 123.266 183.598 124.139C183.532 124.816 183.535 125.466 183.965 125.958C184.181 126.146 184.379 126.353 184.557 126.577C184.658 126.802 184.683 127.053 184.63 127.293C184.576 127.533 184.446 127.75 184.26 127.913Z" fill="#BE6F72"/>
<path d="M153.544 105.618C153.858 104.244 153.927 102.833 154.303 101.475C154.574 100.591 154.908 99.7265 155.304 98.8889L156.671 95.7025C156.798 95.3275 157.023 94.9923 157.323 94.7311C157.645 94.5332 158.02 94.4331 158.399 94.4434C159.751 94.3939 161.171 94.8115 162.093 95.7891C163.015 96.7667 163.307 98.3599 162.573 99.4829C161.695 100.832 159.779 101.107 158.634 102.246C157.903 102.969 157.549 103.981 157.333 104.98C156.762 107.579 156.953 110.277 156.778 112.931C156.721 113.754 156.558 114.697 155.837 115.127C155.4 115.337 154.916 115.43 154.432 115.397L152.375 115.428C152.03 115.428 150.778 115.641 150.55 115.387C150.148 114.936 151.064 112.705 151.23 112.207C151.6 111.1 152.055 110.026 152.484 108.937C152.858 107.975 153.544 106.666 153.544 105.618Z" fill="#BE6F72"/>
<path d="M196.023 202.808C195.549 204.596 194.125 205.988 193.395 207.693C192.294 210.245 192.789 213.366 191.234 215.674C190.729 216.373 190.119 216.992 189.424 217.509C189.039 217.832 188.619 218.111 188.17 218.341C187.705 218.594 187.159 218.66 186.646 218.526C185.984 218.304 185.586 217.598 185.52 216.918C185.497 216.695 185.497 216.47 185.52 216.246C185.586 215.786 185.691 215.332 185.834 214.888C186.21 213.634 186.585 212.38 186.96 211.126C187.194 210.445 187.345 209.739 187.411 209.023C187.452 208.243 186.95 207.228 187.163 206.501C187.261 206.174 187.624 205.883 187.791 205.607C188.027 205.211 188.208 204.786 188.33 204.342C188.587 203.479 188.763 202.557 189.302 201.83C189.654 201.399 190.066 201.019 190.525 200.701C190.864 200.408 191.262 200.188 191.692 200.054C192.109 199.982 192.538 200.002 192.946 200.113C193.478 200.225 194.002 200.372 194.514 200.552H194.542C195.17 200.775 195.834 201.119 196.032 201.743C196.129 202.092 196.126 202.461 196.023 202.808Z" fill="#3F3D56"/>
<path d="M229.388 164.773C229.369 165.253 229.31 165.788 228.934 166.088C228.606 166.295 228.217 166.386 227.83 166.345H227.745C226.625 166.345 225.487 166.283 224.427 166.626C223.621 166.889 222.881 167.372 222.041 167.468C220.883 167.598 219.795 166.973 218.77 166.428C217.804 165.915 216.813 165.451 215.8 165.036C215.135 164.767 213.777 164.594 213.457 163.876C213.348 163.537 213.256 163.192 213.181 162.843C213.129 162.687 213.065 162.535 212.99 162.388C212.802 162.075 212.682 161.726 212.639 161.364C212.64 161.004 212.766 160.654 212.996 160.374C213.252 160.075 213.565 159.83 213.918 159.651C214.27 159.472 214.655 159.363 215.051 159.332C215.841 159.271 216.636 159.313 217.415 159.455L225.136 160.551C225.732 160.634 226.331 160.718 226.917 160.86C227.474 160.955 227.999 161.182 228.448 161.522C229.36 162.277 229.435 163.604 229.388 164.773Z" fill="#3F3D56"/>
<path d="M222.604 166.753C221.663 168.712 222.34 171.029 222.171 173.194C222.028 174.408 221.748 175.603 221.337 176.755C220.973 177.906 220.609 179.06 220.145 180.177C219.756 181.105 219.295 182.033 218.935 182.98C218.361 184.489 217.994 186.188 216.83 187.311C216.297 189.841 215.62 192.607 213.509 194.141C211.675 195.478 209.119 195.524 206.977 194.717C204.835 193.909 203.095 192.363 201.561 190.695C200.028 189.028 198.657 187.218 197.014 185.665C196.07 184.791 195.068 183.982 194.013 183.243C192.949 182.482 191.858 181.763 190.742 181.086C190.055 180.622 189.284 180.292 188.471 180.112C187.804 179.986 187.113 180.119 186.543 180.483C186.413 180.57 186.296 180.674 186.195 180.792C185.916 181.178 185.704 181.607 185.568 182.061C184.257 185.445 180.735 187.184 177.906 189.486L175.313 191.605C174.962 191.892 174.573 192.313 174.745 192.731C174.864 192.942 175.055 193.104 175.285 193.189C176.784 193.919 178.543 194.213 179.778 195.326C180.23 195.735 180.663 196.273 181.274 196.304C181.597 196.285 181.915 196.215 182.215 196.097C182.687 195.971 183.182 195.954 183.661 196.049C184.141 196.143 184.591 196.346 184.978 196.641C185.194 196.86 185.446 197.04 185.724 197.173C185.957 197.234 186.2 197.249 186.439 197.217C187.107 197.17 187.816 197.111 188.415 197.405C189.014 197.699 189.506 198.392 190.206 198.442C190.547 198.466 190.955 198.355 191.281 198.386C191.371 198.389 191.459 198.413 191.537 198.456C191.616 198.499 191.683 198.56 191.733 198.633C191.806 198.803 191.856 198.982 191.88 199.166C192.009 199.602 192.442 199.868 192.724 200.227C193.157 200.777 193.219 201.526 193.175 202.222C193.03 204.393 192.047 206.427 190.428 207.905C189.968 208.369 189.381 208.692 188.738 208.833C188.416 208.9 188.081 208.865 187.781 208.733C187.48 208.601 187.229 208.38 187.063 208.1C186.993 207.859 186.888 207.63 186.75 207.419C186.245 206.872 185.113 207.453 184.649 206.869C184.36 206.504 184.567 205.919 184.291 205.542C184.015 205.164 183.35 205.232 182.839 205.211C182.24 205.18 181.685 204.901 181.105 204.756C180.164 204.514 179.179 204.604 178.217 204.539C177.417 204.47 176.622 204.346 175.84 204.168L171.841 203.361C169.301 202.85 166.751 202.333 164.334 201.421C163.409 201.074 162.477 200.647 161.825 199.905C161.299 199.252 160.961 198.472 160.846 197.647C160.279 194.346 163.289 191.524 163.669 188.199C163.804 186.986 164.296 185.841 164.76 184.715C165.611 182.702 166.46 180.688 167.307 178.673C167.449 178.3 167.633 177.943 167.855 177.609C168.216 177.178 168.623 176.787 169.069 176.443C170.257 175.379 171.11 174 171.524 172.471C171.555 172.3 171.627 172.14 171.735 172.003C171.846 171.912 171.968 171.834 172.098 171.771C172.322 171.628 172.491 171.414 172.577 171.164C172.663 170.914 172.661 170.643 172.572 170.395C172.767 170.379 172.949 170.294 173.086 170.157C173.223 170.02 173.305 169.838 173.318 169.646C173.295 169.479 173.306 169.308 173.35 169.145C173.425 168.984 173.613 168.904 173.723 168.761C173.902 168.529 173.839 168.204 173.811 167.914C173.792 167.729 173.792 167.544 173.811 167.36C173.879 166.705 174.176 166.094 174.651 165.63C175.401 164.903 176.467 165.092 177.502 164.919C178.534 164.699 179.542 164.381 180.512 163.969C183.233 162.911 186.098 162.258 189.014 162.029C191.939 161.806 194.876 162.269 197.585 163.381C197.979 163.539 198.352 163.747 198.692 164C198.933 164.184 199.131 164.417 199.272 164.684C199.388 165.011 199.53 165.329 199.698 165.634C200.034 166.085 200.667 166.231 201.034 166.658C201.401 167.084 201.433 167.805 201.737 168.334C202.173 169.089 203.182 169.439 203.484 170.259C203.578 170.518 203.59 170.803 203.659 171.072C203.828 171.747 204.337 172.279 204.785 172.811C206.429 174.751 207.482 177.111 207.821 179.617C207.921 178.048 208.99 176.659 210.329 175.793C210.69 175.561 211.107 175.304 211.179 174.884C211.27 174.351 210.747 173.878 210.781 173.337C210.819 173.072 210.927 172.823 211.095 172.613C211.692 171.758 212.348 170.945 213.058 170.178C213.443 169.76 213.876 169.25 213.716 168.699C213.594 168.288 213.168 168.047 212.932 167.688C212.795 167.474 212.725 167.225 212.73 166.972C212.736 166.718 212.817 166.473 212.964 166.265C213.183 165.971 213.531 165.757 213.638 165.408C213.76 164.996 213.487 164.551 213.572 164.127C213.687 163.788 213.914 163.496 214.218 163.301C214.634 162.927 215.107 162.62 215.62 162.391C216.448 162.082 217.37 162.197 218.248 162.317C219.715 162.518 221.362 162.828 222.19 164.04C222.729 164.792 222.999 165.943 222.604 166.753Z" fill="#65617D"/>
<path opacity="0.1" d="M229.388 164.773C229.369 165.253 229.31 165.788 228.933 166.088C228.606 166.295 228.216 166.386 227.83 166.345H227.745C227.874 165.701 228.667 165.333 228.805 164.681C228.829 164.48 228.81 164.277 228.751 164.084C228.691 163.891 228.592 163.711 228.46 163.558C227.789 162.664 226.71 162.169 225.638 161.807C222.608 160.782 219.362 160.542 216.211 161.11C215.354 161.248 214.52 161.501 213.733 161.862C213.472 162.023 213.221 162.199 212.981 162.388C212.793 162.075 212.673 161.726 212.629 161.364C212.631 161.004 212.757 160.654 212.987 160.374C213.243 160.075 213.556 159.83 213.908 159.651C214.261 159.472 214.646 159.363 215.041 159.332C215.831 159.271 216.626 159.313 217.406 159.455L225.126 160.551C225.722 160.634 226.321 160.718 226.908 160.86C227.465 160.955 227.99 161.182 228.438 161.522C229.36 162.277 229.435 163.604 229.388 164.773Z" fill="black"/>
<path opacity="0.1" d="M196.023 202.807C195.549 204.595 194.125 205.987 193.395 207.691C192.294 210.244 192.789 213.365 191.234 215.673C190.729 216.372 190.119 216.99 189.424 217.508C189.039 217.831 188.619 218.11 188.17 218.34C187.705 218.593 187.159 218.659 186.646 218.525C185.984 218.303 185.586 217.597 185.52 216.917C185.497 216.693 185.497 216.468 185.52 216.245L185.539 216.295C185.812 216.944 186.257 217.625 186.96 217.74C187.223 217.758 187.488 217.723 187.737 217.636C187.987 217.55 188.215 217.413 188.408 217.235C189.443 216.415 190.045 215.193 190.619 214.015C191.068 213.165 191.424 212.27 191.679 211.345C191.805 210.819 191.864 210.281 191.993 209.755C192.589 207.2 194.618 205.114 195.066 202.525C195.103 202.347 195.111 202.164 195.091 201.984C195.032 201.748 194.941 201.521 194.821 201.309C194.713 201.07 194.633 200.818 194.583 200.561C195.21 200.783 195.875 201.127 196.073 201.752C196.155 202.101 196.138 202.466 196.023 202.807Z" fill="black"/>
<path opacity="0.1" d="M191.285 198.371C190.994 199.12 190.506 199.778 189.87 200.277C188.978 200.948 187.932 201.394 186.825 201.576C186.31 201.706 185.769 201.7 185.257 201.558C184.561 201.319 184.059 200.676 183.348 200.49C182.84 200.354 182.294 200.475 181.78 200.401C180.854 200.274 180.136 199.578 179.39 199.021C177.104 197.326 174.103 196.778 171.816 195.083C171.715 195.021 171.63 194.935 171.572 194.832C171.528 194.721 171.512 194.601 171.525 194.483C171.533 193.454 171.768 192.44 172.212 191.51C172.575 190.86 173.008 190.252 173.504 189.694C175.551 187.219 177.609 184.725 180.061 182.637C181.09 181.761 182.212 180.945 183.511 180.549C184.232 180.329 185.656 180.122 186.534 180.493C186.404 180.58 186.287 180.684 186.186 180.802C185.906 181.188 185.695 181.617 185.558 182.071C184.248 185.455 180.726 187.194 177.897 189.496L175.31 191.605C174.959 191.893 174.57 192.314 174.742 192.732C174.861 192.943 175.052 193.105 175.282 193.189C176.781 193.92 178.54 194.213 179.776 195.327C180.227 195.735 180.66 196.274 181.272 196.305C181.594 196.286 181.912 196.216 182.212 196.097C182.684 195.971 183.179 195.955 183.659 196.05C184.138 196.144 184.589 196.347 184.975 196.642C185.191 196.86 185.444 197.04 185.722 197.174C185.955 197.235 186.198 197.25 186.437 197.217C187.104 197.171 187.813 197.112 188.412 197.406C189.011 197.7 189.504 198.393 190.203 198.442C190.551 198.452 190.959 198.34 191.285 198.371Z" fill="black"/>
<path d="M162.447 156.38C161.851 156.76 161.217 157.184 160.973 157.843C160.772 158.375 160.866 158.991 160.624 159.508C160.383 160.024 159.84 160.389 159.721 160.946C159.637 161.351 159.803 161.778 159.721 162.184C159.65 162.393 159.592 162.607 159.549 162.824C159.517 163.288 159.919 163.662 160.311 163.916C161.147 164.449 162.098 164.781 163.087 164.886C164.077 164.991 165.078 164.865 166.009 164.519C166.846 164.21 167.602 163.709 168.405 163.31C169.188 162.866 170.083 162.652 170.986 162.691C171.503 162.747 171.999 162.935 172.516 163C172.772 163.052 173.036 163.04 173.286 162.968C173.535 162.895 173.763 162.763 173.949 162.583C174.109 162.364 174.216 162.112 174.263 161.846C174.699 160.148 174.501 158.348 174.087 156.643C173.673 154.938 173.046 153.289 172.604 151.591C172.29 150.335 172.049 149.042 171.525 147.851C171.002 146.66 170.12 145.552 168.888 145.097C168.791 145.05 168.68 145.037 168.574 145.06C168.495 145.092 168.424 145.143 168.37 145.209C167.395 146.226 166.66 147.445 166.219 148.776C165.727 150.258 165.592 151.829 165.14 153.32C164.946 153.939 164.695 154.768 164.2 155.238C163.704 155.709 163.008 156.027 162.447 156.38Z" fill="#3F3D56"/>
<path opacity="0.1" d="M174.271 161.859C174.219 162.124 174.106 162.375 173.942 162.592C173.756 162.772 173.528 162.904 173.278 162.977C173.028 163.05 172.764 163.061 172.509 163.009C171.995 162.948 171.499 162.759 170.982 162.7C170.079 162.659 169.183 162.874 168.401 163.319C167.598 163.715 166.833 164.207 166.002 164.525C164.786 164.98 163.458 165.055 162.198 164.739C161.528 164.573 160.892 164.297 160.316 163.922C159.921 163.668 159.523 163.303 159.554 162.83C159.598 162.613 159.655 162.399 159.726 162.19C159.808 161.784 159.645 161.357 159.726 160.952C159.846 160.395 160.391 160.024 160.63 159.51C160.868 158.997 160.777 158.381 160.975 157.846C161.219 157.187 161.856 156.763 162.452 156.383C163.047 156.002 163.756 155.711 164.233 155.251C164.3 155.184 164.362 155.113 164.418 155.037C164.762 154.514 165.014 153.938 165.164 153.332C165.625 151.841 165.751 150.273 166.24 148.788C166.684 147.457 167.419 146.239 168.394 145.221C168.447 145.155 168.516 145.103 168.595 145.072C168.701 145.051 168.811 145.064 168.909 145.11C170.138 145.567 171.019 146.675 171.546 147.866C172.073 149.057 172.296 150.341 172.625 151.603C173.064 153.302 173.694 154.95 174.108 156.655C174.522 158.36 174.707 160.157 174.271 161.859Z" fill="black"/>
<path opacity="0.1" d="M183.595 124.128C182.121 124.59 180.525 124.499 179.115 123.87C177.705 123.242 176.58 122.122 175.956 120.725C175.98 120.435 176.022 120.147 176.082 119.862C176.395 118.439 177.737 118.959 178.797 119.336C180.073 119.745 181.307 120.272 182.482 120.911C182.84 121.093 183.151 121.353 183.392 121.672C183.856 122.355 183.671 123.265 183.595 124.128Z" fill="black"/>
<path d="M181.702 124.107C185.166 124.107 187.974 121.337 187.974 117.92C187.974 114.503 185.166 111.732 181.702 111.732C178.238 111.732 175.43 114.503 175.43 117.92C175.43 121.337 178.238 124.107 181.702 124.107Z" fill="#BE6F72"/>
<path opacity="0.1" d="M198.722 164.161C198.722 164.674 198.017 164.838 197.493 164.81C195.611 164.702 193.771 164.192 191.908 164.346C189.553 164.557 187.389 165.841 185.027 165.958C184.118 166.004 183.193 165.871 182.296 166.035C181.136 166.249 180.101 166.945 178.918 167.044C177.893 167.131 176.88 166.75 175.855 166.79C175.142 166.834 174.447 167.031 173.819 167.366C173.888 166.711 174.185 166.099 174.66 165.636C175.409 164.909 176.476 165.098 177.51 164.925C178.543 164.705 179.551 164.387 180.521 163.975C183.242 162.917 186.107 162.264 189.023 162.035C191.948 161.811 194.885 162.275 197.593 163.387C197.988 163.545 198.36 163.753 198.7 164.006C198.716 164.056 198.724 164.108 198.722 164.161Z" fill="black"/>
<path d="M178.802 129.218L176.262 128.29L175.189 127.903C174.752 127.721 174.292 127.599 173.822 127.541C172.593 127.448 171.435 128.256 170.78 129.286C170.124 130.316 169.877 131.544 169.667 132.744C169.378 134.382 169.134 136.026 168.933 137.676C168.717 139.165 168.607 140.667 168.604 142.171C168.676 146.004 169.497 149.781 170.4 153.509C170.843 155.161 171.177 156.839 171.401 158.533C171.476 159.232 171.511 159.938 171.586 160.637C171.667 161.426 171.799 162.208 171.931 162.988L172.687 167.433C173.627 166.774 174.697 166.196 175.854 166.162C176.879 166.125 177.896 166.502 178.918 166.419C180.094 166.32 181.135 165.624 182.295 165.41C183.192 165.246 184.117 165.376 185.03 165.333C187.388 165.215 189.555 163.931 191.907 163.721C193.773 163.557 195.626 164.077 197.496 164.182C198.016 164.213 198.722 164.049 198.722 163.532C198.722 163.173 198.358 162.935 198.041 162.759C196.55 161.87 195.129 160.87 193.792 159.767C192.556 158.802 191.302 157.812 190.452 156.507C188.404 153.367 189.107 149.116 187.36 145.806C185.939 143.111 187.36 139.584 187.36 136.553C187.36 135.04 187.36 133.509 186.999 132.036C186.774 131.214 186.493 130.408 186.159 129.623L184.939 126.576C184.914 126.487 184.864 126.406 184.795 126.344C184.712 126.289 184.615 126.261 184.516 126.263C183.783 126.219 183.061 126.446 182.49 126.901C181.916 127.361 181.549 128.024 180.984 128.506C180.367 129.044 179.57 129.496 178.802 129.218Z" fill="#E3E8F4"/>
<path d="M182.902 127.464C183.103 126.616 183.319 125.731 183.893 125.069C184.467 124.407 185.514 124.057 186.254 124.531C187.095 125.069 187.129 126.313 187.848 127.006C188.475 127.6 189.415 127.643 190.268 127.72C191.802 127.858 193.309 128.208 194.744 128.76C195.023 128.845 195.278 128.996 195.487 129.199C195.879 129.638 195.8 130.313 195.995 130.86C196.261 131.566 196.998 132.014 197.284 132.717C197.597 133.496 197.284 134.369 197.02 135.17C196.547 136.611 196.249 138.106 195.788 139.55C195.327 140.995 194.671 142.418 193.593 143.504C193.116 143.99 192.407 144.432 191.78 144.148L191.539 145.861C191.468 146.224 191.468 146.597 191.539 146.96C191.574 147.142 191.662 147.31 191.79 147.444C191.919 147.579 192.084 147.675 192.266 147.721C192.313 147.987 192.599 148.114 192.831 148.259C193.002 148.375 193.148 148.523 193.261 148.694C193.374 148.866 193.451 149.058 193.488 149.26C193.525 149.461 193.522 149.668 193.477 149.868C193.432 150.068 193.348 150.257 193.229 150.425C193.031 150.688 192.74 150.895 192.646 151.207C192.504 151.662 192.84 152.135 193.248 152.386C193.655 152.637 194.135 152.745 194.549 152.983C195.408 153.475 195.869 154.434 196.164 155.371C196.384 156.077 196.566 156.838 197.105 157.351C197.312 157.549 197.56 157.698 197.757 157.902C198.1 158.299 198.297 158.798 198.319 159.319C198.405 159.965 198.26 160.621 197.911 161.175C197.284 162.063 196.114 162.323 195.089 162.722C193.423 163.396 192.053 164.603 190.585 165.63C189.988 166.105 189.283 166.431 188.531 166.583C187.515 166.719 186.515 166.273 185.492 166.236C184.881 166.239 184.272 166.317 183.68 166.468L181.798 166.87C181.898 165.432 181.096 163.993 180.647 162.623C179.801 160.043 179.644 157.28 179.844 154.579C180.045 151.879 180.603 149.209 181.155 146.551C181.541 144.695 181.503 142.755 182.096 140.952C182.651 139.216 183.445 137.549 183.736 135.745C184.213 132.825 182.231 130.35 182.902 127.464Z" fill="#3F3D56"/>
<path d="M197.167 133.181C197.34 133.496 197.461 133.835 197.527 134.187C197.672 134.732 197.944 135.236 198.321 135.659C198.635 135.935 198.915 136.246 199.155 136.587C199.443 137.126 199.334 137.782 199.468 138.373C199.625 139.013 200.08 139.57 200.146 140.229C200.148 140.418 200.165 140.606 200.199 140.792C200.403 141.543 201.519 141.72 201.767 142.468C201.933 142.957 201.648 143.483 201.701 143.994C201.74 144.152 201.75 144.315 201.729 144.476C201.659 144.659 201.535 144.817 201.372 144.928C200.335 145.908 199.617 147.17 199.308 148.554C199.006 149.928 198.847 151.33 198.835 152.736L197.609 151.137C197.478 150.944 197.312 150.776 197.12 150.642C196.963 150.549 196.781 150.503 196.621 150.413C196.157 150.153 195.975 149.599 195.796 149.104C195.299 147.735 194.555 146.464 193.601 145.355C193.102 144.779 192.522 144.195 192.412 143.443C192.379 143.099 192.399 142.752 192.469 142.413C192.782 140.383 193.118 138.311 194.118 136.51C194.586 135.669 195.191 134.908 195.639 134.054C195.94 133.485 196.364 132.012 197.167 133.181Z" fill="#3F3D56"/>
<path d="M166.229 135.131C166.234 135.391 166.167 135.648 166.034 135.873C165.916 136.013 165.761 136.118 165.586 136.175C165.41 136.232 165.223 136.241 165.043 136.198C164.686 136.11 164.35 135.954 164.052 135.74C163.178 135.196 162.304 134.65 161.43 134.104C160.943 133.814 160.472 133.496 160.022 133.151C159.335 132.578 158.711 131.934 158.163 131.23C156.639 129.374 155.29 127.36 153.594 125.646C153.133 125.182 152.653 124.736 152.207 124.251C151.599 123.549 151.039 122.806 150.533 122.029C150.044 121.315 149.536 120.523 149.62 119.669C149.67 119.186 149.906 118.741 149.975 118.261C150.044 117.782 149.859 117.197 149.388 117.067C149.333 117.053 149.276 117.044 149.219 117.039C149.126 117.03 149.035 117.01 148.946 116.981C148.51 116.801 148.576 116.136 148.89 115.786C149.203 115.437 149.667 115.242 149.953 114.858C150.085 114.631 150.234 114.413 150.398 114.206C150.608 114.028 150.859 113.904 151.129 113.844C152.938 113.318 154.851 113.247 156.695 113.636C157.009 113.704 157.366 113.828 157.46 114.128C157.498 114.274 157.498 114.428 157.46 114.574C157.322 115.184 157.242 115.805 157.222 116.43C157.221 116.56 157.229 116.69 157.244 116.82C157.391 118.131 158.254 119.242 159.094 120.266C160.091 121.485 161.104 122.695 162.12 123.901C162.67 124.6 163.284 125.248 163.955 125.835C164.582 126.348 165.394 126.763 165.884 127.422C166.282 127.954 166.153 128.681 166.197 129.321C166.343 131.255 166.354 133.196 166.229 135.131Z" fill="#3F3D56"/>
<path d="M206.055 148.037C206.365 147.737 206.644 147.409 206.89 147.057C207.154 146.622 207.364 146.158 207.517 145.674L209.336 140.585C209.624 139.78 209.913 138.973 210.276 138.193C210.653 137.346 211.098 136.535 211.509 135.703C212.565 133.559 213.382 131.308 213.946 128.99C214.045 128.671 214.078 128.335 214.043 128.003C213.955 127.471 213.544 127.053 213.152 126.673C212.758 126.252 212.309 125.884 211.816 125.581C211.316 125.277 210.714 125.181 210.142 125.314C209.339 125.55 208.834 126.357 208.649 127.171C208.464 127.984 208.533 128.816 208.454 129.646C208.342 130.834 207.928 131.978 207.827 133.169C207.774 133.859 207.827 134.558 207.743 135.245C207.588 136.146 207.269 137.012 206.802 137.8C205.789 139.684 204.416 141.356 202.76 142.725C202.305 143.056 201.896 143.444 201.543 143.879C201.248 144.315 201.049 144.806 200.956 145.321C200.748 146.107 200.838 146.941 201.21 147.666C201.721 148.523 202.703 148.903 203.641 149.095C204.895 149.352 205.187 148.913 206.055 148.037Z" fill="#BE6F72"/>
<path d="M181.739 108.955C182.009 108.455 182.423 108.045 182.928 107.775C183.433 107.504 184.008 107.387 184.58 107.436C185.156 107.537 185.693 107.795 186.129 108.181C186.564 108.567 186.882 109.065 187.045 109.62C187.192 110.081 187.252 110.592 187.509 110.988C187.898 111.585 188.619 111.758 189.158 112.191C189.48 112.486 189.739 112.842 189.92 113.237C190.101 113.632 190.2 114.059 190.212 114.493C190.242 115.379 190.1 116.263 189.795 117.097C189.665 117.453 189.561 117.817 189.481 118.186C189.419 118.542 189.412 118.91 189.356 119.269C189.287 119.736 189.124 120.184 188.876 120.588C188.629 120.991 188.301 121.341 187.913 121.617C187.805 121.708 187.667 121.757 187.525 121.756C187.28 121.732 187.129 121.447 187.039 121.197C186.54 119.777 186.659 118.038 185.74 116.909C185.323 116.447 184.815 116.074 184.247 115.811C184.018 115.663 183.759 115.567 183.489 115.529C183.091 115.549 182.708 115.687 182.391 115.925C181.728 116.36 180.994 116.681 180.221 116.872C179.835 116.961 179.433 116.964 179.046 116.882C178.658 116.799 178.293 116.633 177.979 116.395C177.546 116.039 177.229 115.51 176.749 115.235C176.269 114.96 175.768 114.978 175.294 114.787C174.992 114.659 174.724 114.465 174.511 114.219C174.297 113.973 174.143 113.682 174.06 113.369C173.978 113.055 173.97 112.727 174.036 112.41C174.102 112.093 174.24 111.794 174.441 111.538C174.755 111.164 175.219 110.957 175.498 110.545C175.859 110.01 175.827 109.28 176 108.643C176.103 108.24 176.302 107.867 176.579 107.555C176.856 107.242 177.205 106.999 177.596 106.845C177.976 106.719 178.383 106.694 178.776 106.776C179.169 106.857 179.532 107.04 179.829 107.306C180.142 107.585 180.393 107.946 180.701 108.234C181.004 108.521 181.376 108.727 181.781 108.836C182.186 108.944 182.613 108.95 183.021 108.853" fill="#3F3D56"/>
<path opacity="0.1" d="M186.895 154.48C186.713 154.64 186.583 154.851 186.524 155.085C186.465 155.319 186.478 155.565 186.563 155.792C186.632 155.937 189.868 155.325 190.21 155.275C191.063 155.154 192.559 155.213 193.133 154.446C194.155 153.082 190.988 153.382 190.408 153.431C189.304 153.552 187.736 153.685 186.895 154.48Z" fill="black"/>
<path d="M157.453 114.572C157.315 115.182 157.235 115.804 157.215 116.429C156.274 116.617 155.295 116.308 154.392 115.999L151.799 115.126C151.641 115.027 151.451 114.99 151.267 115.024C151.083 115.058 150.919 115.16 150.808 115.309C150.391 115.736 149.817 116.546 149.24 117.026C149.147 117.016 149.056 116.996 148.967 116.967C148.531 116.788 148.597 116.122 148.911 115.773C149.224 115.423 149.688 115.228 149.974 114.845C150.106 114.617 150.255 114.399 150.419 114.192C150.629 114.014 150.88 113.89 151.15 113.83C152.959 113.304 154.872 113.233 156.716 113.623C157.03 113.691 157.387 113.815 157.481 114.115C157.512 114.267 157.502 114.425 157.453 114.572Z" fill="#3F3D56"/>
<path opacity="0.1" d="M157.453 114.572C157.315 115.182 157.235 115.804 157.215 116.429C156.274 116.617 155.295 116.308 154.392 115.999L151.799 115.126C151.641 115.027 151.451 114.99 151.267 115.024C151.083 115.058 150.919 115.16 150.808 115.309C150.391 115.736 149.817 116.546 149.24 117.026C149.147 117.016 149.056 116.996 148.967 116.967C148.531 116.788 148.597 116.122 148.911 115.773C149.224 115.423 149.688 115.228 149.974 114.845C150.106 114.617 150.255 114.399 150.419 114.192C150.629 114.014 150.88 113.89 151.15 113.83C152.959 113.304 154.872 113.233 156.716 113.623C157.03 113.691 157.387 113.815 157.481 114.115C157.512 114.267 157.502 114.425 157.453 114.572Z" fill="black"/>
<path opacity="0.1" d="M181.179 173.319C181.631 173.464 182.12 173.681 182.273 174.129L178.642 173.217L176.76 172.746C176.428 172.663 175.236 172.564 175.017 172.307C174.703 171.93 175.816 172.193 176.017 172.22C176.626 172.307 177.234 172.4 177.839 172.508C178.981 172.712 180.078 173.043 181.179 173.319Z" fill="black"/>
<path opacity="0.1" d="M182.585 176.485C182.272 176.278 181.372 176.306 180.986 176.213C180.421 176.08 179.866 175.904 179.311 175.734C178.185 175.372 177.069 174.96 175.912 174.697C175.699 174.648 174.971 174.638 175.006 174.369C175.04 174.1 175.733 174.01 175.906 173.998C176.931 173.924 178.211 174.4 179.164 174.737C180.378 175.167 181.529 175.755 182.585 176.485Z" fill="black"/>
<path opacity="0.1" d="M180.284 170.477C179.133 170.168 178.089 169.466 176.903 169.33C176.595 169.338 176.292 169.247 176.041 169.07C175.901 168.933 175.805 168.761 175.762 168.572C176.555 168.531 177.477 168.866 178.198 169.175C178.594 169.345 178.976 169.546 179.34 169.775C179.603 169.948 179.998 170.4 180.284 170.477Z" fill="black"/>
<path d="M202.224 142.787C202.03 144.073 202.311 145.386 203.017 146.484C203.723 147.582 204.807 148.392 206.069 148.767C205.915 149.5 205.147 149.906 204.605 150.428C203.839 151.165 203.444 152.26 202.541 152.817C201.534 153.435 200.239 153.194 199.091 152.934C198.987 152.924 198.891 152.875 198.822 152.798C198.799 152.761 198.782 152.72 198.772 152.677C198.392 151.304 198.144 149.841 198.533 148.47C198.847 147.298 199.599 146.305 200.202 145.268C200.804 144.232 200.86 143.127 202.224 142.787Z" fill="#3F3D56"/>
<path d="M174.187 125.047C172.973 125.136 171.795 125.49 170.737 126.084C170.035 126.483 169.313 127.012 168.511 126.916C168.037 126.867 167.57 126.607 167.109 126.73C166.85 126.835 166.608 126.977 166.391 127.151C166.281 127.237 166.151 127.294 166.012 127.316C165.874 127.337 165.732 127.323 165.6 127.275L165.287 131.556C165.168 133.187 165.052 134.848 165.447 136.435C165.651 137.243 166.099 137.982 166.149 138.802C166.199 139.622 166.124 140.469 166.184 141.301C166.24 142.072 166.413 142.83 166.457 143.603C166.544 145.057 166.181 146.496 165.829 147.909C165.299 149.995 164.979 152.126 163.948 154.016C163.659 154.536 163.321 155.071 163.321 155.665C163.321 155.736 163.321 155.811 163.339 155.882C163.026 156.052 162.734 156.21 162.468 156.38C161.872 156.76 161.235 157.184 160.99 157.843C160.793 158.378 160.884 158.991 160.646 159.508C160.407 160.024 159.862 160.392 159.742 160.949C159.658 161.354 159.821 161.781 159.742 162.187C159.671 162.396 159.614 162.61 159.57 162.827C159.538 163.291 159.937 163.665 160.332 163.919C160.908 164.294 161.544 164.57 162.214 164.736L164.114 157.404C165.816 154.292 167.231 151.036 168.344 147.674C168.663 146.576 169.073 145.505 169.571 144.472C169.925 143.886 170.239 143.278 170.511 142.65C170.797 141.871 170.825 141.026 170.963 140.206C171.127 139.245 171.374 138.299 171.7 137.379C172.039 136.389 172.431 135.396 172.5 134.353C172.603 132.862 172.054 131.29 172.638 129.908C172.885 129.391 173.207 128.913 173.594 128.488C174.403 127.51 175.14 126.489 175.949 125.508C175.513 125.057 174.814 125.004 174.187 125.047Z" fill="#3F3D56"/>
<g opacity="0.1">
<path opacity="0.1" d="M183.022 107.938L182.63 107.965L182.583 107.999C182.731 107.994 182.878 107.973 183.022 107.938Z" fill="black"/>
<path opacity="0.1" d="M190.197 114.363C190.131 114.978 189.997 115.584 189.796 116.17C189.666 116.525 189.561 116.889 189.482 117.259C189.419 117.614 189.413 117.982 189.357 118.341C189.288 118.808 189.125 119.256 188.877 119.66C188.629 120.063 188.302 120.413 187.914 120.689C187.805 120.78 187.667 120.829 187.525 120.829C187.281 120.804 187.13 120.519 187.039 120.269C186.541 118.849 186.66 117.11 185.741 115.981C185.323 115.519 184.816 115.146 184.248 114.883C184.019 114.736 183.76 114.639 183.489 114.601C183.091 114.621 182.709 114.759 182.392 114.997C181.728 115.433 180.994 115.753 180.221 115.944C179.835 116.033 179.434 116.036 179.046 115.954C178.658 115.871 178.294 115.705 177.979 115.467C177.546 115.112 177.23 114.583 176.75 114.307C176.27 114.032 175.768 114.05 175.295 113.859C174.999 113.734 174.735 113.546 174.523 113.307C174.311 113.068 174.157 112.785 174.072 112.479C174.06 112.44 174.052 112.401 174.047 112.361C173.968 112.707 173.977 113.066 174.072 113.407C174.157 113.713 174.311 113.996 174.523 114.235C174.735 114.474 174.999 114.662 175.295 114.787C175.768 114.979 176.301 114.979 176.75 115.235C177.198 115.492 177.546 116.04 177.979 116.395C178.294 116.633 178.658 116.799 179.046 116.882C179.434 116.964 179.835 116.961 180.221 116.872C180.994 116.681 181.728 116.361 182.392 115.925C182.709 115.687 183.091 115.549 183.489 115.529C183.76 115.568 184.019 115.664 184.248 115.811C184.813 116.073 185.318 116.444 185.735 116.903C186.653 118.032 186.534 119.771 187.033 121.191C187.124 121.444 187.274 121.726 187.519 121.751C187.661 121.751 187.799 121.702 187.908 121.611C188.295 121.335 188.623 120.985 188.871 120.582C189.119 120.178 189.282 119.73 189.35 119.263C189.407 118.904 189.413 118.536 189.476 118.18C189.555 117.811 189.66 117.447 189.789 117.092C190.095 116.257 190.236 115.373 190.207 114.487C190.21 114.45 190.203 114.406 190.197 114.363Z" fill="black"/>
</g>
<path d="M77.8949 217.823C77.1823 217.592 72.9873 214.314 72.6695 212.832C72.3518 211.35 74.8874 197.548 74.8874 197.548C74.8874 197.548 74.6529 197.548 74.2705 197.502V197.28L74.8072 179.147C74.8072 179.147 76.9448 166.975 72.9071 167.684C68.8693 168.393 71.4018 179.147 71.4018 179.147C71.4018 179.147 70.9422 184.609 70.6183 186.246C70.3098 187.822 68.897 194.255 69.8594 196.254C69.894 196.326 69.9332 196.395 69.9767 196.461C69.9767 196.461 70.1371 203.323 68.3943 204.26C66.7316 205.155 66.0407 209.64 65.9821 210.042L65.8926 210.002C65.397 209.696 64.9613 209.305 64.6063 208.846C64.5693 208.797 64.5416 208.749 64.5076 208.7C65.6417 207.441 66.2528 205.806 66.219 204.122C66.1853 202.438 65.5092 200.828 64.3256 199.614C63.775 199.049 63.129 198.582 62.4163 198.235C62.3952 197.654 62.2557 197.083 62.006 196.556C61.204 194.864 56.7622 192.652 53.6066 192.6C52.1507 192.554 50.9569 192.965 50.522 194.088C50.2999 194.657 50.3678 195.29 50.2752 195.892C50.0901 197.109 49.2974 198.065 48.2795 198.82C47.8693 198.367 47.4248 197.946 46.95 197.56C45.9197 196.781 43.8654 194.213 43.8654 194.213C43.8654 194.213 37.4432 187.643 36.9682 185.841C36.4932 184.04 30.0802 173.283 28.6551 175.155C27.2301 177.026 33.5628 185.233 33.5628 185.233C33.5628 185.233 34.7503 188.197 35.7004 189.21C36.6505 190.223 43.7112 200.356 43.7112 200.356L44.0505 201.047C42.5513 201.826 41.1818 202.818 40.6975 204.364C39.988 206.64 41.5396 208.928 42.613 211.058C44.7044 215.212 45.0036 220.513 42.3046 224.313C39.9047 227.691 35.7189 229.273 31.7829 230.676C33.6797 232.145 36.0351 232.917 38.4457 232.861C37.5388 235.451 34.3247 236.312 31.5855 236.789C33.023 238.153 35.0804 238.649 37.0546 238.95C38.0212 239.114 39.0011 239.19 39.9819 239.178H40.2225L40.4631 239.163C40.7976 239.142 41.1304 239.099 41.4594 239.035C42.8845 238.749 44.2695 237.982 44.9974 236.741C45.6144 235.679 45.8303 234.233 46.95 233.698C47.2418 233.569 47.5559 233.497 47.8754 233.485H47.8415C48.0512 233.485 48.2671 233.485 48.4769 233.485L53.1439 233.534C53.3382 233.534 53.5387 233.534 53.7393 233.534C55.0564 233.506 56.463 233.281 57.1323 232.207C57.4073 231.685 57.5522 231.106 57.5549 230.518C57.6536 229.057 57.5549 227.56 57.595 226.087C57.9929 228.762 58.4094 232.934 57.4192 234.471C56.6082 235.634 55.6269 236.673 54.5073 237.553C54.2271 237.785 53.9709 238.044 53.7423 238.326C53.5912 238.433 53.5017 238.49 53.5017 238.49L53.4061 238.777C53.0534 239.302 52.7986 239.885 52.6535 240.499C52.5995 240.655 52.5795 240.821 52.5948 240.986C52.7028 241.205 51.8237 242.096 52.0797 242.471C49.8835 245.008 49.4671 248.861 49.4671 248.861L45.4571 254.865C43.3965 260.208 40.3119 260.753 40.3119 260.753C40.3119 260.753 33.0661 255.957 32.8687 255.723C32.6713 255.488 29.9013 254.32 29.9013 254.32C29.5754 253.754 29.0767 253.303 28.4762 253.033C27.5262 252.643 27.446 251.207 27.446 251.207C27.3288 247.817 25.3083 247.555 25.3083 247.555C23.6797 247.418 22.4366 247.705 21.4803 248.228L21.1904 248.252C19.79 248.362 18.1058 248.487 16.255 248.608C11.1068 248.943 9.88217 252.235 9.88217 252.235C9.88217 252.235 9.24982 252.935 10.0796 253.696C10.9093 254.457 16.2211 253.696 16.4462 253.678C16.0415 253.724 15.6315 253.696 15.2371 253.596C16.073 253.565 17.2236 253.535 18.2045 253.535H18.442C18.3802 254.048 18.3504 254.564 18.3525 255.081C18.3525 256.057 21.0824 256.681 21.0824 256.681L29.3955 263.984C29.3955 263.984 34.6208 266.285 37.946 269.599C41.2712 272.912 44.1985 270.067 44.1985 270.067C47.7181 269.209 57.8449 257.135 57.8541 257.122C57.8541 257.475 58.067 269.218 58.4711 271.576C58.4871 271.696 58.5171 271.814 58.5605 271.926C59.0355 272.94 58.4001 275.709 58.1256 276.88C57.9504 277.857 57.8832 278.85 57.9251 279.841C57.9251 279.841 54.1279 294.143 54.4425 295.4C54.7572 296.656 52.3851 302.499 52.3851 302.499V307.368L52.7984 307.349C52.7448 307.427 52.6954 307.507 52.6504 307.59L52.6226 307.641C52.6226 307.641 55.1551 308.186 56.8578 308.031C58.5605 307.876 61.4847 309.327 61.4847 309.327C61.4847 309.327 62.4749 309.787 65.5225 309.982C68.5701 310.176 68.5701 308.655 68.5701 308.655C68.2215 306.583 63.4064 305.889 63.2584 305.87C62.8697 305.63 62.5057 305.365 62.2065 305.14L62.1448 305.091C62.1655 305.046 62.183 304.999 62.1973 304.951C62.7124 302.885 59.8622 301.988 59.8622 301.988V301.473C61.713 300.539 62.08 294.103 62.08 294.103C62.08 294.103 64.8562 286.149 65.2449 284.825C65.6335 283.502 65.2449 281.509 65.2449 281.509L65.5225 279.795C65.5225 279.795 66.1178 278.624 66.1178 278.39C66.1954 277.796 66.427 277.232 66.7903 276.753C67.2252 276.244 66.3152 275.036 66.3152 275.036L67.108 273.01V270.788L68.9587 262.715C68.9587 262.715 70.899 253.316 70.2265 250.239C69.5541 247.163 71.0193 245.599 71.0193 245.599C70.8872 245.667 70.7512 245.728 70.6121 245.781C70.7973 245.359 70.957 244.926 71.0902 244.485L75.2544 244.996V245.054H76.7567C76.7567 245.054 76.2816 239.273 76.2816 236.945C76.2816 234.617 77.8671 226.258 77.8671 226.258C77.8671 226.258 78.6074 218.057 77.8949 217.823ZM59.4088 211.077C59.4088 211.305 59.3872 211.542 59.3718 211.783L59.2885 211.91L59.1342 211.779L58.9461 212.069L58.8906 212.099C58.4834 211.892 58.2736 210.708 57.9806 210.961L57.9405 210.994C57.8757 210.924 57.8109 210.9 57.7431 210.961L57.6814 211.016C57.6814 210.924 57.6814 210.833 57.6814 210.742C58.2453 210.888 58.8258 210.961 59.4088 210.961C59.4119 210.997 59.4088 211.037 59.4088 211.077ZM73.2587 238.001H73.3481L73.2001 238.381C73.2186 238.256 73.2371 238.128 73.2587 238.001ZM58.0546 307.005L57.4871 306.862L57.7955 306.814L58.0824 306.999L58.1163 307.021L58.0546 307.005ZM63.8537 306.187C63.6655 306.087 63.4743 305.977 63.2892 305.861C63.4828 305.96 63.6712 306.069 63.8537 306.187Z" fill="url(#paint1_linear)"/>
<path d="M75.3068 232.25L71.5713 241.854H72.4782L68.9648 244.617L75.3068 245.396V232.25Z" fill="#0AB0A5"/>
<path opacity="0.1" d="M75.3068 232.25L71.5713 241.854L70.6305 241.604L68.9648 244.617L75.3068 245.396V232.25Z" fill="black"/>
<path d="M69.4497 238.393H75.3074L77.4574 220.941H69.4497V238.393Z" fill="#0AB0A5"/>
<path opacity="0.1" d="M69.4497 238.393H75.3074L77.4574 220.941H69.4497V238.393Z" fill="black"/>
<path d="M58.0088 225.074L59.2735 224.864L62.1792 224.377C62.1792 224.377 70.9056 222.439 72.7132 222.284C73.8048 222.143 74.8692 221.844 75.8719 221.395C76.3438 221.194 76.643 221.042 76.643 221.042L73.4998 215.379L68.623 211.813C68.623 211.813 65.5384 211.165 64.2336 209.379C63.9424 208.998 63.7528 208.552 63.6822 208.08C63.6116 207.608 63.6622 207.127 63.8295 206.68C64.6253 204.245 59.0761 209.004 59.0761 209.004C59.0761 209.004 59.1286 210.145 59.0761 211.6C59.0761 211.886 59.0484 212.187 59.0268 212.492C59.0268 212.692 58.999 212.893 58.9774 213.1C58.8417 214.543 58.5641 216.031 58.015 216.919C56.667 219.104 58.0088 225.074 58.0088 225.074Z" fill="#FBBEBE"/>
<path opacity="0.1" d="M59.0706 211.734H59.1939C59.416 211.734 59.5949 211.271 59.8109 211.247C61.5475 211.082 63.133 210.723 64.2342 209.512C63.9438 209.131 63.7547 208.684 63.6841 208.212C63.6135 207.74 63.6637 207.258 63.8301 206.81C64.6259 204.376 59.0767 209.138 59.0767 209.138C59.0767 209.138 59.1353 210.276 59.0706 211.734Z" fill="black"/>
<path d="M52.313 204.832C52.3126 205.708 52.4872 206.575 52.8268 207.385C53.1665 208.194 53.6645 208.93 54.2925 209.549C54.9204 210.169 55.666 210.66 56.4865 210.995C57.307 211.33 58.1864 211.502 59.0745 211.502C59.2966 211.502 59.5156 211.502 59.7346 211.469C61.0375 211.342 62.2754 210.846 63.2978 210.039C64.3202 209.233 65.0832 208.15 65.4942 206.924C65.9051 205.698 65.9464 204.38 65.6129 203.131C65.2794 201.882 64.5856 200.756 63.6156 199.888C62.6456 199.021 61.4412 198.45 60.1486 198.245C58.856 198.04 57.5308 198.209 56.3339 198.733C55.1371 199.256 54.12 200.111 53.4062 201.194C52.6925 202.277 52.3127 203.54 52.313 204.832Z" fill="#FBBEBE"/>
<path d="M50.2392 194.709C50.0171 195.275 50.085 195.905 49.9955 196.505C49.6654 198.668 47.4353 199.964 45.4179 200.874C43.4006 201.784 41.1241 202.852 40.4825 204.943C39.7793 207.207 41.3154 209.471 42.3827 211.592C44.4617 215.727 44.7578 220.997 42.0742 224.777C39.6898 228.124 35.5348 229.709 31.6235 231.106C33.507 232.565 35.8461 233.332 38.24 233.276C37.3424 235.853 34.1498 236.708 31.4292 237.186C32.8574 238.54 34.9025 239.036 36.8612 239.334C38.2894 239.55 39.7546 239.693 41.1797 239.41C42.6048 239.127 43.9558 238.363 44.69 237.128C45.3069 236.072 45.5166 234.633 46.6302 234.1C47.133 233.906 47.6746 233.829 48.2126 233.875L52.8395 233.921C54.28 233.921 55.9858 233.811 56.7292 232.597C57.0034 232.078 57.1473 231.502 57.1487 230.917C57.3492 227.923 56.7662 224.761 58.0155 222.026C58.3918 221.204 55.9766 219.896 56.2295 219.025C57.0994 216.022 57.3184 213.655 57.3091 210.53C57.3091 208.113 58.9039 206.029 60.221 203.987C61.5381 201.945 62.6393 199.368 61.5998 197.177C60.4277 194.731 51.6242 191.183 50.2392 194.709Z" fill="#3F3D56"/>
<path d="M56.3994 306.127L57.5777 306.897L57.7597 307.015L57.7937 307.04L59.191 307.953L62.4545 308.497L65.3232 308.302C65.3232 308.302 66.1499 306.595 64.8513 306.635C64.4358 306.614 64.0307 306.499 63.6668 306.3C63.6082 306.273 63.5465 306.242 63.4879 306.209C63.2997 306.112 63.1115 306.002 62.9265 305.886C62.5409 305.646 62.1769 305.387 61.8839 305.162C61.452 304.837 61.1651 304.584 61.1651 304.584L56.3994 306.127Z" fill="#FBBEBE"/>
<path opacity="0.1" d="M57.593 306.895L57.775 307.014L57.8089 307.038L59.2063 307.951L62.4698 308.496L65.3385 308.301C65.3385 308.301 66.1652 306.594 64.8665 306.634C64.451 306.612 64.0459 306.498 63.682 306.299C63.9103 306.475 64.1016 306.664 64.1201 306.828C64.1725 307.26 61.9978 308.045 61.9978 308.045L58.9163 307.254C58.9163 307.254 58.395 307.108 57.6825 306.926L57.6146 306.907L57.593 306.895Z" fill="black"/>
<path d="M52.3467 307.639C52.3467 307.639 54.8606 308.184 56.551 308.028C58.2414 307.873 61.1502 309.315 61.1502 309.315C61.1502 309.315 62.1342 309.772 65.1602 309.967C68.1862 310.161 68.1862 308.649 68.1862 308.649C67.8407 306.586 63.0596 305.91 62.9115 305.877C62.9701 305.907 63.22 306.035 63.4729 306.2C63.8122 306.419 64.1793 306.705 64.207 306.936C64.2595 307.371 62.0848 308.153 62.0848 308.153L59.0187 307.356C59.0187 307.356 58.4974 307.21 57.7849 307.027L57.717 307.009C56.6613 306.727 55.5889 306.511 54.5059 306.361C53.1857 306.221 52.5102 307.331 52.3714 307.578C52.3613 307.597 52.353 307.618 52.3467 307.639Z" fill="#3F3D56"/>
<path d="M12.7246 252.919L14.0602 253.927L15.0288 253.89H15.2139C16.0437 253.863 17.1881 253.832 18.1597 253.829C18.7878 253.803 19.417 253.838 20.0382 253.933C20.7045 254.167 21.889 250.172 21.889 250.172L20.5503 249.867L20.1061 249.767L19.7976 249.694L18.7088 249.441L15.4082 249.81L13.0793 251.264L12.7246 252.919Z" fill="#FBBEBE"/>
<path opacity="0.1" d="M12.7246 252.92L14.0602 253.928L15.0288 253.891C14.7627 253.79 14.5433 253.596 14.4119 253.346C13.5482 250.982 17.8327 249.972 17.8327 249.972L19.8285 249.887L20.2171 249.871H20.5256L20.0814 249.771L19.773 249.698L18.6841 249.445L15.3836 249.813L13.0793 251.265L12.7246 252.92Z" fill="black"/>
<path d="M10.0876 253.986C10.8958 254.725 16.189 253.986 16.4111 253.968C16.0094 254.014 15.6025 253.986 15.2112 253.885C15.0173 253.851 14.8336 253.775 14.6735 253.661C14.5134 253.548 14.3809 253.401 14.2858 253.231C13.4221 250.867 17.7066 249.856 17.7066 249.856L19.7024 249.771L20.0879 249.756L24.94 249.546L25.1745 248.229C25.1745 248.229 23.5982 248.378 21.1244 248.572C19.7332 248.682 18.0398 248.807 16.2106 248.925C11.0994 249.26 9.88403 252.534 9.88403 252.534C9.88403 252.534 9.26402 253.231 10.0876 253.986Z" fill="#3F3D56"/>
<path d="M69.4534 196.872C69.4863 196.944 69.5255 197.012 69.5706 197.076L70.7489 198.783L73.8151 199.087L73.849 197.889L74.3641 179.85C74.3641 179.85 76.4863 167.751 72.4763 168.451C68.4663 169.151 70.9834 179.85 70.9834 179.85C70.9834 179.85 70.5269 185.282 70.2061 186.91C69.8945 188.486 68.4972 194.882 69.4534 196.872Z" fill="#FBBEBE"/>
<path d="M62.5713 241.673L63.4442 243.149L65.3968 246.444C65.3968 246.444 68.9379 247.722 69.8448 246.749C70.3414 246.216 70.8782 244.36 71.2545 242.793C71.5629 241.527 71.7696 240.459 71.7696 240.459L62.5713 241.673Z" fill="#FBBEBE"/>
<path opacity="0.1" d="M62.5713 241.673L63.4442 243.148C63.4982 243.1 63.5478 243.047 63.5923 242.99C64.5794 241.749 68.9256 242.729 71.2545 242.805C71.5629 241.539 71.7696 240.471 71.7696 240.471L62.5713 241.673Z" fill="black"/>
<path opacity="0.1" d="M18.1592 253.825C18.7873 253.799 19.4165 253.833 20.0377 253.928C20.704 254.163 21.8885 250.167 21.8885 250.167L20.0994 249.744L24.9515 249.534L25.1859 248.217C25.1859 248.217 23.6097 248.366 21.1358 248.561C20.6233 248.849 20.1669 249.225 19.7879 249.671L19.7138 249.76C18.6866 251.022 18.3042 252.635 18.1592 253.825Z" fill="black"/>
<path opacity="0.1" d="M56.3994 306.125L57.7597 307.014C59.7894 306.655 61.6433 306.086 61.8623 305.188C61.8637 305.173 61.8637 305.158 61.8623 305.143C61.4304 304.817 61.1436 304.564 61.1436 304.564L56.3994 306.125Z" fill="black"/>
<path opacity="0.1" d="M52.377 307.586C54.1696 307.501 55.9556 307.312 57.7257 307.02C56.6683 306.734 55.5937 306.514 54.5084 306.36C53.1913 306.22 52.5158 307.331 52.377 307.586Z" fill="black"/>
<path d="M18.3054 255.364C18.3054 256.335 21.0168 256.953 21.0168 256.953L29.2743 264.204C29.2743 264.204 34.4565 266.48 37.7632 269.791C41.0699 273.102 43.9756 270.257 43.9756 270.257C47.4736 269.402 57.5479 257.382 57.5479 257.382C57.5479 257.382 57.7824 271.109 58.2543 272.116C58.7262 273.123 58.097 275.88 57.8225 277.042C57.6493 278.015 57.5831 279.004 57.625 279.991C57.625 279.991 53.8526 294.223 54.1672 295.464C54.4818 296.706 52.1221 302.521 52.1221 302.521V307.368C52.1221 307.368 61.3605 307.018 61.8695 304.964C62.3784 302.91 59.5529 302.016 59.5529 302.016V301.514C61.4037 300.583 61.7523 294.183 61.7523 294.183C61.7523 294.183 64.5068 286.272 64.8986 284.954C65.2903 283.636 64.8986 281.655 64.8986 281.655L65.1731 279.951C65.1731 279.951 65.7623 278.789 65.7623 278.555C65.8398 277.964 66.0704 277.404 66.4316 276.927C66.8635 276.422 65.9597 275.22 65.9597 275.22L66.7462 273.202V270.993L68.597 262.966C68.597 262.966 70.5249 253.618 69.8555 250.557C69.1862 247.495 70.6421 245.94 70.6421 245.94C67.4866 247.574 65.8949 243.944 65.3736 242.383C65.241 241.978 65.1762 241.714 65.1762 241.714C65.1762 241.714 60.8423 240.137 56.8076 240.497C55.9884 240.564 55.1811 240.732 54.4047 240.999C49.9228 242.59 49.2164 249.181 49.2164 249.181L45.2465 255.154C43.2014 260.467 40.1353 261.012 40.1353 261.012C40.1353 261.012 32.9419 256.241 32.7322 256.01C32.5224 255.778 29.7833 254.613 29.7833 254.613C29.4601 254.049 28.9645 253.601 28.3674 253.332C27.4236 252.945 27.3464 251.506 27.3464 251.506C27.2292 248.131 25.2242 247.854 25.2242 247.854C18.2653 247.31 18.3054 254.394 18.3054 255.364Z" fill="#3F3D56"/>
<path d="M58.3269 236.4H62.5713V223.41H58.3269V236.4Z" fill="#0AB0A5"/>
<path opacity="0.1" d="M58.3269 236.4H62.5713V223.41H58.3269V236.4Z" fill="black"/>
<path opacity="0.1" d="M69.4503 196.842C69.4495 196.852 69.4495 196.862 69.4503 196.872C69.4831 196.943 69.5224 197.012 69.5675 197.076L70.7458 198.783L73.8119 199.087L73.8459 197.889C72.8896 197.812 70.7119 197.554 69.4503 196.842Z" fill="black"/>
<path d="M69.5696 197.076C69.5696 197.076 69.7269 203.902 67.9964 204.833C66.266 205.764 65.5935 210.614 65.5935 210.614C65.5935 210.614 70.8374 214.016 72.0064 215.51C73.1755 217.004 75.8591 220.574 75.307 221.429C74.7548 222.284 76.6457 226.158 76.6457 226.158C76.6457 226.158 73.1847 233.138 73.9713 235.776C74.7579 238.415 74.835 245.395 74.835 245.395H76.3311C76.3311 245.395 75.8591 239.653 75.8591 237.328C75.8591 235.003 77.4292 226.702 77.4292 226.702C77.4292 226.702 78.1386 218.556 77.4292 218.325C76.7197 218.094 72.5555 214.835 72.2409 213.362C71.9262 211.889 74.4433 198.147 74.4433 198.147C74.4433 198.147 71.2198 198.013 69.5696 197.076Z" fill="#0AB0A5"/>
<path opacity="0.1" d="M58.2449 222.205C58.3884 223.154 58.7388 224.061 59.2721 224.864L62.1778 224.377C62.1778 224.377 70.9041 222.439 72.7117 222.284C73.8033 222.143 74.8677 221.844 75.8704 221.395C75.1796 218.979 73.8299 216.796 71.9683 215.084L70.8579 214.071C70.0425 213.326 69.1621 212.654 68.2267 212.062C67.2911 211.469 66.3031 210.96 65.2747 210.541C65.4043 210.648 74.5594 218.361 72.5544 219.874C70.5494 221.386 65.1513 217.701 65.1513 217.701L59.0129 212.501L58.7909 212.309L58.4361 212.854C58.6162 212.929 58.7922 213.013 58.9636 213.106C61.0572 214.237 62.6103 216.141 63.2821 218.401C64.5406 222.588 58.2449 222.205 58.2449 222.205Z" fill="black"/>
<path d="M56.3594 241.598C56.3594 241.598 62.177 244.778 63.5897 242.992C63.8982 242.599 64.549 242.429 65.3603 242.383C65.2276 241.978 65.1629 241.714 65.1629 241.714C65.1629 241.714 60.829 240.137 56.7943 240.497C56.529 241.172 56.3594 241.598 56.3594 241.598Z" fill="#444053"/>
<path d="M59.0368 212.316L65.3973 217.705C65.3973 217.705 70.7738 221.399 72.8004 219.878C74.827 218.356 65.5176 210.545 65.5176 210.545C67.5778 211.382 69.4696 212.575 71.1038 214.069L72.2112 215.082C75.1231 217.741 75.7801 217.741 75.8788 221.658C75.9035 222.619 75.5704 224.007 75.3143 224.256C74.3705 225.169 73.7103 231.797 73.8553 232.573C74.0003 233.349 72.0909 240.046 72.7078 241.909C73.3248 243.771 64.9963 240.977 63.5866 242.761C62.177 244.544 56.3594 241.364 56.3594 241.364C56.3594 241.364 59.5828 233.221 60.3694 232.676C61.156 232.132 62.0998 227.948 60.3694 226.006C58.6389 224.065 58.4847 222.206 58.4847 222.206C58.4847 222.206 64.7773 222.592 63.5157 218.405C63.1608 217.192 62.545 216.069 61.7103 215.112C60.8757 214.156 59.8417 213.388 58.679 212.861L59.0368 212.316Z" fill="#E8E8F0"/>
<path opacity="0.1" d="M67.5224 226.045C67.5224 226.045 65.0825 230.582 61.9269 231.763C61.8251 231.799 61.7264 231.833 61.6185 231.863C58.3241 232.852 67.7692 227.442 67.5224 226.045Z" fill="black"/>
<path d="M33.4032 185.909C33.4032 185.909 34.5815 188.855 35.5254 189.865C36.4693 190.875 43.4652 200.96 43.4652 200.96L44.0575 202.177L44.5664 203.218L49.0484 202.752L49.3568 200.969C49.3568 200.969 49.2951 200.89 49.1841 200.762C48.7337 200.226 47.5061 198.799 46.6825 198.175C45.6615 197.399 43.6164 194.828 43.6164 194.828C43.6164 194.828 37.2497 188.313 36.7778 186.53C36.3058 184.747 29.9361 174.054 28.5233 175.901C27.1106 177.748 33.4032 185.909 33.4032 185.909Z" fill="#FBBEBE"/>
<g opacity="0.1">
<path opacity="0.1" d="M46.4063 233.872C45.8682 233.826 45.3268 233.903 44.8238 234.097C43.7134 234.633 43.5036 236.069 42.8867 237.14C42.1649 238.373 40.7892 239.137 39.3733 239.42C39.092 239.474 38.8077 239.514 38.522 239.538C39.4239 239.624 40.3335 239.584 41.2241 239.42C42.6399 239.137 44.0157 238.373 44.7375 237.14C45.3544 236.081 45.5642 234.645 46.6746 234.097C46.9662 233.968 47.2805 233.896 47.6 233.884L46.4063 233.872Z" fill="black"/>
<path opacity="0.1" d="M57.3635 210.529C57.3635 208.11 58.9583 206.026 60.2723 203.984C61.5864 201.942 62.6907 199.365 61.6511 197.174C60.7628 195.302 55.4079 192.792 52.3171 193.291C55.3431 193.674 59.0724 195.64 59.8004 197.174C60.8399 199.365 59.7356 201.942 58.4215 203.984C57.1075 206.026 55.5066 208.11 55.5128 210.529C55.5128 213.651 55.2999 216.006 54.4301 219.022C54.1802 219.889 56.5893 221.201 56.2191 222.022C54.9668 224.761 55.5529 227.923 55.3524 230.917C55.3482 231.501 55.2033 232.076 54.9298 232.594C54.3128 233.598 53.0481 233.856 51.8174 233.908H52.8939C54.3313 233.908 56.0371 233.802 56.7805 232.584C57.0541 232.067 57.1989 231.492 57.2031 230.908C57.4036 227.914 56.8175 224.749 58.0699 222.013C58.4462 221.192 56.031 219.883 56.2808 219.013C57.1507 216.019 57.3697 213.651 57.3635 210.529Z" fill="black"/>
</g>
<path opacity="0.1" d="M44.0579 202.163L44.5668 203.204L49.0488 202.738L49.3572 200.955C49.3572 200.955 49.2955 200.876 49.1845 200.748C48.7064 200.982 45.1251 202.677 44.0579 202.163Z" fill="black"/>
<path opacity="0.1" d="M60.6064 213.837C60.6064 213.837 59.5052 212.13 58.8759 212.595C58.2467 213.061 58.003 211.199 57.6421 211.509C57.2812 211.819 56.2293 212.683 55.7913 211.472C55.4489 210.511 51.7227 204.431 50.2113 201.981L49.5789 200.959C49.5789 200.959 45.3345 203.056 44.3135 202.356V203.832L45.1772 203.908L49.8041 212.428C49.8041 212.428 51.26 214.71 51.1613 215.507C51.0626 216.305 53.0275 219.795 53.3421 220.029C53.6568 220.263 57.0437 224.14 57.0437 224.14C57.0437 224.14 58.7742 232.514 57.2781 234.842C55.7821 237.17 53.191 238.874 53.191 238.874C53.191 238.874 52.4106 241.126 52.5247 241.357C52.6389 241.588 51.6178 242.599 52.0898 242.909C52.5617 243.219 53.191 245.392 53.191 245.392C53.191 245.392 55.3934 241.902 56.5841 241.357C57.7747 240.812 59.2985 233.68 59.2985 233.68C59.2985 233.68 59.7335 229.471 59.7674 226.757C59.8013 224.043 59.6625 213.837 60.6064 213.837Z" fill="black"/>
<path d="M60.3686 213.837C60.3686 213.837 59.2705 212.13 58.6412 212.595C58.012 213.061 57.7652 211.199 57.4074 211.509C57.0496 211.819 55.9977 212.683 55.5566 211.472C55.2111 210.511 51.4849 204.431 49.9766 201.981C49.5848 201.352 49.3442 200.959 49.3442 200.959C49.3442 200.959 45.0998 203.056 44.0757 202.356V203.832L44.9425 203.908L49.5694 212.428C49.5694 212.428 51.0284 214.71 50.9266 215.507C50.8248 216.305 52.7774 219.795 53.1074 220.029C53.4375 220.263 56.809 224.14 56.809 224.14C56.809 224.14 58.5395 232.514 57.0465 234.842C56.2592 236.012 55.2997 237.059 54.1994 237.949C53.2762 238.7 52.6265 239.728 52.3486 240.876C52.2951 241.033 52.2761 241.199 52.2931 241.363C52.4072 241.598 51.3862 242.605 51.8582 242.915C52.3301 243.226 52.9563 245.398 52.9563 245.398C52.9563 245.398 55.1587 241.908 56.3494 241.363C57.54 240.819 59.0669 233.686 59.0669 233.686C59.0669 233.686 59.4988 229.477 59.5358 226.763C59.5728 224.049 59.4432 213.837 60.3686 213.837Z" fill="#0AB0A5"/>
<path opacity="0.1" d="M49.5979 249.135C49.5979 249.135 52.9016 249.743 54.2249 250.687C55.5482 251.63 49.1938 249.214 49.1938 249.214L49.5979 249.135Z" fill="black"/>
<path opacity="0.1" d="M57.5415 257.381C57.5415 257.381 60.987 260.211 60.3701 262.77C59.7532 265.329 58.1615 271.768 58.1615 271.768L57.5415 257.381Z" fill="black"/>
<path opacity="0.1" d="M27.4065 251.932C27.4065 251.932 22.5513 252.455 22.866 253.076C23.1806 253.697 27.4065 252.504 27.4065 252.504V251.932Z" fill="black"/>
<path opacity="0.1" d="M64.6878 275.489C64.6878 275.489 64.9963 275.879 63.1949 275.489C61.3935 275.1 62.7229 273.91 62.7229 273.91L64.6878 275.489Z" fill="black"/>
<path opacity="0.1" d="M64.0707 280.842C64.0707 280.842 61.603 281.228 60.2797 280.842C58.9564 280.455 64.0707 280.842 64.0707 280.842Z" fill="black"/>
<path opacity="0.1" d="M58.9932 301.777C58.9932 301.777 58.5614 301.312 56.3991 302.164C54.2368 303.016 53.3731 303.055 52.7438 302.772C52.1145 302.489 58.9932 301.777 58.9932 301.777Z" fill="black"/>
<path opacity="0.1" d="M61.393 251.266L58.3269 255.474C58.3269 255.474 59.9772 251.795 61.393 251.266Z" fill="black"/>
<path opacity="0.1" d="M55.4334 212.588C55.4334 212.588 55.3008 213.985 53.3235 214.526C51.3463 215.068 50.97 215.512 50.97 215.512" fill="black"/>
<path opacity="0.1" d="M50.2925 202.463C50.2925 202.463 47.6829 204.289 44.9592 203.902L50.2925 202.463Z" fill="black"/>
<path opacity="0.1" d="M52.2793 241.557C52.2793 241.557 53.0412 242.029 54.8704 239.963L52.2793 241.557Z" fill="black"/>
<path opacity="0.1" d="M71.2783 219.679C71.3523 219.302 71.0871 218.952 70.8372 218.657L70.3252 218.048C70.2251 217.924 70.1124 217.81 69.9889 217.708C69.6805 217.473 69.2856 217.403 68.9648 217.193" fill="black"/>
<path d="M250.032 320.399L219.952 357.227L126.42 282.882C115.764 274.412 113.841 259.259 122.134 249.106C130.427 238.953 145.844 237.584 156.501 246.054L250.032 320.399Z" fill="#F2F2F2"/>
<path d="M222.476 358.771C222.169 359.146 221.723 359.386 221.237 359.438C220.751 359.489 220.264 359.348 219.883 359.046L123.824 282.692C118.607 278.545 115.273 272.523 114.557 265.952C113.84 259.38 115.799 252.797 120.003 247.65C124.206 242.504 130.311 239.215 136.972 238.508C143.634 237.801 150.307 239.734 155.524 243.881L251.583 320.235C251.772 320.385 251.929 320.57 252.045 320.779C252.161 320.989 252.234 321.219 252.26 321.457C252.286 321.694 252.265 321.935 252.196 322.164C252.128 322.393 252.015 322.607 251.863 322.793C251.711 322.979 251.523 323.134 251.311 323.248C251.098 323.363 250.865 323.435 250.624 323.461C250.383 323.486 250.139 323.464 249.907 323.397C249.674 323.33 249.458 323.218 249.269 323.068L153.21 246.714C151.004 244.959 148.469 243.65 145.75 242.862C143.032 242.073 140.182 241.821 137.364 242.12C134.546 242.418 131.816 243.261 129.329 244.601C126.841 245.941 124.646 247.751 122.868 249.928C121.09 252.105 119.764 254.606 118.966 257.288C118.168 259.971 117.914 262.782 118.217 265.562C118.521 268.341 119.377 271.034 120.736 273.488C122.095 275.941 123.93 278.106 126.138 279.859L222.197 356.213C222.577 356.516 222.821 356.955 222.873 357.435C222.925 357.914 222.782 358.395 222.476 358.771Z" fill="#CCCCCC"/>
<path d="M243.087 328.898L142.577 249.006C142.539 248.977 142.508 248.939 142.484 248.898C142.461 248.856 142.447 248.81 142.441 248.762C142.436 248.715 142.441 248.667 142.454 248.621C142.468 248.575 142.49 248.532 142.521 248.495C142.551 248.458 142.589 248.427 142.631 248.404C142.674 248.381 142.72 248.367 142.769 248.361C142.817 248.356 142.865 248.361 142.912 248.374C142.958 248.388 143.002 248.41 143.039 248.44L243.55 328.332C243.587 328.362 243.619 328.399 243.642 328.441C243.665 328.483 243.68 328.529 243.685 328.576C243.69 328.624 243.686 328.672 243.672 328.718C243.659 328.764 243.636 328.806 243.606 328.844C243.575 328.881 243.538 328.912 243.495 328.935C243.453 328.958 243.406 328.972 243.358 328.977C243.31 328.982 243.261 328.978 243.214 328.964C243.168 328.951 243.124 328.928 243.087 328.898V328.898Z" fill="#CCCCCC"/>
<path d="M237.537 335.697L137.027 255.805C136.951 255.744 136.902 255.657 136.892 255.561C136.882 255.465 136.91 255.369 136.972 255.294C137.033 255.219 137.122 255.171 137.219 255.16C137.316 255.15 137.414 255.178 137.49 255.238L238 335.13C238.038 335.16 238.069 335.197 238.092 335.239C238.116 335.281 238.13 335.327 238.135 335.375C238.141 335.422 238.136 335.47 238.123 335.516C238.109 335.562 238.086 335.605 238.056 335.642C238.026 335.679 237.988 335.71 237.945 335.733C237.903 335.756 237.856 335.771 237.808 335.776C237.76 335.781 237.711 335.776 237.665 335.763C237.618 335.749 237.575 335.727 237.537 335.697Z" fill="#CCCCCC"/>
<path d="M231.981 342.496L131.471 262.604C131.395 262.544 131.346 262.456 131.335 262.36C131.325 262.264 131.354 262.168 131.415 262.093C131.476 262.017 131.565 261.969 131.663 261.959C131.76 261.949 131.857 261.977 131.933 262.038L232.444 341.93C232.481 341.959 232.513 341.997 232.536 342.038C232.559 342.08 232.574 342.126 232.579 342.174C232.584 342.221 232.58 342.269 232.566 342.315C232.552 342.361 232.53 342.404 232.499 342.441C232.469 342.478 232.431 342.509 232.389 342.532C232.346 342.555 232.3 342.569 232.252 342.575C232.203 342.58 232.155 342.575 232.108 342.562C232.062 342.548 232.019 342.526 231.981 342.496V342.496Z" fill="#CCCCCC"/>
<path d="M226.429 349.297L125.919 269.405C125.881 269.375 125.85 269.338 125.827 269.296C125.804 269.254 125.789 269.208 125.784 269.161C125.779 269.113 125.783 269.065 125.797 269.019C125.81 268.973 125.833 268.931 125.863 268.893C125.894 268.856 125.931 268.825 125.974 268.802C126.016 268.779 126.063 268.765 126.111 268.76C126.159 268.755 126.208 268.759 126.254 268.773C126.301 268.786 126.344 268.808 126.382 268.838L226.892 348.73C226.93 348.76 226.961 348.797 226.985 348.839C227.008 348.881 227.022 348.927 227.028 348.975C227.033 349.022 227.029 349.07 227.015 349.116C227.001 349.162 226.979 349.205 226.948 349.242C226.918 349.279 226.88 349.31 226.838 349.333C226.795 349.356 226.748 349.371 226.7 349.376C226.652 349.381 226.603 349.376 226.557 349.363C226.51 349.349 226.467 349.327 226.429 349.297Z" fill="#CCCCCC"/>
<path d="M153.766 310.184V359.482H28.5625C14.2972 359.482 2.69092 348.424 2.69092 334.833C2.69092 321.242 14.2972 310.184 28.5625 310.184H153.766Z" fill="#F2F2F2"/>
<path d="M156.841 359.104C156.841 359.607 156.638 360.089 156.278 360.445C155.917 360.8 155.429 361 154.919 361H26.3324C19.3486 361 12.6508 358.263 7.71257 353.392C2.7743 348.52 0 341.913 0 335.024C0 328.134 2.7743 321.527 7.71257 316.655C12.6508 311.784 19.3486 309.047 26.3324 309.047H154.919C155.429 309.047 155.917 309.247 156.278 309.602C156.638 309.958 156.841 310.44 156.841 310.943C156.841 311.446 156.638 311.928 156.278 312.284C155.917 312.639 155.429 312.839 154.919 312.839H26.3324C20.3681 312.839 14.6481 315.176 10.4308 319.337C6.21342 323.497 3.84414 329.14 3.84414 335.024C3.84414 340.907 6.21342 346.55 10.4308 350.71C14.6481 354.871 20.3681 357.208 26.3324 357.208H154.919C155.429 357.208 155.917 357.408 156.278 357.764C156.638 358.119 156.841 358.601 156.841 359.104Z" fill="#6A97EA"/>
<path d="M153.764 321.561H19.2196C19.1177 321.561 19.0199 321.521 18.9478 321.45C18.8757 321.379 18.8352 321.283 18.8352 321.182C18.8352 321.081 18.8757 320.985 18.9478 320.914C19.0199 320.843 19.1177 320.803 19.2196 320.803H153.764C153.866 320.803 153.964 320.843 154.036 320.914C154.108 320.985 154.149 321.081 154.149 321.182C154.149 321.283 154.108 321.379 154.036 321.45C153.964 321.521 153.866 321.561 153.764 321.561Z" fill="#CCCCCC"/>
<path d="M153.764 330.663H19.2196C19.1177 330.663 19.0199 330.623 18.9478 330.552C18.8757 330.481 18.8352 330.384 18.8352 330.284C18.8352 330.183 18.8757 330.086 18.9478 330.015C19.0199 329.944 19.1177 329.904 19.2196 329.904H153.764C153.866 329.904 153.964 329.944 154.036 330.015C154.108 330.086 154.149 330.183 154.149 330.284C154.149 330.384 154.108 330.481 154.036 330.552C153.964 330.623 153.866 330.663 153.764 330.663Z" fill="#CCCCCC"/>
<path d="M153.764 339.764H19.2196C19.1177 339.764 19.0199 339.724 18.9478 339.653C18.8757 339.582 18.8352 339.486 18.8352 339.385C18.8352 339.285 18.8757 339.188 18.9478 339.117C19.0199 339.046 19.1177 339.006 19.2196 339.006H153.764C153.866 339.006 153.964 339.046 154.036 339.117C154.108 339.188 154.149 339.285 154.149 339.385C154.149 339.486 154.108 339.582 154.036 339.653C153.964 339.724 153.866 339.764 153.764 339.764Z" fill="#CCCCCC"/>
<path d="M153.764 348.866H19.2196C19.1177 348.866 19.0199 348.826 18.9478 348.755C18.8757 348.684 18.8352 348.587 18.8352 348.487C18.8352 348.386 18.8757 348.29 18.9478 348.218C19.0199 348.147 19.1177 348.107 19.2196 348.107H153.764C153.866 348.107 153.964 348.147 154.036 348.218C154.108 348.29 154.149 348.386 154.149 348.487C154.149 348.587 154.108 348.684 154.036 348.755C153.964 348.826 153.866 348.866 153.764 348.866Z" fill="#CCCCCC"/>
<path d="M55.7811 126.998C51.5834 129.352 46.9317 130.812 42.1265 131.283C41.8413 131.312 41.5536 131.259 41.2984 131.13C41.0432 131.001 40.8315 130.802 40.6892 130.556L34.6707 120.273C34.4739 119.936 34.4207 119.535 34.5228 119.159C34.6248 118.784 34.8738 118.463 35.2151 118.268L58.4006 105.063C58.7424 104.869 59.1482 104.816 59.5291 104.917C59.91 105.018 60.2349 105.263 60.4324 105.6L66.4509 115.884C66.5953 116.128 66.6646 116.408 66.6502 116.691C66.6359 116.974 66.5385 117.246 66.3701 117.475C63.5544 121.345 59.947 124.589 55.7811 126.998Z" fill="#0AB0A5"/>
<path d="M50.9003 118.67C50.7285 118.768 50.5386 118.831 50.3417 118.855L27.4773 121.675C27.1825 121.711 26.8833 121.66 26.6185 121.527C26.3536 121.394 26.1352 121.186 25.9914 120.929C25.8476 120.673 25.7849 120.38 25.8115 120.088C25.8381 119.796 25.9528 119.518 26.1407 119.291L40.4997 101.939C40.7307 101.659 41.0585 101.473 41.4201 101.417L63.5868 97.9663C63.8792 97.9208 64.1786 97.9624 64.4469 98.0857C64.7152 98.2091 64.94 98.4085 65.0927 98.6587C65.2454 98.9088 65.319 99.1981 65.3041 99.4898C65.2891 99.7814 65.1863 100.062 65.0089 100.296L51.3474 118.279C51.2266 118.438 51.0745 118.571 50.9003 118.67Z" fill="#0AB0A5"/>
<path d="M43.9215 131.194C44.8701 130.653 45.195 129.457 44.6474 128.521C44.0998 127.585 42.8869 127.265 41.9384 127.805C40.9899 128.345 40.6649 129.542 41.2125 130.477C41.7601 131.413 42.973 131.734 43.9215 131.194Z" fill="#3F3D56"/>
<path opacity="0.2" d="M64.4371 99.1744L50.7755 117.158C50.669 117.298 50.535 117.416 50.3814 117.504C50.2278 117.592 50.0578 117.648 49.8816 117.67L27.0174 120.49C26.7316 120.528 26.4412 120.47 26.1921 120.327C26.1922 120.512 26.2321 120.695 26.3093 120.863C26.3864 121.031 26.4991 121.182 26.6396 121.304C26.7802 121.426 26.9455 121.518 27.1246 121.572C27.3037 121.626 27.4925 121.642 27.6784 121.619L50.5426 118.8C50.7189 118.778 50.8888 118.721 51.0424 118.633C51.196 118.545 51.3301 118.428 51.4366 118.288L65.0981 100.304C65.2103 100.157 65.2895 99.9873 65.3305 99.8075C65.3715 99.6277 65.3734 99.4414 65.3361 99.2608C65.2987 99.0802 65.223 98.9095 65.1138 98.7599C65.0047 98.6103 64.8646 98.4853 64.7028 98.3931C64.704 98.6753 64.6105 98.95 64.4371 99.1744Z" fill="black"/>
<path d="M43.0712 129.41C43.1471 129.367 43.2025 129.296 43.2252 129.212C43.2479 129.129 43.236 129.04 43.1922 128.965L37.6623 119.516L45.1173 110.747C45.1938 110.704 45.2503 110.634 45.2743 110.551C45.2982 110.468 45.2877 110.378 45.245 110.303C45.2023 110.227 45.1309 110.172 45.0466 110.148C44.9622 110.124 44.8718 110.135 44.7953 110.177L37.3403 118.947C37.2634 118.988 37.1957 119.045 37.1415 119.113C37.0874 119.181 37.0477 119.259 37.0251 119.343C37.0015 119.426 36.9951 119.513 37.0062 119.599C37.0173 119.685 37.0458 119.768 37.0898 119.842L42.6197 129.291C42.6636 129.366 42.7358 129.42 42.8204 129.443C42.9051 129.465 42.9953 129.454 43.0712 129.41Z" fill="#3F3D56"/>
<path d="M177.201 41.8887L150.66 28.425C149.789 27.9835 149.132 27.219 148.833 26.2996C148.534 25.3803 148.618 24.3815 149.065 23.5228L155.318 11.5271C155.409 11.3529 155.535 11.1987 155.688 11.0741C155.841 10.9494 156.019 10.8569 156.209 10.802L177.129 4.78463C177.965 4.54404 178.864 4.62902 179.638 5.02205C180.413 5.41509 181.006 6.08626 181.294 6.89733L188.167 26.2392C188.339 26.7223 188.409 27.235 188.373 27.7458C188.338 28.2565 188.197 28.7548 187.96 29.2101L182.171 40.316C181.949 40.7411 181.645 41.119 181.275 41.4282C180.905 41.7373 180.478 41.9715 180.016 42.1176C179.555 42.2636 179.069 42.3186 178.586 42.2793C178.103 42.24 177.632 42.1073 177.201 41.8887Z" fill="#F2F2F2"/>
<path opacity="0.1" d="M178.256 37.133L151.456 25.8465C150.593 25.4085 151.403 26.0818 151.847 25.2299L155.216 11.7227L188.045 28.3758L179.745 38.4995C179.301 39.3513 179.119 37.5711 178.256 37.133Z" fill="black"/>
<path d="M163.97 5.38357L153.273 25.9062C152.76 26.89 153.152 28.0976 154.15 28.6035L174.953 39.1565C175.951 39.6623 177.175 39.2749 177.688 38.2911L188.385 17.7685C188.898 16.7847 188.505 15.5771 187.508 15.0712L166.704 4.51824C165.707 4.01237 164.483 4.39979 163.97 5.38357Z" fill="#6A97EA"/>
<path opacity="0.1" d="M183.659 26.836L176.759 40.0728L152.344 27.6877L159.244 14.4512L168.417 26.4643L183.659 26.836Z" fill="black"/>
<path d="M168.027 27.212L156.273 11.8195C156.201 11.7243 156.104 11.6488 155.994 11.6002C155.884 11.5516 155.763 11.5315 155.642 11.5416C155.522 11.5518 155.406 11.5919 155.306 11.6583C155.205 11.7247 155.124 11.8151 155.069 11.9211L148.38 24.753C148.246 25.0097 148.165 25.2899 148.141 25.5776C148.117 25.8653 148.15 26.1548 148.24 26.4297C148.329 26.7045 148.473 26.9594 148.662 27.1796C148.851 27.3998 149.082 27.581 149.343 27.713L178.484 42.4957C178.745 42.6277 179.029 42.7079 179.32 42.7316C179.612 42.7553 179.905 42.7221 180.184 42.6339C180.463 42.5458 180.721 42.4043 180.944 42.2176C181.167 42.031 181.351 41.8028 181.485 41.5461L188.059 28.934C188.127 28.8047 188.16 28.6606 188.155 28.5152C188.151 28.3698 188.109 28.2279 188.034 28.1028C187.958 27.9777 187.852 27.8735 187.725 27.8C187.598 27.7265 187.454 27.686 187.306 27.6824L168.027 27.212Z" fill="#F2F2F2"/>
<path d="M172.679 10.3444L165.851 6.88086L165.354 7.83338L172.182 11.297L172.679 10.3444Z" fill="#F2F2F2"/>
<path d="M183.769 20.3561L163.492 10.0703L163.208 10.6146L183.485 20.9004L183.769 20.3561Z" fill="#F2F2F2"/>
<path d="M182.811 22.194L162.534 11.9082L162.25 12.4525L182.527 22.7383L182.811 22.194Z" fill="#F2F2F2"/>
<path d="M181.853 24.0299L161.576 13.7441L161.292 14.2884L181.569 24.5742L181.853 24.0299Z" fill="#F2F2F2"/>
<path d="M168.529 5.92383C169.334 4.38041 168.72 2.48702 167.158 1.69481C165.596 0.902609 163.678 1.51159 162.874 3.05501C162.069 4.59842 162.683 6.49182 164.245 7.28402C165.806 8.07622 167.725 7.46725 168.529 5.92383Z" fill="white"/>
<path d="M167.406 1.21767C166.738 0.878616 165.982 0.7427 165.236 0.827111C164.489 0.911523 163.784 1.21247 163.211 1.6919C162.638 2.17133 162.221 2.8077 162.015 3.52055C161.808 4.23339 161.82 4.99069 162.05 5.69668C162.279 6.40268 162.716 7.02565 163.305 7.48683C163.893 7.94801 164.607 8.22667 165.356 8.28759C166.105 8.34851 166.856 8.18894 167.513 7.82906C168.17 7.46919 168.704 6.92517 169.048 6.2658C169.506 5.38108 169.59 4.35357 169.282 3.40771C168.975 2.46185 168.3 1.67451 167.406 1.21767ZM164.048 5.97708L163.207 3.38992L163.942 3.15711L164.548 5.02104L168.536 3.75889L168.772 4.48456L164.048 5.97708Z" fill="#57B894"/>
<defs>
<linearGradient id="paint0_linear" x1="189.019" y1="218.34" x2="189.019" y2="93.8828" gradientUnits="userSpaceOnUse">
<stop stop-color="#808080" stop-opacity="0.25"/>
<stop offset="0.54" stop-color="#808080" stop-opacity="0.12"/>
<stop offset="1" stop-color="#808080" stop-opacity="0.1"/>
</linearGradient>
<linearGradient id="paint1_linear" x1="13282.9" y1="78327.6" x2="28516.7" y2="78327.6" gradientUnits="userSpaceOnUse">
<stop stop-color="#808080" stop-opacity="0.25"/>
<stop offset="0.54" stop-color="#808080" stop-opacity="0.12"/>
<stop offset="1" stop-color="#808080" stop-opacity="0.1"/>
</linearGradient>
</defs>
</svg>
