<svg width="147" height="98" viewBox="0 0 147 98" fill="none" xmlns="http://www.w3.org/2000/svg">
<g clip-path="url(#clip0)">
<path d="M141.254 65.584C140.193 66.7514 138.876 67.6203 137.448 68.2951H137.446C137.312 68.3592 137.177 68.4217 137.041 68.4807H137.039L137.038 68.4824L137.036 68.4807H137.034C137.034 68.4809 137.034 68.4811 137.034 68.4813C137.034 68.4816 137.034 68.4818 137.034 68.4819C137.033 68.4821 137.033 68.4822 137.033 68.4823C137.033 68.4824 137.033 68.4824 137.032 68.4824H137.031L137.029 68.4807C137.027 68.4824 137.027 68.4824 137.025 68.4807L137.024 68.4824L137.022 68.4807H137.02C137.019 68.4824 137.019 68.4824 137.017 68.4807H137.015C136.059 68.897 135.077 69.2504 134.076 69.5387C128.186 71.2207 121.996 71.5462 115.964 70.491C115.849 70.4702 115.735 70.4493 115.62 70.4285V56.3599C115.733 56.3113 115.849 56.2628 115.964 56.2159C116.717 55.902 117.479 55.6135 118.251 55.3504C119.36 54.9688 120.486 54.6416 121.626 54.3687C125.348 53.462 129.188 53.1494 133.005 53.4424C133.7 53.4945 134.393 53.5696 135.084 53.6679C136.529 53.8709 138.046 54.2247 139.379 54.8387H139.381C139.576 54.9307 139.767 55.0261 139.957 55.1284C141.142 55.7754 142.141 56.6652 142.751 57.8845C142.97 58.3225 143.128 58.7889 143.22 59.2704V59.2739C143.254 59.4404 143.279 59.6086 143.298 59.7752C143.515 61.8288 142.669 64.0264 141.254 65.584Z" fill="#D6DDE4"/>
<path d="M143.298 59.7744C143.281 59.7787 143.263 59.781 143.246 59.7814C140.294 59.9115 137.347 60.1046 134.403 60.3607H134.398C134.386 60.3624 134.375 60.3624 134.363 60.3642C131.341 60.6278 128.325 60.958 125.315 61.3546C125.188 61.3719 125.062 61.3893 124.936 61.4049C122.855 61.6841 120.777 61.994 118.704 62.3346C117.789 62.4855 116.876 62.6427 115.964 62.8064C115.849 62.8272 115.735 62.8463 115.62 62.8688V62.3433C115.735 62.3207 115.85 62.3016 115.964 62.2808C119 61.7396 122.047 61.2673 125.103 60.8637C125.872 60.7596 126.642 60.6614 127.412 60.5689C129.639 60.2983 131.868 60.0647 134.101 59.8681C134.265 59.8542 134.427 59.8404 134.591 59.8265C137.449 59.5819 140.312 59.3963 143.179 59.2697C143.193 59.2691 143.206 59.2702 143.22 59.2732C143.496 59.2975 143.554 59.7137 143.298 59.7744Z" fill="white"/>
<path d="M137.168 67.9695C133.491 67.9967 129.868 66.4272 127.267 63.8293C126.533 63.0935 125.887 62.2745 125.34 61.3889C125.165 61.1058 124.755 61.418 124.929 61.6985C126.948 64.9595 130.313 67.2825 134.023 68.1366C135.076 68.3769 136.154 68.4929 137.234 68.4825C137.564 68.48 137.495 67.9671 137.168 67.9695V67.9695Z" fill="white"/>
<path d="M121.626 54.3691C121.61 54.4179 121.582 54.4617 121.544 54.496C121.507 54.5304 121.461 54.5543 121.411 54.5651C120.568 54.7874 119.754 55.1075 118.985 55.5191C117.861 56.1163 116.841 56.8924 115.964 57.8173C115.918 57.8642 115.873 57.911 115.83 57.9596C115.757 58.0359 115.688 58.1139 115.62 58.1937V57.4375C115.73 57.3195 115.845 57.2033 115.964 57.0923C116.657 56.4247 117.424 55.8403 118.251 55.3509C119.36 54.9693 120.486 54.642 121.626 54.3691Z" fill="white"/>
<path d="M139.684 54.7022C137.345 55.7141 135.388 57.4511 134.097 59.6604C134.071 59.7236 134.071 59.7946 134.097 59.858C134.122 59.9215 134.172 59.9722 134.234 59.9993C134.297 60.0243 134.367 60.024 134.43 59.9984C134.492 59.9728 134.543 59.9238 134.571 59.8618C135.802 57.7752 137.66 56.1363 139.877 55.1814C140.181 55.0506 139.989 54.5711 139.684 54.7022L139.684 54.7022Z" fill="white"/>
<path d="M146.735 39.9702C146.335 41.5001 145.569 42.8859 144.616 44.1504L144.614 44.1521C144.526 44.2701 144.435 44.3898 144.34 44.5042V44.506C143.679 45.3264 142.964 46.1022 142.202 46.8285C139.461 49.4578 136.365 51.6843 133.006 53.4422C127.721 56.2209 121.814 57.8635 115.964 57.9571C115.919 57.9589 115.875 57.9589 115.83 57.9589C115.759 57.9606 115.688 57.9606 115.62 57.9606V50.0772C115.731 49.8622 115.847 49.6471 115.964 49.4337C117.484 46.6801 119.338 44.1271 121.483 41.8331C121.535 41.7758 121.588 41.7186 121.642 41.6631C122.448 40.8063 123.294 39.9905 124.178 39.2157C127.581 36.2039 131.513 33.8596 135.773 32.3037C137.146 31.8076 138.652 31.4104 140.117 31.3323C140.332 31.3202 140.546 31.315 140.761 31.3167C142.11 31.3358 143.404 31.6567 144.509 32.4511C144.904 32.7371 145.259 33.0761 145.563 33.4589C145.67 33.5924 145.769 33.7294 145.863 33.8699V33.8717C147.004 35.5888 147.269 37.9287 146.735 39.9702Z" fill="#D6DDE4"/>
<path d="M145.863 33.8698V33.8715C145.85 33.8827 145.837 33.8926 145.822 33.901C143.272 35.3944 140.754 36.9422 138.268 38.5443C138.264 38.546 138.263 38.5478 138.259 38.5495C138.249 38.5565 138.239 38.5629 138.228 38.5686C135.673 40.2164 133.154 41.9197 130.671 43.6785C130.567 43.7513 130.462 43.8259 130.357 43.9005C128.643 45.1199 126.946 46.3652 125.267 47.6366C122.097 50.0407 118.996 52.5337 115.964 55.1159C115.849 55.213 115.735 55.3119 115.62 55.4107V54.736C115.733 54.6371 115.849 54.5383 115.964 54.4411C117.126 53.4542 118.297 52.4811 119.479 51.5219C119.833 51.2358 120.187 50.9496 120.542 50.6668C123.696 48.1396 126.92 45.7067 130.214 43.368H130.216C130.864 42.9084 131.513 42.4528 132.163 42.0012C134.01 40.7211 135.878 39.4717 137.766 38.2529C137.903 38.1645 138.04 38.076 138.178 37.9875C140.596 36.4334 143.045 34.9302 145.526 33.4778C145.538 33.4704 145.55 33.464 145.563 33.4587C145.822 33.3546 146.065 33.6981 145.863 33.8698Z" fill="white"/>
<path d="M144.217 43.9932C140.974 45.7366 137.041 46.0407 133.539 44.9563C132.55 44.6478 131.599 44.225 130.706 43.6962C130.421 43.5276 130.201 43.9957 130.485 44.163C133.778 46.1062 137.83 46.59 141.509 45.6118C142.553 45.332 143.561 44.9309 144.513 44.4165C144.803 44.2602 144.506 43.8379 144.217 43.9932V43.9932Z" fill="white"/>
<path d="M119.948 50.3386C119.787 49.4306 119.732 48.5069 119.784 47.5861C119.9 45.4861 120.539 43.4491 121.642 41.6626C122.449 40.8061 123.295 39.9901 124.179 39.2148C124.187 39.2655 124.182 39.3176 124.164 39.3658C124.147 39.414 124.117 39.4567 124.078 39.4897C123.434 40.0807 122.861 40.7447 122.37 41.4684C120.614 44.0476 119.929 47.2152 120.46 50.2957C120.469 50.3307 120.468 50.3672 120.459 50.4019C120.449 50.4367 120.431 50.4683 120.406 50.494C120.369 50.5263 120.325 50.5483 120.277 50.5579C120.229 50.5674 120.179 50.5642 120.133 50.5485C120.086 50.5328 120.045 50.5052 120.013 50.4684C119.98 50.4315 119.958 50.3868 119.948 50.3386Z" fill="white"/>
<path d="M140.323 31.0678C138.719 33.0577 137.787 35.5111 137.664 38.0709C137.67 38.1391 137.702 38.2021 137.754 38.2464C137.806 38.2906 137.873 38.3124 137.941 38.3071C138.008 38.2999 138.07 38.2668 138.114 38.2149C138.158 38.1629 138.18 38.0959 138.176 38.028C138.304 35.6043 139.193 33.2841 140.715 31.4019C140.924 31.1439 140.532 30.8092 140.323 31.0678Z" fill="white"/>
<path d="M122.479 36.7665V36.7682C122.467 36.9174 122.453 37.0648 122.438 37.2122V37.2157C122.318 38.2652 122.131 39.3057 121.878 40.3309C121.757 40.8339 121.626 41.3334 121.483 41.833C121.466 41.8972 121.447 41.9613 121.428 42.0238V42.0255C121.007 43.4784 120.504 44.9059 119.922 46.3011C118.851 48.8698 117.525 51.3233 115.964 53.6242C115.852 53.7924 115.737 53.9607 115.62 54.1272V26.9647C115.735 26.9578 115.849 26.9578 115.964 26.9613C116.019 26.9613 116.074 26.963 116.13 26.9665C116.616 26.9922 117.096 27.0862 117.556 27.2457C117.718 27.2995 117.875 27.3602 118.03 27.4279C119.91 28.257 121.387 30.0851 122.028 32.0954C122.508 33.601 122.605 35.1846 122.479 36.7665Z" fill="#D6DDE4"/>
<path d="M118.03 27.4281C118.026 27.4451 118.02 27.4615 118.011 27.4767C117.313 28.8418 116.631 30.2138 115.964 31.5927C115.849 31.8303 115.733 32.0697 115.62 32.3073V31.1278C115.733 30.8919 115.848 30.6561 115.964 30.4202C116.479 29.3691 117.003 28.3226 117.536 27.2807C117.541 27.2685 117.548 27.2569 117.556 27.246C117.715 27.0171 118.108 27.1732 118.03 27.4281Z" fill="white"/>
<path d="M122.534 37.0455C122.503 37.101 122.472 37.1565 122.438 37.212C121.932 38.0996 121.33 38.928 120.642 39.682C119.322 41.1237 117.732 42.289 115.964 43.1111C115.85 43.1666 115.735 43.2186 115.62 43.2672V42.7035C115.735 42.6514 115.85 42.5977 115.964 42.5422C118.524 41.3131 120.65 39.3272 122.059 36.8495C122.079 36.8141 122.107 36.7835 122.14 36.7599C122.173 36.7362 122.211 36.7199 122.25 36.7122C122.29 36.7045 122.331 36.7054 122.371 36.7151C122.41 36.7247 122.447 36.7427 122.479 36.768C122.501 36.7825 122.52 36.8013 122.534 36.8231C122.549 36.8449 122.559 36.8695 122.564 36.8952C122.569 36.921 122.569 36.9475 122.564 36.9733C122.559 36.9991 122.549 37.0236 122.534 37.0455Z" fill="white"/>
<path d="M115.964 5.72389V18.9062H115.619V18.7657H0.344618V18.9062H0V5.72389C0.00147986 4.20628 0.601035 2.75125 1.66708 1.67813C2.73313 0.605019 4.17858 0.00148967 5.6862 0H110.278C111.786 0.00148967 113.231 0.605019 114.297 1.67813C115.363 2.75125 115.963 4.20628 115.964 5.72389Z" fill="#4664E6"/>
<path d="M110.278 0H5.6862C4.17858 0.00148966 2.73313 0.605019 1.66708 1.67813C0.601035 2.75125 0.00147986 4.20628 0 5.72389V81.0018C0.00147986 82.5194 0.601035 83.9744 1.66708 85.0475C2.73313 86.1206 4.17858 86.7242 5.6862 86.7257H110.278C111.786 86.7242 113.231 86.1206 114.297 85.0475C115.363 83.9744 115.963 82.5194 115.964 81.0018V5.72389C115.963 4.20628 115.363 2.75125 114.297 1.67813C113.231 0.605019 111.786 0.00148966 110.278 0ZM115.619 81.0018C115.618 82.4273 115.054 83.7939 114.053 84.8019C113.052 85.8099 111.694 86.3769 110.278 86.3788H5.6862C4.27008 86.3769 2.91248 85.8099 1.91113 84.8019C0.909777 83.7939 0.346425 82.4273 0.344618 81.0018V5.72389C0.346425 4.29839 0.909777 2.93178 1.91113 1.9238C2.91248 0.915809 4.27008 0.348722 5.6862 0.346903H110.278C111.694 0.348722 113.052 0.91581 114.053 1.9238C115.054 2.93178 115.618 4.29839 115.619 5.72389V81.0018Z" fill="#3F3D56"/>
<path d="M23.4341 12.9224C25.3374 12.9224 26.8803 11.3693 26.8803 9.4534C26.8803 7.53751 25.3374 5.98438 23.4341 5.98438C21.5308 5.98438 19.9879 7.53751 19.9879 9.4534C19.9879 11.3693 21.5308 12.9224 23.4341 12.9224Z" fill="white"/>
<path d="M92.53 12.9224C94.4333 12.9224 95.9762 11.3693 95.9762 9.4534C95.9762 7.53751 94.4333 5.98438 92.53 5.98438C90.6268 5.98438 89.0839 7.53751 89.0839 9.4534C89.0839 11.3693 90.6268 12.9224 92.53 12.9224Z" fill="white"/>
<path d="M33.3908 48.132H12.8901C12.0216 48.131 11.1889 47.7832 10.5748 47.165C9.96069 46.5468 9.61524 45.7087 9.61426 44.8344V35.0808C9.61524 34.2065 9.96069 33.3683 10.5748 32.7501C11.1889 32.1319 12.0216 31.7842 12.8901 31.7832H33.3908C34.2593 31.7842 35.092 32.1319 35.7061 32.7501C36.3202 33.3683 36.6657 34.2065 36.6667 35.0808V44.8344C36.6657 45.7087 36.3202 46.5468 35.7061 47.165C35.092 47.7832 34.2593 48.131 33.3908 48.132Z" fill="#4664E6"/>
<path d="M68.2661 48.132H47.7653C46.8968 48.131 46.0642 47.7832 45.4501 47.165C44.8359 46.5468 44.4905 45.7087 44.4895 44.8344V35.0808C44.4905 34.2065 44.8359 33.3683 45.4501 32.7501C46.0642 32.1319 46.8968 31.7842 47.7653 31.7832H68.2661C69.1346 31.7842 69.9672 32.1319 70.5813 32.7501C71.1955 33.3683 71.5409 34.2065 71.5419 35.0808V44.8344C71.5409 45.7087 71.1955 46.5468 70.5813 47.165C69.9672 47.7832 69.1346 48.131 68.2661 48.132Z" fill="#4664E6"/>
<path d="M68.266 73.3338H47.7653C46.8704 73.3328 46.0125 72.9746 45.3798 72.3376C44.7471 71.7007 44.3911 70.8371 44.3901 69.9364V60.1826C44.3911 59.2819 44.7471 58.4183 45.3798 57.7814C46.0125 57.1444 46.8704 56.7862 47.7653 56.7852H68.266C69.1608 56.7862 70.0187 57.1444 70.6514 57.7814C71.2842 58.4183 71.6401 59.2819 71.6411 60.1826V69.9364C71.6401 70.8371 71.2842 71.7007 70.6514 72.3376C70.0187 72.9745 69.1608 73.3328 68.266 73.3338Z" fill="#D6DDE4"/>
<path d="M33.3237 73.3338H12.823C11.9282 73.3328 11.0703 72.9745 10.4375 72.3376C9.8048 71.7007 9.44888 70.8371 9.44788 69.9364V60.1826C9.44888 59.2819 9.8048 58.4183 10.4375 57.7814C11.0703 57.1444 11.9282 56.7862 12.823 56.7852H33.3237C34.2185 56.7862 35.0764 57.1444 35.7091 57.7814C36.3419 58.4183 36.6978 59.2819 36.6988 60.1826V69.9364C36.6978 70.8371 36.3419 71.7007 35.7091 72.3376C35.0764 72.9745 34.2185 73.3328 33.3237 73.3338Z" fill="#D6DDE4"/>
<path d="M103.141 73.3338H82.6405C81.7457 73.3328 80.8878 72.9745 80.255 72.3376C79.6223 71.7007 79.2664 70.8371 79.2654 69.9364V60.1826C79.2664 59.2819 79.6223 58.4183 80.255 57.7814C80.8878 57.1444 81.7457 56.7862 82.6405 56.7852H103.141C104.036 56.7862 104.894 57.1444 105.527 57.7814C106.159 58.4183 106.515 59.2819 106.516 60.1826V69.9364C106.515 70.8371 106.159 71.7007 105.527 72.3376C104.894 72.9745 104.036 73.3328 103.141 73.3338Z" fill="#D6DDE4"/>
<path d="M103.141 48.1522H82.6405C81.7457 48.1512 80.8878 47.7929 80.255 47.156C79.6223 46.5191 79.2664 45.6555 79.2654 44.7547V35.001C79.2664 34.1002 79.6223 33.2367 80.255 32.5997C80.8878 31.9628 81.7457 31.6045 82.6405 31.6035H103.141C104.036 31.6045 104.894 31.9628 105.527 32.5997C106.159 33.2367 106.515 34.1002 106.516 35.001V44.7547C106.515 45.6555 106.159 46.5191 105.527 47.156C104.894 47.7929 104.036 48.1512 103.141 48.1522Z" fill="#D6DDE4"/>
<path d="M23.1406 45.555C26.2107 45.555 28.6996 43.0497 28.6996 39.9591C28.6996 36.8686 26.2107 34.3633 23.1406 34.3633C20.0704 34.3633 17.5815 36.8686 17.5815 39.9591C17.5815 43.0497 20.0704 45.555 23.1406 45.555Z" fill="white"/>
<path d="M22.5895 42.0937C22.4644 42.094 22.3427 42.0533 22.2426 41.9777L22.2364 41.9731L20.93 40.9662C20.8694 40.9196 20.8186 40.8614 20.7803 40.7949C20.7421 40.7285 20.7173 40.6551 20.7072 40.579C20.6972 40.5029 20.7021 40.4256 20.7218 40.3514C20.7415 40.2772 20.7754 40.2077 20.8218 40.1467C20.8682 40.0858 20.9261 40.0347 20.9921 39.9962C21.0582 39.9578 21.1311 39.9329 21.2067 39.9228C21.2823 39.9128 21.3591 39.9179 21.4328 39.9377C21.5065 39.9576 21.5755 39.9919 21.636 40.0387L22.4822 40.6918L24.4819 38.0666C24.5283 38.0058 24.5861 37.9547 24.6521 37.9163C24.7181 37.8779 24.791 37.853 24.8665 37.8429C24.9421 37.8329 25.0189 37.8379 25.0925 37.8577C25.1661 37.8776 25.2352 37.9118 25.2956 37.9585L25.2832 37.9755L25.296 37.9588C25.418 38.0532 25.4978 38.1924 25.5179 38.346C25.5381 38.4995 25.4969 38.6549 25.4034 38.7779L23.0513 41.8657C22.9969 41.9369 22.9269 41.9945 22.8468 42.034C22.7668 42.0736 22.6787 42.094 22.5895 42.0937Z" fill="#4664E6"/>
<path d="M58.1149 45.4749C61.1851 45.4749 63.6739 42.9696 63.6739 39.8791C63.6739 36.7886 61.1851 34.2832 58.1149 34.2832C55.0448 34.2832 52.5559 36.7886 52.5559 39.8791C52.5559 42.9696 55.0448 45.4749 58.1149 45.4749Z" fill="white"/>
<path d="M57.5639 42.0137C57.4388 42.0139 57.3171 41.9732 57.217 41.8977L57.2108 41.893L55.9044 40.8861C55.7822 40.7919 55.7022 40.6526 55.682 40.499C55.6618 40.3454 55.7031 40.19 55.7967 40.067C55.8903 39.944 56.0286 39.8635 56.1812 39.8431C56.3338 39.8228 56.4882 39.8643 56.6104 39.9586L57.4566 40.6117L59.4563 37.9866C59.5027 37.9257 59.5605 37.8746 59.6265 37.8362C59.6925 37.7978 59.7654 37.7729 59.8409 37.7628C59.9165 37.7528 59.9933 37.7578 60.0669 37.7777C60.1405 37.7975 60.2096 37.8317 60.27 37.8784L60.2576 37.8954L60.2704 37.8787C60.3924 37.9731 60.4722 38.1123 60.4923 38.2659C60.5125 38.4195 60.4713 38.5748 60.3778 38.6978L58.0257 41.7857C57.9713 41.8568 57.9013 41.9144 57.8212 41.9539C57.7412 41.9935 57.6531 42.0139 57.5639 42.0137Z" fill="#4664E6"/>
<path d="M95.6854 66.2848C95.868 66.0838 96.0046 65.8449 96.0856 65.5849C96.1666 65.325 96.19 65.0504 96.1541 64.7804C96.1183 64.5104 96.024 64.2516 95.8781 64.0222C95.7321 63.7928 95.5379 63.5984 95.3093 63.4528L92.2058 46.7715L88.4314 48.1804L92.6689 64.1345C92.4512 64.5374 92.388 65.0067 92.4911 65.4534C92.5942 65.9002 92.8565 66.2933 93.2283 66.5584C93.6002 66.8234 94.0557 66.9419 94.5085 66.8915C94.9614 66.8411 95.3801 66.6252 95.6854 66.2848Z" fill="#7A4200"/>
<path d="M65.5684 40.8315C65.5778 40.9351 65.579 41.0392 65.5722 41.143L72.9108 46.8287L74.9919 45.9684L76.6921 48.9603L73.155 50.8436C72.8692 50.9957 72.5421 51.0505 72.2228 50.9996C71.9036 50.9487 71.6093 50.7949 71.3842 50.5613L64.0488 42.9487C63.6605 43.0368 63.2548 43.0039 62.8855 42.8543C62.5163 42.7046 62.2011 42.4454 61.9818 42.111C61.7625 41.7766 61.6495 41.3829 61.6579 40.9823C61.6663 40.5817 61.7956 40.1932 62.0287 39.8684C62.2618 39.5436 62.5877 39.298 62.9628 39.1641C63.338 39.0303 63.7448 39.0146 64.129 39.1191C64.5133 39.2237 64.8568 39.4435 65.1139 39.7494C65.371 40.0553 65.5296 40.4327 65.5684 40.8315H65.5684Z" fill="#7A4200"/>
<path d="M82.7132 95.8934H80.6009L79.5958 89.4258L82.7137 89.426L82.7132 95.8934Z" fill="#7A4200"/>
<path d="M83.252 97.953L76.4406 97.9527V97.866C76.4405 97.5155 76.5091 97.1685 76.6424 96.8447C76.7756 96.5209 76.9709 96.2267 77.2171 95.9789C77.4633 95.7311 77.7555 95.5345 78.0772 95.4004C78.3989 95.2663 78.7436 95.1973 79.0918 95.1973H79.092L83.2522 95.1974L83.252 97.953Z" fill="#222933"/>
<path d="M90.6395 95.8934H88.5272L87.5221 89.4258L90.64 89.426L90.6395 95.8934Z" fill="#7A4200"/>
<path d="M91.1783 97.953L84.3668 97.9527V97.866C84.3668 97.5155 84.4354 97.1685 84.5686 96.8447C84.7019 96.5209 84.8971 96.2267 85.1433 95.9789C85.3895 95.7311 85.6818 95.5345 86.0035 95.4004C86.3251 95.2663 86.6699 95.1973 87.0181 95.1973H87.0182L91.1784 95.1974L91.1783 97.953Z" fill="#222933"/>
<path d="M80.1622 94.6144C79.9694 94.6146 79.7834 94.5423 79.6408 94.4116C79.4981 94.281 79.4091 94.1014 79.3912 93.9081L77.5503 68.985L77.6373 68.9778L90.3056 67.9297L90.3091 68.0203L91.3161 93.8386C91.32 93.9435 91.3029 94.0481 91.2657 94.1462C91.2285 94.2442 91.172 94.3337 91.0997 94.4093C91.0274 94.4849 90.9406 94.545 90.8447 94.5861C90.7487 94.6272 90.6455 94.6483 90.5412 94.6483H88.0573C87.8719 94.6492 87.6923 94.5828 87.5515 94.4612C87.4108 94.3397 87.3183 94.1711 87.2909 93.9865L83.9178 73.1298C83.9145 73.1083 83.9032 73.0888 83.8863 73.0752C83.8694 73.0616 83.848 73.055 83.8264 73.0566C83.8048 73.0581 83.7846 73.0678 83.7698 73.0837C83.755 73.0996 83.7467 73.1206 83.7465 73.1424L83.5935 93.7351C83.5919 93.934 83.515 94.1248 83.3785 94.2686C83.242 94.4124 83.0562 94.4984 82.8589 94.5091L80.2038 94.6132C80.1899 94.6141 80.176 94.6144 80.1622 94.6144Z" fill="#222933"/>
<path d="M82.3245 37.4871C84.6618 37.4871 86.5566 35.5797 86.5566 33.2269C86.5566 30.8741 84.6618 28.9668 82.3245 28.9668C79.9872 28.9668 78.0924 30.8741 78.0924 33.2269C78.0924 35.5797 79.9872 37.4871 82.3245 37.4871Z" fill="#7A4200"/>
<path d="M83.1438 70.5743C81.294 70.5688 79.4532 70.3155 77.6698 69.8212C77.4982 69.7709 77.349 69.6626 77.2475 69.5146C77.1459 69.3665 77.0982 69.1877 77.1123 69.0084C77.682 60.389 77.816 53.7001 76.6179 49.072C76.1073 47.0995 76.3391 45.0221 77.2539 43.3724C78.6307 40.8898 81.1611 39.3788 83.8603 39.431C83.9893 39.4335 84.1195 39.4381 84.2511 39.4449C88.3474 39.6572 91.5393 43.3875 91.3665 47.7605L90.5425 68.6038C90.5395 68.7559 90.4918 68.9037 90.4055 69.0285C90.3192 69.1533 90.198 69.2497 90.0574 69.3053C87.8471 70.1423 85.5053 70.5722 83.1438 70.5743Z" fill="#707A88"/>
<path d="M77.3143 50.6719L74.1443 46.7615C74.0541 46.6503 73.9887 46.5207 73.9528 46.3818C73.9168 46.2428 73.911 46.0977 73.9357 45.9563C73.9605 45.8148 74.0152 45.6804 74.0962 45.5622C74.1773 45.444 74.2826 45.3448 74.4052 45.2713L78.6994 42.6955C79.2675 42.2341 79.9942 42.0183 80.7201 42.0954C81.4461 42.1726 82.112 42.5364 82.5718 43.107C83.0317 43.6777 83.248 44.4086 83.1732 45.1396C83.0985 45.8705 82.7389 46.5418 82.1732 47.0062L78.817 50.7134C78.7209 50.8195 78.6032 50.9035 78.4719 50.9597C78.3406 51.0159 78.1989 51.043 78.0562 51.039C77.9136 51.0351 77.7735 51.0002 77.6455 50.9369C77.5175 50.8735 77.4045 50.7832 77.3143 50.6719Z" fill="#707A88"/>
<path d="M87.2867 50.1809C87.1564 50.1223 87.0403 50.0361 86.9462 49.9281C86.8521 49.8202 86.7823 49.6931 86.7415 49.5555L85.3144 44.7499C85.0046 44.0845 84.9696 43.3226 85.2171 42.6312C85.4647 41.9399 85.9745 41.3756 86.6348 41.0621C87.295 40.7486 88.0519 40.7115 88.7393 40.9589C89.4267 41.2064 89.9886 41.7182 90.3016 42.3821L93.0614 46.5776C93.1402 46.6973 93.1923 46.8327 93.2144 46.9746C93.2365 47.1165 93.2279 47.2615 93.1893 47.3997C93.1507 47.538 93.0829 47.6662 92.9906 47.7757C92.8983 47.8852 92.7837 47.9734 92.6545 48.0343L88.1134 50.174C87.9842 50.235 87.8435 50.2672 87.7008 50.2684C87.5581 50.2695 87.4168 50.2397 87.2867 50.1809Z" fill="#707A88"/>
<path d="M84.4158 36.7226L81.2787 35.9998C80.9551 35.9253 80.5664 35.783 80.5215 35.4519C80.4612 35.007 81.0973 34.6971 81.0386 34.2519C80.9818 33.8208 80.4023 33.7652 79.9892 33.6379C79.6044 33.502 79.2872 33.2208 79.1048 32.8537C78.9223 32.4865 78.889 32.0624 79.0118 31.6709C78.5647 32.3051 77.5434 32.3594 76.9636 31.8456C76.3838 31.3319 76.2726 30.3997 76.6208 29.7056C76.8089 29.3647 77.0743 29.0733 77.3954 28.855C77.7165 28.6368 78.0842 28.498 78.4686 28.4497C79.2416 28.3615 80.0231 28.5082 80.7126 28.8709C80.7586 28.3794 81.3681 28.1802 81.8585 28.1758C82.8771 28.1877 83.8667 28.519 84.6895 29.1236C85.5123 29.7281 86.1275 30.5759 86.4493 31.5488C87.051 33.5005 86.6485 35.6399 84.965 36.7818L84.4158 36.7226Z" fill="#222933"/>
<path d="M116.014 97.9992H50.3638C50.3181 97.9992 50.2743 97.981 50.242 97.9484C50.2097 97.9159 50.1915 97.8718 50.1915 97.8258C50.1915 97.7798 50.2097 97.7357 50.242 97.7031C50.2743 97.6706 50.3181 97.6523 50.3638 97.6523H116.014C116.059 97.6523 116.103 97.6706 116.136 97.7031C116.168 97.7357 116.186 97.7798 116.186 97.8258C116.186 97.8718 116.168 97.9159 116.136 97.9484C116.103 97.981 116.059 97.9992 116.014 97.9992Z" fill="#3F3D56"/>
</g>
<defs>
<clipPath id="clip0">
<rect width="147" height="98" fill="white"/>
</clipPath>
</defs>
</svg>
