<svg width="213" height="140" viewBox="0 0 213 140" fill="none" xmlns="http://www.w3.org/2000/svg">
<g clip-path="url(#clip0)">
<path d="M146.902 0.0839844H0.0627136V94.1261H146.902V0.0839844Z" fill="#B1BECB"/>
<path d="M142.703 11.8789H4.26151V88.5623H142.703V11.8789Z" fill="white"/>
<path d="M146.839 0H0V6.23825H146.839V0Z" fill="#4664E6"/>
<path d="M4.63577 4.34563C5.27432 4.34563 5.79198 3.82797 5.79198 3.18941C5.79198 2.55086 5.27432 2.0332 4.63577 2.0332C3.99721 2.0332 3.47955 2.55086 3.47955 3.18941C3.47955 3.82797 3.99721 4.34563 4.63577 4.34563Z" fill="white"/>
<path d="M9.02444 4.34563C9.66299 4.34563 10.1806 3.82797 10.1806 3.18941C10.1806 2.55086 9.66299 2.0332 9.02444 2.0332C8.38588 2.0332 7.86823 2.55086 7.86823 3.18941C7.86823 3.82797 8.38588 4.34563 9.02444 4.34563Z" fill="white"/>
<path d="M13.4132 4.34563C14.0517 4.34563 14.5694 3.82797 14.5694 3.18941C14.5694 2.55086 14.0517 2.0332 13.4132 2.0332C12.7746 2.0332 12.257 2.55086 12.257 3.18941C12.257 3.82797 12.7746 4.34563 13.4132 4.34563Z" fill="white"/>
<path d="M94.3877 23.6523H16.0402V67.7228H94.3877V23.6523Z" fill="#4664E6"/>
<path d="M135.156 23.6523H105.32V40.435H135.156V23.6523Z" fill="#B1BECB"/>
<path d="M135.156 45.7441H105.32V62.5268H135.156V45.7441Z" fill="#B1BECB"/>
<path d="M135.156 67.8359H105.32V84.6186H135.156V67.8359Z" fill="#B1BECB"/>
<path d="M70.0179 75.125H16.0402V78.7691H70.0179V75.125Z" fill="#B1BECB"/>
<path d="M65.4629 45.6863L48.3812 35.8242V55.5482L65.4629 45.6863L48.3812 35.8242V55.5482L65.4629 45.6863Z" fill="white"/>
<path d="M175.418 129.789L176.12 133.297L172.612 133.999L173.138 129.613L175.418 129.789Z" fill="#F4DCA5"/>
<path d="M189.78 129.15L188.986 133.123L185.717 133.202L186.761 128.355L189.78 129.15Z" fill="#F4DCA5"/>
<path d="M194.99 88.3348L195.902 94.4841C195.902 94.4841 194.99 108.149 194.763 108.833C194.535 109.516 193.852 112.932 193.852 112.932L189.98 129.331C189.98 129.331 186.628 129.786 185.945 127.964L186.108 118.171L185.88 107.011L183.147 94.2564L178.364 111.566C178.364 111.566 178.137 117.26 177.453 119.309C176.77 121.359 175.859 130.242 175.859 130.242C175.859 130.242 172.963 130.925 172.735 130.242C172.507 129.558 171.304 113.388 171.304 110.882C171.304 108.377 169.965 84.3555 169.965 84.3555L194.99 88.3348Z" fill="#2F2E41"/>
<path d="M186.767 132.896C187.142 132.973 187.529 132.973 187.905 132.896C188.332 132.754 187.905 131.9 187.905 131.9H189.469C189.469 131.9 191.176 135.741 191.888 136.025C192.599 136.31 194.875 139.439 192.172 139.439C190.504 139.418 188.877 138.925 187.478 138.017C187.478 138.017 187.194 136.737 185.913 136.594C184.633 136.452 183.78 134.887 183.78 134.887L185.169 132.322C185.209 132.25 185.267 132.189 185.338 132.147C185.409 132.105 185.49 132.083 185.572 132.083C185.655 132.083 185.736 132.105 185.807 132.146C185.878 132.188 185.936 132.248 185.976 132.321C186.169 132.662 186.438 132.962 186.767 132.896Z" fill="#2F2E41"/>
<path d="M174.862 132.456C174.862 132.456 174.545 133.09 174.227 132.773C173.962 132.436 173.749 132.062 173.593 131.663C173.593 131.663 172.641 131.187 172.483 131.663C172.324 132.139 171.689 134.677 171.372 134.994C171.055 135.311 167.724 138.642 171.055 139.277C174.386 139.912 175.021 138.484 175.021 138.484C175.021 138.484 174.545 137.691 175.497 137.373C176.448 137.056 176.607 135.946 176.607 135.946L176.129 132.36C176.118 132.284 176.086 132.212 176.034 132.155C175.983 132.097 175.916 132.056 175.841 132.037C175.766 132.018 175.688 132.021 175.615 132.047C175.542 132.072 175.479 132.119 175.433 132.181C175.249 132.42 175.044 132.577 174.862 132.456Z" fill="#2F2E41"/>
<path d="M200.229 72.3906L200.912 84.2339C200.912 84.2339 204.101 91.7497 199.773 91.522C195.446 91.2942 198.179 84.0061 198.179 84.0061L193.942 73.4361L200.229 72.3906Z" fill="#F4DCA5"/>
<path d="M165.155 68.9746L164.471 80.8178C164.471 80.8178 161.283 88.3337 165.61 88.106C169.938 87.8782 167.204 80.5901 167.204 80.5901L171.441 70.0201L165.155 68.9746Z" fill="#F4DCA5"/>
<path d="M183.375 43.2378C186.645 43.2378 189.297 40.5866 189.297 37.3161C189.297 34.0457 186.645 31.3945 183.375 31.3945C180.105 31.3945 177.453 34.0457 177.453 37.3161C177.453 40.5866 180.105 43.2378 183.375 43.2378Z" fill="#F4DCA5"/>
<path d="M188.044 39.709C188.044 39.709 186.45 46.0861 189.638 47.6804C192.827 49.2747 179.617 51.5522 178.706 47.6804L179.162 45.8584C179.162 45.8584 180.984 43.5808 180.528 41.531L188.044 39.709Z" fill="#F4DCA5"/>
<path d="M184.514 47.7939C184.514 47.7939 180.584 48.1609 179.36 45.5859C179.36 45.5859 170.165 46.1996 168.115 54.6265C170.494 54.6945 173.445 81.7644 169.547 84.4623C166.382 86.6523 175.008 90.0256 187.019 90.1562L196.129 89.7007C194.431 88.2373 190.366 69.1921 192.941 69.4305C192.941 69.4305 199.773 58.7261 199.09 57.1318C198.407 55.5375 197.313 49.2513 188.522 46.7005C188.522 46.7005 188.386 48.0216 184.514 47.7939Z" fill="#949FAF"/>
<path d="M196.129 53.2598L199.09 57.1316C199.09 57.1316 202.051 73.3021 201.14 73.5299C200.229 73.7577 194.763 75.5797 193.852 74.8964C192.941 74.2132 188.841 60.7757 188.841 60.7757L196.129 53.2598Z" fill="#949FAF"/>
<path d="M171.987 52.1211L168.116 54.6264C168.116 54.6264 162.422 70.5692 164.016 71.2524C165.61 71.9357 174.493 71.4802 174.493 71.4802L171.987 52.1211Z" fill="#949FAF"/>
<path d="M189.848 32.0174C189.848 32.0174 187.797 27.5734 183.865 28.599C179.934 29.6245 177.712 31.1628 177.541 32.7011C177.37 34.2394 177.627 36.5469 177.627 36.5469C177.627 36.5469 178.054 33.3848 180.789 34.0685C183.524 34.7522 187.797 34.2394 187.797 34.2394L188.48 40.3927C188.48 40.3927 189.249 39.2817 190.104 39.9654C190.959 40.6491 192.583 33.3848 189.848 32.0174Z" fill="#222933"/>
<path d="M212.913 139.314H154.212V138.834H213L212.913 139.314Z" fill="#3F3D56"/>
</g>
<defs>
<clipPath id="clip0">
<rect width="213" height="139.439" fill="white"/>
</clipPath>
</defs>
</svg>
