<svg width="36" height="36" viewBox="0 0 36 36" fill="none" xmlns="http://www.w3.org/2000/svg">
<rect width="36" height="36" rx="5" fill="#DEE8FA"/>
<path d="M23.6673 26H11.6667C11.4899 26 11.3203 25.9298 11.1953 25.8047C11.0702 25.6797 11 25.5101 11 25.3333V10.6667C11 10.4899 11.0702 10.3203 11.1953 10.1953C11.3203 10.0702 11.4899 10 11.6667 10H19.6673L24.334 14.6667V25.3333C24.334 25.4209 24.3167 25.5076 24.2832 25.5885C24.2497 25.6693 24.2006 25.7428 24.1387 25.8047C24.0768 25.8666 24.0033 25.9157 23.9224 25.9493C23.8416 25.9828 23.7549 26 23.6673 26Z" stroke="#1E5DD6" stroke-width="1.5" stroke-linecap="round" stroke-linejoin="round"/>
<path d="M19.6674 10V14.6667H24.3347" stroke="#1E5DD6" stroke-width="1.5" stroke-linecap="round" stroke-linejoin="round"/>
<path d="M15.0006 18.666H20.3339" stroke="#1E5DD6" stroke-width="1.5" stroke-linecap="round" stroke-linejoin="round"/>
<path d="M15.0006 21.334H20.3339" stroke="#1E5DD6" stroke-width="1.5" stroke-linecap="round" stroke-linejoin="round"/>
</svg>
