<svg width="148" height="111" viewBox="0 0 148 111" fill="none" xmlns="http://www.w3.org/2000/svg">
<path d="M80.5248 11.2466C82.4547 11.2466 84.0192 9.68213 84.0192 7.75222C84.0192 5.82231 82.4547 4.25781 80.5248 4.25781C78.5949 4.25781 77.0304 5.82231 77.0304 7.75222C77.0304 9.68213 78.5949 11.2466 80.5248 11.2466Z" fill="#6C63FF"/>
<path d="M80.1784 9.08346C80.0998 9.08359 80.0232 9.05815 79.9603 9.01099L79.9564 9.00807L79.1352 8.37985C79.0972 8.35069 79.0653 8.31433 79.0413 8.27283C79.0173 8.23134 79.0017 8.18553 78.9955 8.13801C78.9892 8.0905 78.9923 8.04221 79.0047 7.99592C79.0171 7.94962 79.0385 7.90621 79.0676 7.86818C79.0968 7.83014 79.1331 7.79822 79.1746 7.77424C79.2161 7.75026 79.2619 7.73469 79.3095 7.72841C79.357 7.72213 79.4053 7.72528 79.4516 7.73766C79.4979 7.75005 79.5413 7.77143 79.5793 7.80059L80.1112 8.20849L81.3682 6.56863C81.3973 6.53061 81.4337 6.4987 81.4752 6.47473C81.5167 6.45076 81.5624 6.4352 81.6099 6.42892C81.6574 6.42265 81.7057 6.42579 81.752 6.43817C81.7983 6.45055 81.8416 6.47192 81.8797 6.50107L81.8798 6.50115L81.872 6.51198L81.88 6.50115C81.9567 6.5601 82.0069 6.64707 82.0195 6.74298C82.0322 6.83888 82.0062 6.93589 81.9475 7.01272L80.469 8.94069C80.4348 8.98511 80.3908 9.02106 80.3405 9.04574C80.2901 9.07042 80.2348 9.08318 80.1787 9.08301L80.1784 9.08346Z" fill="white"/>
<path d="M80.5248 34.8697C82.4547 34.8697 84.0192 33.3052 84.0192 31.3753C84.0192 29.4454 82.4547 27.8809 80.5248 27.8809C78.5949 27.8809 77.0304 29.4454 77.0304 31.3753C77.0304 33.3052 78.5949 34.8697 80.5248 34.8697Z" fill="#6C63FF"/>
<path d="M80.1784 32.7065C80.0998 32.7066 80.0232 32.6812 79.9603 32.634L79.9564 32.6311L79.1352 32.0029C79.0972 31.9737 79.0653 31.9374 79.0413 31.8959C79.0173 31.8544 79.0017 31.8086 78.9955 31.7611C78.9892 31.7135 78.9923 31.6653 79.0047 31.619C79.0171 31.5727 79.0385 31.5293 79.0676 31.4912C79.0968 31.4532 79.1331 31.4213 79.1746 31.3973C79.2161 31.3733 79.2619 31.3577 79.3095 31.3515C79.357 31.3452 79.4053 31.3483 79.4516 31.3607C79.4979 31.3731 79.5413 31.3945 79.5793 31.4236L80.1112 31.8315L81.3682 30.1917C81.3973 30.1537 81.4337 30.1217 81.4752 30.0978C81.5167 30.0738 81.5624 30.0582 81.6099 30.052C81.6574 30.0457 81.7057 30.0488 81.752 30.0612C81.7983 30.0736 81.8416 30.095 81.8797 30.1241L81.8798 30.1242L81.872 30.135L81.88 30.1242C81.9567 30.1832 82.0069 30.2701 82.0195 30.366C82.0322 30.4619 82.0062 30.5589 81.9475 30.6358L80.469 32.5637C80.4348 32.6082 80.3908 32.6441 80.3405 32.6688C80.2901 32.6935 80.2348 32.7062 80.1787 32.7061L80.1784 32.7065Z" fill="white"/>
<path d="M89.3002 68.0946C89.2889 67.8049 89.3412 67.5163 89.4535 67.249C89.5657 66.9816 89.7353 66.7422 89.9501 66.5475C90.1649 66.3528 90.4198 66.2076 90.6969 66.1221C90.9739 66.0365 91.2663 66.0128 91.5535 66.0525L94.7539 59.7734L96.5623 62.9581L93.2459 68.4326C93.1472 68.9106 92.8766 69.3359 92.4853 69.6277C92.094 69.9196 91.6093 70.0578 91.1229 70.0161C90.6366 69.9745 90.1824 69.7559 89.8465 69.4017C89.5105 69.0476 89.3162 68.5825 89.3002 68.0947L89.3002 68.0946Z" fill="#FFB7B7"/>
<path d="M104.221 107.631L101.709 107.631L100.515 97.9434L104.221 97.9435L104.221 107.631Z" fill="#FFB7B7"/>
<path d="M104.861 110.067L96.7628 110.067V109.965C96.7629 109.129 97.095 108.327 97.6861 107.736C98.2772 107.145 99.079 106.813 99.915 106.812H99.9151L104.861 106.813L104.861 110.067Z" fill="#2F2E41"/>
<path d="M117.836 107.631L115.325 107.631L114.13 97.9434L117.837 97.9435L117.836 107.631Z" fill="#FFB7B7"/>
<path d="M118.477 110.067L110.378 110.067V109.965C110.378 109.129 110.71 108.327 111.302 107.736C111.893 107.145 112.694 106.813 113.53 106.812H113.531L118.477 106.813L118.477 110.067Z" fill="#2F2E41"/>
<path d="M93.1581 62.6309L92.0616 64.4582C92.0616 64.4582 93.889 64.4582 94.2545 67.1993L95.7164 65.3719L93.1581 62.6309Z" fill="#E5E5E5"/>
<path d="M112.345 58.791C112.345 58.791 115.269 66.466 115.817 71.2172C116.366 75.9684 117.279 88.5774 117.279 88.5774L119.107 104.841L113.99 105.572L111.797 89.1256L106.863 72.8619L105.767 89.1256L104.853 103.927L100.102 104.11L99.7364 88.7601L97.7263 69.2071L98.8228 59.8874L112.345 58.791Z" fill="#2F2E41"/>
<path d="M104.122 35.6037C106.645 35.6037 108.691 33.5584 108.691 31.0353C108.691 28.5122 106.645 26.4668 104.122 26.4668C101.599 26.4668 99.5538 28.5122 99.5538 31.0353C99.5538 33.5584 101.599 35.6037 104.122 35.6037Z" fill="#FFB7B7"/>
<path d="M108.782 35.4941L110.61 36.7731L112.985 60.712L98.1835 61.0774L100.194 44.4483L102.021 39.6971L103.34 37.9532L108.782 35.4941Z" fill="#E5E5E5"/>
<path d="M109.148 52.6708L109.707 36.1406C109.707 36.1406 110.792 36.2243 111.158 36.7725C111.523 37.3208 117.554 38.4172 117.554 38.4172L116.457 55.4119C116.457 55.4119 121.026 68.9345 119.381 69.6655C117.736 70.3965 114.812 70.2137 114.812 70.2137L109.148 52.6708Z" fill="#2F2E41"/>
<path d="M100.285 50.5665L102.223 39.4258L97.9093 42.3432L99.0057 50.3837L98.092 55.8659C98.092 55.8659 94.62 71.0332 95.7164 71.5814C96.8128 72.1296 98.092 71.5814 98.092 71.5814L100.285 56.2314V50.5665Z" fill="#2F2E41"/>
<path d="M99.1885 41.9824L97.9093 42.3479L97.3611 49.6575L96.4474 56.0533L92.0616 63.9111C92.0616 63.9111 94.2545 62.4491 95.1682 66.6521L99.9982 58.243L99.1885 41.9824Z" fill="#2F2E41"/>
<path d="M107.947 26.6836L108.808 26.3387C108.808 26.3387 107.007 24.3556 104.501 24.528L105.206 23.752C105.206 23.752 103.483 23.0623 101.916 24.8729C101.093 25.8248 100.14 26.9436 99.5462 28.2039H98.6237L99.0087 29.0518L97.661 29.8996L99.0443 29.7473C98.9619 30.2116 98.9492 30.6856 99.0068 31.1537C99.0661 31.6218 99.305 32.0486 99.6731 32.344C99.6731 32.344 100.741 30.1325 100.741 29.7876V30.6498C100.741 30.6498 101.603 29.8738 101.603 29.3565L102.073 29.9601L102.308 29.0116L105.206 29.9601L104.736 29.1841L106.537 29.4427L105.832 28.4943L108.621 32.4108C108.621 32.4108 110.218 27.9769 107.947 26.6836Z" fill="#2F2E41"/>
<path d="M109.128 66.5945C109.173 66.3081 109.28 66.035 109.443 65.7946C109.605 65.5542 109.817 65.3522 110.066 65.2029C110.314 65.0536 110.593 64.9606 110.881 64.9305C111.169 64.9004 111.461 64.9339 111.735 65.0286L116.093 59.4902L117.249 62.9654L112.933 67.6919C112.743 68.1417 112.395 68.5063 111.955 68.7167C111.514 68.927 111.012 68.9685 110.543 68.8332C110.074 68.698 109.671 68.3953 109.41 67.9827C109.149 67.5701 109.049 67.0761 109.128 66.5944V66.5945Z" fill="#FFB7B7"/>
<path d="M116.549 64.6398L114.904 66.65L112.711 62.8125L113.625 61.168L116.549 64.6398Z" fill="#E5E5E5"/>
<path d="M116.183 39.0571L117.645 38.3262C117.645 38.3262 118.742 39.7881 118.924 41.0672C119.107 42.3464 120.021 43.9911 120.021 44.9048C120.021 45.8185 122.579 54.4072 122.579 54.4072L116.731 66.2852C116.731 66.2852 115.452 61.8995 112.711 61.534L117.28 55.1381L114.721 50.5697L116.183 39.0571Z" fill="#2F2E41"/>
<path d="M147.815 110.182H77.4994C77.4504 110.182 77.4035 110.162 77.3689 110.128C77.3343 110.093 77.3148 110.046 77.3148 109.997C77.3148 109.948 77.3343 109.901 77.3689 109.867C77.4035 109.832 77.4504 109.812 77.4994 109.812H147.815C147.864 109.812 147.911 109.832 147.946 109.867C147.981 109.901 148 109.948 148 109.997C148 110.046 147.981 110.093 147.946 110.128C147.911 110.162 147.864 110.182 147.815 110.182Z" fill="#CBCBCB"/>
<path d="M67.3632 39.1258H0V23.623H67.3632V39.1258Z" fill="white"/>
<path d="M9.72191 28.748C9.54802 28.7483 9.38136 28.8176 9.2585 28.9407C9.13565 29.0637 9.06665 29.2305 9.06665 29.4044C9.06665 29.5783 9.13565 29.7451 9.2585 29.8681C9.38136 29.9912 9.54802 30.0605 9.72191 30.0608H57.6438C57.8176 30.0605 57.9843 29.9912 58.1072 29.8681C58.23 29.7451 58.299 29.5783 58.299 29.4044C58.299 29.2305 58.23 29.0637 58.1072 28.9407C57.9843 28.8176 57.8176 28.7483 57.6438 28.748H9.72191Z" fill="#6C63FF"/>
<path d="M9.72183 32.6895C9.63564 32.6893 9.55025 32.7061 9.47055 32.7389C9.39085 32.7717 9.31839 32.8199 9.25731 32.8807C9.19623 32.9415 9.14773 33.0138 9.11458 33.0934C9.08143 33.1729 9.06427 33.2582 9.06409 33.3444C9.06391 33.4306 9.08071 33.516 9.11352 33.5957C9.14634 33.6754 9.19453 33.7479 9.25535 33.8089C9.31617 33.87 9.38843 33.9185 9.46799 33.9517C9.54755 33.9848 9.63287 34.002 9.71906 34.0022H40.0158C40.102 34.0023 40.1875 33.9854 40.2673 33.9525C40.347 33.9196 40.4195 33.8713 40.4806 33.8103C40.5416 33.7494 40.5901 33.6769 40.6231 33.5972C40.6562 33.5175 40.6732 33.4321 40.6732 33.3458C40.6732 33.2595 40.6562 33.1741 40.6231 33.0944C40.5901 33.0147 40.5416 32.9423 40.4806 32.8813C40.4195 32.8203 40.347 32.772 40.2673 32.7391C40.1875 32.7062 40.102 32.6893 40.0158 32.6895H9.72183Z" fill="#6C63FF"/>
<path d="M67.3632 39.1258H0V23.623H67.3632V39.1258ZM1.10734 38.0185H66.2558V24.7304H1.10734V38.0185Z" fill="#E5E5E5"/>
<path d="M67.3632 62.7508H0V47.248H67.3632V62.7508Z" fill="white"/>
<path d="M9.72191 52.3711C9.54802 52.3714 9.38136 52.4407 9.2585 52.5637C9.13565 52.6868 9.06665 52.8536 9.06665 53.0275C9.06665 53.2013 9.13565 53.3681 9.2585 53.4912C9.38136 53.6142 9.54802 53.6835 9.72191 53.6838H57.6438C57.8176 53.6835 57.9843 53.6142 58.1072 53.4912C58.23 53.3681 58.299 53.2013 58.299 53.0275C58.299 52.8536 58.23 52.6868 58.1072 52.5637C57.9843 52.4407 57.8176 52.3714 57.6438 52.3711H9.72191Z" fill="#E6E6E6"/>
<path d="M9.72183 56.3125C9.63564 56.3123 9.55025 56.3291 9.47055 56.3619C9.39085 56.3947 9.31839 56.4429 9.25731 56.5038C9.19623 56.5646 9.14773 56.6368 9.11458 56.7164C9.08143 56.796 9.06427 56.8813 9.06409 56.9675C9.06391 57.0537 9.08071 57.1391 9.11352 57.2188C9.14634 57.2985 9.19453 57.3709 9.25535 57.432C9.31617 57.4931 9.38843 57.5416 9.46799 57.5747C9.54755 57.6079 9.63287 57.625 9.71906 57.6252H40.0158C40.102 57.6254 40.1875 57.6085 40.2673 57.5756C40.347 57.5426 40.4195 57.4943 40.4806 57.4334C40.5416 57.3724 40.5901 57.3 40.6231 57.2203C40.6562 57.1406 40.6732 57.0551 40.6732 56.9689C40.6732 56.8826 40.6562 56.7971 40.6231 56.7174C40.5901 56.6377 40.5416 56.5653 40.4806 56.5044C40.4195 56.4434 40.347 56.3951 40.2673 56.3621C40.1875 56.3292 40.102 56.3124 40.0158 56.3125H9.72183Z" fill="#E6E6E6"/>
<path d="M67.3632 62.7508H0V47.248H67.3632V62.7508ZM1.10734 61.6435H66.2558V48.3554H1.10734V61.6435Z" fill="#E5E5E5"/>
<path d="M67.9169 15.5028H0.553711V0H67.9169V15.5028Z" fill="white"/>
<path d="M10.2756 5.125C10.1017 5.12529 9.93507 5.19457 9.81221 5.31763C9.68936 5.44069 9.62036 5.60747 9.62036 5.78136C9.62036 5.95525 9.68936 6.12203 9.81221 6.24509C9.93507 6.36814 10.1017 6.43742 10.2756 6.43772H58.1975C58.3714 6.43742 58.538 6.36814 58.6609 6.24509C58.7837 6.12203 58.8527 5.95525 58.8527 5.78136C58.8527 5.60747 58.7837 5.44069 58.6609 5.31763C58.538 5.19457 58.3714 5.12529 58.1975 5.125H10.2756Z" fill="#6C63FF"/>
<path d="M10.2755 9.06641C10.1015 9.06604 9.93437 9.13484 9.81102 9.25767C9.68767 9.3805 9.61817 9.5473 9.6178 9.72138C9.61743 9.89546 9.68623 10.0626 9.80906 10.1859C9.9319 10.3093 10.0987 10.3788 10.2728 10.3791H40.5695C40.6558 10.3793 40.7412 10.3624 40.821 10.3295C40.9007 10.2966 40.9732 10.2482 41.0343 10.1873C41.0954 10.1263 41.1438 10.0539 41.1769 9.9742C41.2099 9.89449 41.2269 9.80905 41.2269 9.72277C41.2269 9.63648 41.2099 9.55104 41.1769 9.47133C41.1438 9.39163 41.0954 9.31922 41.0343 9.25826C40.9732 9.1973 40.9007 9.14897 40.821 9.11605C40.7412 9.08313 40.6558 9.06626 40.5695 9.06641H10.2755Z" fill="#6C63FF"/>
<path d="M67.9169 15.5028H0.553711V0H67.9169V15.5028ZM1.66105 14.3954H66.8095V1.10734H1.66105V14.3954Z" fill="#E5E5E5"/>
<path d="M136.433 110.265V96.9141C136.433 96.9141 141.636 106.379 136.433 110.265Z" fill="#F1F1F1"/>
<path d="M136.754 110.261L126.919 101.232C126.919 101.232 137.41 103.801 136.754 110.261Z" fill="#F1F1F1"/>
<path d="M89.3836 67.6919C91.3135 67.6919 92.878 66.1274 92.878 64.1975C92.878 62.2676 91.3135 60.7031 89.3836 60.7031C87.4537 60.7031 85.8892 62.2676 85.8892 64.1975C85.8892 66.1274 87.4537 67.6919 89.3836 67.6919Z" fill="#6C63FF"/>
<path d="M89.0371 65.5307C88.9585 65.5308 88.882 65.5054 88.8191 65.4582L88.8152 65.4553L87.994 64.8271C87.9559 64.798 87.9239 64.7616 87.8999 64.7201C87.8759 64.6786 87.8603 64.6328 87.854 64.5852C87.8477 64.5377 87.8508 64.4894 87.8632 64.4431C87.8756 64.3967 87.897 64.3533 87.9262 64.3153C87.9553 64.2772 87.9917 64.2453 88.0332 64.2213C88.0748 64.1973 88.1206 64.1817 88.1681 64.1755C88.2157 64.1692 88.264 64.1724 88.3103 64.1848C88.3566 64.1972 88.4 64.2186 88.438 64.2478L88.97 64.6558L90.2269 63.0159C90.2561 62.9779 90.2924 62.946 90.3339 62.922C90.3754 62.898 90.4212 62.8825 90.4687 62.8762C90.5162 62.8699 90.5644 62.8731 90.6107 62.8854C90.657 62.8978 90.7004 62.9192 90.7384 62.9483L90.7385 62.9484L90.7307 62.9593L90.7387 62.9484C90.8154 63.0074 90.8656 63.0943 90.8783 63.1902C90.8909 63.2862 90.865 63.3832 90.8062 63.46L89.3277 65.388C89.2935 65.4324 89.2495 65.4683 89.1992 65.493C89.1489 65.5177 89.0935 65.5304 89.0374 65.5303L89.0371 65.5307Z" fill="white"/>
</svg>
