<svg width="113" height="141" viewBox="0 0 113 141" fill="none" xmlns="http://www.w3.org/2000/svg">
<path d="M27.1779 30.0445H0.546509V6.34961H27.1779V30.0445Z" fill="white"/>
<path d="M27.7245 30.5926H0V5.80469H27.7245V30.5926ZM1.09307 29.4996H26.6314V6.89776H1.09307V29.4996Z" fill="#CCCCCC"/>
<path d="M32.301 128.125L29.6208 128.125L28.3456 117.787L32.3014 117.787L32.301 128.125Z" fill="#FFB7B7"/>
<path d="M32.9843 130.723L24.3423 130.723V130.614C24.3424 129.722 24.6968 128.866 25.3276 128.235C25.9584 127.604 26.814 127.25 27.706 127.25H27.7063L32.9845 127.25L32.9843 130.723Z" fill="#2F2E41"/>
<path d="M57.3122 126.478L54.6943 127.053L51.2319 117.229L55.0957 116.381L57.3122 126.478Z" fill="#FFB7B7"/>
<path d="M58.5372 128.871L50.0962 130.724L50.0728 130.617C49.8815 129.746 50.0442 128.834 50.5251 128.083C51.0059 127.331 51.7655 126.802 52.6369 126.61L52.6371 126.61L57.7925 125.479L58.5372 128.871Z" fill="#2F2E41"/>
<path d="M24.7786 91.8092L11.5403 94.6647C9.00128 89.8783 8.43075 84.8785 8.40961 80.1504L21.6479 77.2949C21.4433 82.3203 22.5207 87.315 24.7786 91.8092Z" fill="#1E5DD6"/>
<path d="M11.4295 82.801L11.3167 82.2982L18.1964 80.9082L18.3092 81.411L11.4295 82.801Z" fill="white"/>
<path d="M11.8807 84.8125L11.7679 84.3099L18.6477 82.9199L18.7605 83.4227L11.8807 84.8125Z" fill="white"/>
<path d="M12.332 86.8222L12.2192 86.3194L19.099 84.9297L19.2118 85.4323L12.332 86.8222Z" fill="white"/>
<path d="M12.7832 88.8342L12.6704 88.3314L19.5502 86.9414L19.663 87.4442L12.7832 88.8342Z" fill="white"/>
<path d="M13.2346 90.8457L13.1218 90.3431L20.0016 88.9531L20.1144 89.4557L13.2346 90.8457Z" fill="white"/>
<path d="M54.962 80.0781C55.1688 79.7695 55.3055 79.4192 55.3623 79.052C55.4192 78.6848 55.3948 78.3096 55.291 77.9528C55.1872 77.5961 55.0064 77.2664 54.7613 76.9871C54.5163 76.7077 54.213 76.4855 53.8728 76.3361L53.9928 70.5293L50.4817 69.5957L50.4275 77.7985C50.2144 78.3866 50.2243 79.0325 50.4556 79.6138C50.6868 80.1951 51.1233 80.6713 51.6822 80.9523C52.2411 81.2333 52.8837 81.2995 53.4882 81.1384C54.0926 80.9773 54.617 80.6 54.9619 80.0781L54.962 80.0781Z" fill="#FFB7B7"/>
<path d="M21.2389 26.0942L7.69956 25.7877C6.34528 20.5415 6.95499 15.5464 8.03572 10.9434L21.575 11.2499C20.2055 16.0894 20.0899 21.1977 21.2389 26.0942Z" fill="#1E5DD6"/>
<path d="M10.3554 14.2243L10.3626 13.709L17.3771 13.9597L17.3696 14.475L10.3554 14.2243Z" fill="white"/>
<path d="M10.3259 16.2846L10.3331 15.7695L17.3475 16.0203L17.3401 16.5353L10.3259 16.2846Z" fill="white"/>
<path d="M10.296 18.3454L10.3035 17.8301L17.3179 18.0808L17.3105 18.5961L10.296 18.3454Z" fill="white"/>
<path d="M10.2666 20.4059L10.274 19.8906L17.2885 20.1414L17.2811 20.6566L10.2666 20.4059Z" fill="white"/>
<path d="M10.2371 22.4682L10.2445 21.9531L17.2587 22.2039L17.2515 22.7189L10.2371 22.4682Z" fill="white"/>
<path d="M27.7007 9.81991C30.4124 9.81991 32.6106 7.62164 32.6106 4.90995C32.6106 2.19826 30.4124 0 27.7007 0C24.989 0 22.7907 2.19826 22.7907 4.90995C22.7907 7.62164 24.989 9.81991 27.7007 9.81991Z" fill="#0AB0A5"/>
<path d="M27.5258 7.3026L25.6663 5.02966L25.9588 4.7905L27.4982 6.67233L30.1887 2.72656L30.5007 2.93927L27.5258 7.3026Z" fill="white"/>
<path d="M111.782 71.8003H85.1503V48.1055H111.782V71.8003Z" fill="white"/>
<path d="M112.328 72.3465H84.6038V47.5586H112.328V72.3465ZM85.6968 71.2535H111.235V48.6517H85.6968V71.2535Z" fill="#E6E6E6"/>
<path d="M111.782 30.0445H85.1503V6.34961H111.782V30.0445Z" fill="white"/>
<path d="M112.328 30.5926H84.6038V5.80469H112.328V30.5926ZM85.6968 29.4996H111.235V6.89776H85.6968V29.4996Z" fill="#E6E6E6"/>
<path d="M69.3705 71.8003H42.7391V48.1055H69.3705V71.8003Z" fill="white"/>
<path d="M69.9171 72.3465H42.1926V47.5586H69.9171V72.3465ZM43.2856 71.2535H68.824V48.6517H43.2856V71.2535Z" fill="#CCCCCC"/>
<path d="M27.1779 71.8003H0.546509V48.1055H27.1779V71.8003Z" fill="white"/>
<path d="M27.7245 72.3465H0V47.5586H27.7245V72.3465ZM1.09307 71.2535H26.6314V48.6517H1.09307V71.2535Z" fill="#E6E6E6"/>
<path d="M69.3705 30.0445H42.7391V6.34961H69.3705V30.0445Z" fill="white"/>
<path d="M69.9171 30.5926H42.1926V5.80469H69.9171V30.5926ZM43.2856 29.4996H68.824V6.89776H43.2856V29.4996Z" fill="#E6E6E6"/>
<path d="M65.6735 140.298L69.2312 133.402C75.7967 134.482 76.9555 134.262 82.6927 133.517L84.2182 141C78.0826 140.071 71.8618 139.835 65.6735 140.298Z" fill="#E6E6E6"/>
<path d="M80.5165 139.055L80.405 135.178L80.8125 135.193L80.924 139.07L80.5165 139.055Z" fill="white"/>
<path d="M78.8863 138.992L78.7746 135.115L79.1823 135.131L79.2938 139.008L78.8863 138.992Z" fill="white"/>
<path d="M77.2558 138.93L77.1443 135.053L77.5518 135.068L77.6636 138.945L77.2558 138.93Z" fill="white"/>
<path d="M27.3927 70.9368C27.3927 70.9368 26.1006 71.4537 27.3927 91.0935L27.9096 123.137H33.0779L38.8952 79.5897L45.9989 99.8797L52.4593 123.913L57.6277 122.621C57.6277 122.621 52.2009 74.0378 47.5494 70.9368C42.8978 67.8358 27.3927 70.9368 27.3927 70.9368Z" fill="#2F2E41"/>
<path d="M37.7714 31.1565C40.7378 31.1565 43.1426 28.7517 43.1426 25.7853C43.1426 22.8188 40.7378 20.4141 37.7714 20.4141C34.8049 20.4141 32.4001 22.8188 32.4001 25.7853C32.4001 28.7517 34.8049 31.1565 37.7714 31.1565Z" fill="#FFB8B8"/>
<path d="M42.8979 34.4996C42.8979 34.4996 38.2464 32.1739 33.8533 33.7244C29.4602 35.2749 27.1344 37.0838 27.1344 37.0838L29.977 52.0721L26.1007 72.2287C26.1007 72.2287 45.9989 70.6782 47.8079 72.2287C49.6168 73.7793 49.6168 70.4198 49.6168 70.4198L48.0663 51.2969L50.9089 39.1512L42.8979 34.4996Z" fill="#3F3D56"/>
<path d="M33.2008 25.4139L34.3378 28.319C34.8037 29.5094 35.3374 30.783 36.4296 31.4474C37.778 32.2677 39.5788 31.8677 40.8833 30.9791C42.0566 30.1799 42.9572 29.0409 43.4642 27.7149C43.9712 26.3889 44.0602 24.9396 43.7194 23.5615C43.3786 22.1834 42.6243 20.9426 41.5577 20.0058C40.4912 19.069 39.1634 18.481 37.7529 18.3207L37.6989 19.2931L36.5058 18.293C36.4176 18.4444 36.2962 18.5738 36.1507 18.6716C36.0053 18.7693 35.8396 18.8329 35.6661 18.8574C35.4925 18.882 35.3157 18.8669 35.1489 18.8133C34.982 18.7597 34.8295 18.669 34.7027 18.548C35.0161 19.1976 34.6544 19.99 34.132 20.4877C33.4902 21.0991 31.6547 21.8338 31.7309 22.9268C31.7817 23.6561 32.9049 24.6581 33.2008 25.4139Z" fill="#2F2E41"/>
<path d="M23.2655 80.4222C23.5507 80.184 23.7802 79.8862 23.9379 79.5497C24.0955 79.2133 24.1775 78.8463 24.178 78.4748C24.1785 78.1032 24.0975 77.736 23.9408 77.3991C23.784 77.0622 23.5553 76.7638 23.2708 76.5249L25.0162 70.9853L21.9085 69.1035L19.5535 76.9611C19.1838 77.4658 19.012 78.0885 19.0707 78.7113C19.1295 79.3342 19.4146 79.9138 19.8722 80.3404C20.3298 80.767 20.9279 81.011 21.5533 81.0261C22.1787 81.0411 22.7879 80.8263 23.2655 80.4222Z" fill="#FFB7B7"/>
<path d="M28.9434 37.082H27.1345C27.1345 37.082 24.2919 38.891 24.2919 41.4751C24.2919 44.0593 20.1572 74.2943 20.1572 74.2943L24.5503 75.0696L28.4266 53.8792L31.2692 48.194L28.9434 37.082Z" fill="#3F3D56"/>
<path d="M45.999 39.1504H50.9089C50.9089 39.1504 52.4594 40.7009 53.2347 44.3188C54.0099 47.9366 54.7852 62.1496 54.7852 62.1496L54.2684 75.0706H50.3921L49.8752 58.2734L47.2911 47.4198L45.999 39.1504Z" fill="#3F3D56"/>
<path d="M83.9254 130.963H0.633409C0.575429 130.963 0.51982 130.94 0.478822 130.899C0.437824 130.858 0.414795 130.802 0.414795 130.744C0.414795 130.686 0.437824 130.63 0.478822 130.589C0.51982 130.548 0.575429 130.525 0.633409 130.525H83.9254C83.9834 130.525 84.039 130.548 84.08 130.589C84.121 130.63 84.144 130.686 84.144 130.744C84.144 130.802 84.121 130.858 84.08 130.899C84.039 130.94 83.9834 130.963 83.9254 130.963Z" fill="#CBCBCB"/>
</svg>
