<svg width="34" height="29" viewBox="0 0 34 29" fill="none" xmlns="http://www.w3.org/2000/svg">
<rect x="-2" width="36" height="36" rx="5" fill="#DEE8FA"/>
<path d="M12.9589 26H8.70841C8.52053 26 8.34034 25.9254 8.20749 25.7925C8.07464 25.6597 8 25.4795 8 25.2916V21.3346C8 21.2415 8.01832 21.1494 8.05392 21.0635C8.08953 20.9775 8.14171 20.8994 8.20749 20.8336L18.8336 10.2075C18.9665 10.0746 19.1467 10 19.3346 10C19.5224 10 19.7026 10.0746 19.8355 10.2075L23.7925 14.1645C23.9254 14.2974 24 14.4776 24 14.6654C24 14.8533 23.9254 15.0335 23.7925 15.1664L12.9589 26Z" stroke="#1E5DD6" stroke-width="1.5" stroke-linecap="round" stroke-linejoin="round"/>
<path d="M16.5007 12.541L21.4595 17.4999" stroke="#1E5DD6" stroke-width="1.5" stroke-linecap="round" stroke-linejoin="round"/>
<path d="M23.5849 25.9997H12.9587L8.04492 21.0859" stroke="#1E5DD6" stroke-width="1.5" stroke-linecap="round" stroke-linejoin="round"/>
</svg>
