<svg width="213" height="149" viewBox="0 0 213 149" fill="none" xmlns="http://www.w3.org/2000/svg">
<g clip-path="url(#clip0)">
<path d="M9.48748 57.136C9.69114 69.71 14.3908 71.0713 20.1621 69.7598C26.7552 68.2617 32.1665 63.5659 34.8336 57.3531L36.673 53.0684C37.8958 50.2198 37.9369 47.0022 36.7874 44.1233C35.6379 41.2445 33.3918 38.9402 30.5432 37.7173H30.5432C29.1328 37.1119 27.6169 36.7901 26.0821 36.7705C24.5473 36.7509 23.0237 37.0337 21.5982 37.6029C20.1727 38.1721 18.8733 39.0165 17.7742 40.0879C16.675 41.1592 15.7977 42.4366 15.1922 43.8471C9.27342 46.1721 8.10446 50.9856 9.48748 57.136Z" fill="#2F2E41"/>
<path d="M46.5978 31.828L48.3692 28.8305C48.5855 28.4645 48.7161 28.0542 48.7512 27.6305C48.7864 27.2068 48.7251 26.7806 48.572 26.3839C48.4189 25.9873 48.1779 25.6304 47.8672 25.3402C47.5565 25.05 47.1841 24.8338 46.778 24.7081C46.3493 24.5753 45.8951 24.5469 45.4532 24.6253C45.0114 24.7037 44.5946 24.8865 44.2377 25.1586C43.8809 25.4307 43.5942 25.7841 43.4016 26.1895C43.209 26.5948 43.1161 27.0403 43.1306 27.4888L43.2347 30.7109L34.9099 53.525L39.4496 54.4728L46.5978 31.828Z" fill="#7A4200"/>
<path d="M2.80153 88.0691L0.621159 90.7837C0.354906 91.1152 0.167175 91.5027 0.0720506 91.9171C-0.0230739 92.3315 -0.0231222 92.762 0.0719088 93.1765C0.16694 93.5909 0.354583 93.9784 0.620761 94.3099C0.886939 94.6415 1.22474 94.9084 1.60882 95.0908C2.01422 95.2833 2.45974 95.3761 2.90827 95.3614C3.3568 95.3468 3.79534 95.2252 4.18734 95.0068C4.57934 94.7883 4.91345 94.4793 5.16182 94.1055C5.4102 93.7318 5.56564 93.3041 5.6152 92.858L5.9712 89.654L17.4613 68.2587L13.103 66.6738L2.80153 88.0691Z" fill="#7A4200"/>
<path d="M16.2727 110.652L16.5936 114.507L16.6689 115.406L38.0088 113.354C38.7444 113.271 39.45 113.016 40.0683 112.609C40.6867 112.202 41.2003 111.655 41.5674 111.012C41.9346 110.369 42.1449 109.649 42.1812 108.91C42.2176 108.17 42.079 107.433 41.7767 106.757L34.8946 91.9824L32.5173 86.8792L22.2159 84.502C13.7211 91.0038 21.364 98.1791 30.98 105.438C31.3564 105.723 31.7368 106.008 32.1211 106.294L16.2727 110.652Z" fill="#2F2E41"/>
<path d="M9.08207 124.003C9.34208 124.04 9.60728 124.01 9.85222 123.915C10.0972 123.82 10.3137 123.664 10.4809 123.461L17.4613 115.011L17.0651 111.049L14.685 109.621C14.4903 109.505 14.2725 109.431 14.0467 109.407C13.821 109.383 13.5927 109.408 13.3777 109.481C13.1627 109.554 12.9661 109.673 12.8017 109.83C12.6373 109.986 12.5089 110.177 12.4256 110.388L7.87277 121.922C7.78774 122.137 7.75261 122.369 7.77003 122.6C7.78744 122.831 7.85694 123.055 7.9733 123.255C8.08967 123.456 8.24989 123.627 8.44192 123.756C8.63395 123.886 8.85281 123.97 9.08207 124.003Z" fill="#2F2E41"/>
<path opacity="0.2" d="M15.084 109.859L15.4803 114.614L16.5936 114.507L36.8201 112.562C37.5557 112.479 38.2613 112.223 38.8797 111.816C39.498 111.409 40.0116 110.862 40.3788 110.22C40.7459 109.577 40.9562 108.857 40.9926 108.117C41.029 107.378 40.8904 106.64 40.5881 105.965L34.8946 93.2186V91.9824L32.5173 86.8792L22.2158 84.502C13.7211 91.0038 21.364 98.1791 30.98 105.438L30.9325 105.501L15.084 109.859Z" fill="#2F2E41"/>
<path d="M7.10105 122.417C7.36106 122.454 7.62625 122.424 7.8712 122.329C8.11615 122.234 8.33264 122.078 8.49991 121.875L15.4803 113.426L15.0841 109.463L12.704 108.035C12.5093 107.919 12.2915 107.846 12.0657 107.821C11.84 107.797 11.6116 107.823 11.3966 107.895C11.1816 107.968 10.9851 108.087 10.8207 108.244C10.6563 108.401 10.5279 108.591 10.4446 108.802L5.89176 120.336C5.80673 120.551 5.7716 120.783 5.78901 121.014C5.80642 121.245 5.87592 121.469 5.99229 121.669C6.10865 121.87 6.26887 122.041 6.4609 122.17C6.65293 122.3 6.87179 122.384 7.10105 122.417Z" fill="#2F2E41"/>
<path d="M14.2916 109.068L14.6878 113.822L36.0277 111.769C36.7633 111.687 37.4689 111.431 38.0872 111.025C38.7056 110.618 39.2193 110.071 39.5866 109.428C39.9538 108.785 40.1643 108.065 40.201 107.326C40.2376 106.587 40.0993 105.849 39.7973 105.173L34.1021 92.427V85.2952L20.2348 82.918C11.4058 89.675 20.0082 97.1603 30.14 104.709L14.2916 109.068Z" fill="#2F2E41"/>
<path d="M27.7628 53.2027C31.0451 53.2027 33.7059 50.5419 33.7059 47.2596C33.7059 43.9772 31.0451 41.3164 27.7628 41.3164C24.4805 41.3164 21.8196 43.9772 21.8196 47.2596C21.8196 50.5419 24.4805 53.2027 27.7628 53.2027Z" fill="#7A4200"/>
<path d="M19.8386 57.1636L28.159 62.7105L35.2908 61.1257L31.3287 57.1636V51.2204L24.9893 50.8242C24.8562 53.1975 23.4963 55.3693 19.8386 57.1636Z" fill="#7A4200"/>
<path d="M18.65 84.8979L34.1021 86.879L37.668 70.2382C39.3246 65.821 38.3741 61.9184 35.3071 58.4335C35.1898 57.847 34.8773 57.3176 34.4206 56.9314C33.9639 56.5453 33.3898 56.3252 32.792 56.3071L31.3287 56.3708C31.4942 61.6256 27.6227 60.3599 21.8196 55.9746L21.1189 56.1848C20.2131 56.4566 19.4354 57.0454 18.9281 57.8436C18.4208 58.6418 18.2179 59.5959 18.3565 60.5315L18.9955 64.8444C19.2664 66.5543 19.6873 68.237 20.2533 69.873C21.8375 74.6077 21.2714 79.6201 18.65 84.8979Z" fill="#4664E6"/>
<path d="M11.5182 67.0692L18.65 69.4464L21.8196 57.9563L20.7458 57.4682C19.8555 57.0636 18.8446 57.0127 17.9183 57.3261C16.9919 57.6395 16.2194 58.2935 15.7576 59.1555L11.5182 67.0692Z" fill="#4664E6"/>
<path d="M32.5173 56.3726L36.4795 60.7308L41.2338 53.2028L35.2907 50.0332L32.5173 56.3726Z" fill="#4664E6"/>
<path d="M20.8291 45.4752C24.5638 46.8835 28.5494 46.7375 32.7154 45.4752V40.7207H20.8291V45.4752Z" fill="#2F2E41"/>
<path d="M206.187 127.091L202.089 128.798L174.774 91.5814L154.971 129.481L149.849 128.457L164.873 76.2168H182.286L206.187 127.091Z" fill="#2F2E41"/>
<path d="M211.683 135.773C211.456 135.835 211.219 135.852 210.986 135.822C210.752 135.792 210.527 135.716 210.323 135.598L201.682 130.623C201.449 130.489 201.249 130.303 201.1 130.079C200.95 129.855 200.854 129.6 200.819 129.333C200.783 129.067 200.81 128.795 200.896 128.54C200.983 128.286 201.127 128.054 201.317 127.864L202.089 127.091L206.186 126.75L212.45 132.763C212.678 132.982 212.844 133.257 212.93 133.561C213.017 133.864 213.022 134.186 212.944 134.492C212.866 134.798 212.708 135.077 212.487 135.303C212.265 135.528 211.988 135.69 211.683 135.773Z" fill="#2F2E41"/>
<path d="M144.694 137.141C144.921 137.203 145.158 137.219 145.392 137.189C145.625 137.159 145.85 137.083 146.054 136.965L154.695 131.99C154.928 131.856 155.128 131.67 155.277 131.446C155.427 131.223 155.523 130.967 155.559 130.701C155.594 130.434 155.567 130.162 155.481 129.908C155.394 129.653 155.25 129.421 155.06 129.231L154.288 128.459L150.191 128.117L143.927 134.13C143.699 134.349 143.534 134.624 143.447 134.928C143.36 135.231 143.355 135.553 143.433 135.859C143.511 136.165 143.669 136.445 143.89 136.67C144.112 136.895 144.389 137.057 144.694 137.141Z" fill="#2F2E41"/>
<path d="M153.264 21.929L151.556 22.9533L148.019 17.2043C147.801 16.8512 147.672 16.4511 147.642 16.0376C147.612 15.6241 147.681 15.2094 147.845 14.8285C148.009 14.4476 148.262 14.1116 148.582 13.8489C148.903 13.5863 149.282 13.4045 149.688 13.3191C150.049 13.2432 150.421 13.2453 150.781 13.3252C151.141 13.4051 151.48 13.5611 151.774 13.7826C152.069 14.0041 152.313 14.2861 152.49 14.6096C152.666 14.9331 152.772 15.2906 152.799 15.6582L153.264 21.929Z" fill="#F4DCA5"/>
<path d="M200.555 66.6868L201.263 64.8262L207.599 67.1567C207.988 67.2998 208.337 67.5344 208.616 67.8407C208.895 68.1469 209.097 68.5159 209.204 68.9165C209.311 69.3171 209.32 69.7374 209.23 70.1422C209.141 70.547 208.955 70.9243 208.689 71.2423C208.452 71.525 208.158 71.7539 207.826 71.9136C207.494 72.0733 207.131 72.1601 206.763 72.1682C206.394 72.1763 206.028 72.1055 205.689 71.9605C205.35 71.8156 205.046 71.5998 204.798 71.3278L200.555 66.6868Z" fill="#F4DCA5"/>
<path d="M173.75 42.415C176.578 42.415 178.871 40.122 178.871 37.2934C178.871 34.4649 176.578 32.1719 173.75 32.1719C170.921 32.1719 168.628 34.4649 168.628 37.2934C168.628 40.122 170.921 42.415 173.75 42.415Z" fill="#F4DCA5"/>
<path d="M178.189 48.2195H171.018V40.3665L177.164 39.6836L178.189 48.2195Z" fill="#F4DCA5"/>
<path d="M183.31 78.2672H163.848C164.534 67.4082 165.078 56.9143 163.848 50.9521L164.98 45.5202C165.137 44.7676 165.571 44.1016 166.196 43.6545C166.822 43.2075 167.593 43.0123 168.355 43.1076L171.018 43.4405C172.822 46.6108 175.001 46.5802 177.506 43.7819H180.713C181.141 43.7819 181.564 43.8672 181.958 44.0328C182.353 44.1984 182.71 44.441 183.009 44.7463C183.309 45.0517 183.544 45.4137 183.702 45.8112C183.86 46.2086 183.936 46.6336 183.928 47.0611C184.764 50.8869 185.042 54.8135 184.753 58.7189L183.31 78.2672Z" fill="#949FAF"/>
<path d="M150.532 21.9282L153.264 20.5625L167.945 44.8046L163.848 50.9504L150.532 21.9282Z" fill="#949FAF"/>
<path d="M200.594 67.6583L202.928 65.6892L190.524 48.3085C189.311 46.608 187.638 45.2886 185.702 44.5046C183.765 43.7207 181.646 43.5047 179.591 43.8819L179.2 43.9538L183.89 52.1616L190.067 56.8386L200.594 67.6583Z" fill="#949FAF"/>
<path d="M179.673 34.27C179.673 34.27 180.63 32.1645 178.142 31.2075C178.142 31.2075 176.036 27.7622 171.825 30.0591C171.825 30.0591 168.954 31.2075 168.954 34.27C168.954 37.3324 167.997 37.9067 167.997 37.9067C167.997 37.9067 169.422 36.4446 169.805 35.2961C170.188 34.1477 173.165 33.8872 174.314 35.0356C175.462 36.184 178.333 35.9926 178.333 35.9926L178.142 40.2035C178.142 40.2035 179.099 37.7152 179.482 37.7152C179.864 37.7152 180.247 34.27 179.673 34.27Z" fill="#2F2E41"/>
<path d="M179.2 148.882C196.507 148.882 210.538 148.151 210.538 147.249C210.538 146.348 196.507 145.617 179.2 145.617C161.893 145.617 147.862 146.348 147.862 147.249C147.862 148.151 161.893 148.882 179.2 148.882Z" fill="#E6E6E6"/>
<path d="M22.7356 148.112C31.8838 148.112 39.2998 147.726 39.2998 147.249C39.2998 146.773 31.8838 146.387 22.7356 146.387C13.5875 146.387 6.17145 146.773 6.17145 147.249C6.17145 147.726 13.5875 148.112 22.7356 148.112Z" fill="#E6E6E6"/>
<path d="M149.291 28.7159L48.5926 37.7409C48.0981 37.7847 47.6065 37.6305 47.2256 37.3122C46.8447 36.994 46.6055 36.5376 46.5606 36.0433L44.3219 11.0642C44.2782 10.5698 44.4324 10.0782 44.7506 9.69724C45.0689 9.31631 45.5252 9.07718 46.0196 9.03229L146.718 0.00729276C147.213 -0.0364353 147.704 0.11774 148.085 0.435999C148.466 0.754257 148.705 1.21061 148.75 1.70495L150.989 26.684C151.033 27.1785 150.879 27.6701 150.56 28.051C150.242 28.4319 149.786 28.671 149.291 28.7159Z" fill="#4664E6"/>
<path d="M60.3596 30.0805C64.7025 30.0805 68.2231 26.5599 68.2231 22.217C68.2231 17.8741 64.7025 14.3535 60.3596 14.3535C56.0167 14.3535 52.4961 17.8741 52.4961 22.217C52.4961 26.5599 56.0167 30.0805 60.3596 30.0805Z" fill="white"/>
<path d="M77.9801 15.3742C77.6344 15.4058 77.3153 15.5733 77.093 15.84C76.8707 16.1066 76.7632 16.4505 76.7942 16.7963C76.8252 17.1421 76.9921 17.4614 77.2583 17.6843C77.5245 17.9071 77.8682 18.0152 78.214 17.9849L139.752 12.4696C139.924 12.4545 140.091 12.4057 140.243 12.326C140.396 12.2463 140.532 12.1372 140.642 12.0051C140.753 11.873 140.836 11.7204 140.888 11.556C140.939 11.3916 140.958 11.2187 140.942 11.0471C140.927 10.8755 140.878 10.7087 140.798 10.5561C140.718 10.4035 140.609 10.2681 140.477 10.1578C140.344 10.0474 140.192 9.9642 140.027 9.91292C139.863 9.86165 139.69 9.84329 139.518 9.85892L77.9801 15.3742Z" fill="white"/>
<path d="M78.682 23.2062C78.5104 23.2213 78.3433 23.27 78.1905 23.3497C78.0377 23.4294 77.9022 23.5384 77.7916 23.6705C77.6809 23.8026 77.5975 23.9553 77.5459 24.1197C77.4944 24.2842 77.4758 24.4571 77.4911 24.6288C77.5065 24.8004 77.5556 24.9673 77.6356 25.12C77.7155 25.2726 77.8248 25.408 77.9572 25.5183C78.0895 25.6287 78.2423 25.7119 78.4068 25.7631C78.5714 25.8143 78.7444 25.8326 78.916 25.8169L140.454 20.3017C140.626 20.2865 140.793 20.2377 140.945 20.158C141.098 20.0783 141.233 19.9693 141.344 19.8371C141.455 19.705 141.538 19.5524 141.589 19.388C141.641 19.2236 141.66 19.0507 141.644 18.8791C141.629 18.7076 141.58 18.5407 141.5 18.3881C141.42 18.2355 141.311 18.1001 141.178 17.9898C141.046 17.8794 140.893 17.7962 140.729 17.745C140.565 17.6937 140.392 17.6753 140.22 17.6909L78.682 23.2062Z" fill="white"/>
</g>
<defs>
<clipPath id="clip0">
<rect width="213" height="148.882" fill="white"/>
</clipPath>
</defs>
</svg>
