<svg width="441" height="362" viewBox="0 0 441 362" fill="none" xmlns="http://www.w3.org/2000/svg">
<path d="M322.753 298.018C326.254 299.248 330.013 299.557 333.668 298.913C337.322 298.269 340.75 296.695 343.619 294.342C350.928 288.208 353.219 278.102 355.084 268.744L360.598 241.066L349.053 249.016C340.75 254.733 332.26 260.633 326.511 268.914C320.762 277.195 318.253 288.499 322.872 297.459" fill="#E6E6E6"/>
<path d="M323.74 331.526C322.572 323.014 321.37 314.393 322.19 305.79C322.918 298.149 325.249 290.687 329.994 284.568C332.513 281.326 335.578 278.549 339.052 276.361C339.957 275.789 340.791 277.224 339.889 277.793C333.879 281.592 329.231 287.201 326.614 293.811C323.724 301.162 323.26 309.176 323.758 316.985C324.059 321.708 324.697 326.399 325.34 331.085C325.391 331.297 325.36 331.52 325.252 331.709C325.144 331.899 324.969 332.04 324.761 332.105C324.549 332.163 324.323 332.134 324.131 332.025C323.94 331.917 323.8 331.737 323.74 331.526Z" fill="#F2F2F2"/>
<path d="M334.996 316.466C336.497 318.748 338.561 320.605 340.988 321.858C343.416 323.11 346.125 323.717 348.855 323.619C355.871 323.286 361.72 318.389 366.985 313.74L382.559 299.99L372.252 299.497C364.839 299.142 357.236 298.811 350.176 301.097C343.116 303.383 336.605 308.884 335.314 316.192" fill="#E6E6E6"/>
<path d="M320.438 336.42C326.063 326.468 332.587 315.407 344.244 311.872C347.485 310.893 350.884 310.542 354.257 310.838C355.32 310.93 355.054 312.569 353.993 312.477C348.339 312.008 342.696 313.501 338.014 316.705C333.509 319.772 330.001 324.035 327.031 328.557C325.213 331.326 323.584 334.213 321.954 337.096C321.434 338.017 319.912 337.352 320.438 336.42V336.42Z" fill="#F2F2F2"/>
<path d="M181.813 266.505C174.913 268.93 167.505 269.538 160.302 268.269C153.1 267 146.345 263.898 140.689 259.261C126.285 247.171 121.769 227.254 118.095 208.811C114.472 190.628 110.849 172.445 107.226 154.262L129.981 169.93C146.344 181.197 163.077 192.825 174.407 209.146C185.737 225.466 190.683 247.745 181.579 265.404" fill="#E6E6E6"/>
<path d="M179.868 332.548C182.171 315.772 184.539 298.781 182.923 281.826C181.489 266.768 176.895 252.06 167.542 240.001C162.577 233.612 156.536 228.138 149.691 223.825C147.906 222.698 146.263 225.527 148.04 226.649C159.885 234.135 169.047 245.189 174.204 258.217C179.9 272.706 180.815 288.499 179.833 303.89C179.24 313.197 177.982 322.444 176.714 331.678C176.614 332.096 176.676 332.536 176.888 332.909C177.1 333.283 177.446 333.562 177.856 333.69C178.274 333.803 178.72 333.746 179.096 333.532C179.473 333.318 179.75 332.965 179.868 332.548Z" fill="#F2F2F2"/>
<path d="M157.685 302.863C154.725 307.361 150.658 311.02 145.874 313.49C141.089 315.959 135.75 317.154 130.37 316.961C116.542 316.305 105.015 306.654 94.6379 297.492L63.9448 270.392L84.2585 269.42C98.8669 268.721 113.852 268.069 127.766 272.574C141.68 277.079 154.512 287.921 157.057 302.323" fill="#E6E6E6"/>
<path d="M186.377 342.192C175.292 322.577 162.434 300.778 139.46 293.811C133.072 291.88 126.374 291.189 119.726 291.774C117.631 291.954 118.154 295.184 120.245 295.004C131.388 294.078 142.51 297.021 151.738 303.335C160.617 309.379 167.531 317.782 173.383 326.693C176.967 332.152 180.178 337.841 183.389 343.524C184.416 345.339 187.415 344.029 186.377 342.192Z" fill="#F2F2F2"/>
<path d="M100.82 76.6455L5.37794 56.6495L4.13763 56.3903C3.50597 56.257 2.84951 56.3047 2.24376 56.5279C1.63801 56.7511 1.10756 57.1408 0.713409 57.6521C0.31926 58.1633 0.0774285 58.7755 0.0157104 59.4181C-0.0460077 60.0607 0.0749061 60.7077 0.364539 61.2846L38.6668 137.916C38.9147 138.408 39.2772 138.834 39.7239 139.157C40.1705 139.48 40.6882 139.691 41.2334 139.772C41.7803 139.854 42.3389 139.801 42.861 139.619C43.383 139.436 43.8527 139.129 44.2296 138.725L70.3519 110.851C70.5376 110.648 70.7635 110.485 71.0152 110.374C71.2669 110.262 71.539 110.204 71.8144 110.202C72.1886 110.195 72.5579 110.289 72.8826 110.475C73.2073 110.662 73.4753 110.933 73.6579 111.259L79.1013 121.187C79.449 121.849 80.0081 122.375 80.6897 122.683C81.3713 122.99 82.1362 123.061 82.8625 122.883L82.8893 122.877C83.6246 122.717 84.2846 122.314 84.7633 121.733C85.242 121.152 85.5115 120.428 85.5285 119.675L86.4705 96.6796C86.4817 96.3927 86.5517 96.1111 86.6761 95.8524C86.8099 95.5962 86.9921 95.3685 87.2126 95.1818L102.304 82.6431C102.8 82.231 103.17 81.6875 103.371 81.0748C103.572 80.4621 103.597 79.8051 103.442 79.1791C103.287 78.553 102.959 77.9833 102.495 77.5352C102.032 77.0871 101.451 76.7788 100.82 76.6455V76.6455ZM101.431 81.59L86.3404 94.1287C86.1437 94.2891 85.9657 94.471 85.8097 94.6712L5.2178 58.6968C5.14671 58.6642 5.07259 58.6387 4.99652 58.6206C4.68603 58.5426 4.35802 58.5755 4.06923 58.7137C3.78044 58.8519 3.54902 59.0866 3.41499 59.3774C3.28095 59.6681 3.25273 59.9966 3.33521 60.3059C3.41769 60.6152 3.60568 60.886 3.86667 61.0714L70.2416 109.224C69.9072 109.4 69.6058 109.633 69.3506 109.912L43.2286 137.785C43.0019 138.026 42.7204 138.21 42.4078 138.319C42.0952 138.428 41.7609 138.46 41.4332 138.413C41.1055 138.365 40.7942 138.239 40.5256 138.045C40.2571 137.852 40.0393 137.596 39.8907 137.3L1.58849 60.6687C1.41724 60.3224 1.34669 59.935 1.38487 59.5507C1.42305 59.1663 1.56844 58.8003 1.80446 58.4945C2.04048 58.1887 2.35762 57.9554 2.7198 57.821C3.08198 57.6867 3.4746 57.6568 3.85295 57.7347L5.1227 58.0012L100.535 77.99C100.914 78.0697 101.262 78.2544 101.541 78.5231C101.82 78.7917 102.017 79.1335 102.111 79.5091C102.204 79.8848 102.19 80.2792 102.07 80.6472C101.95 81.0152 101.729 81.3419 101.431 81.5899L101.431 81.59Z" fill="#CCCCCC"/>
<path d="M100.82 76.6455L5.37794 56.6495L4.13763 56.3903C3.50597 56.257 2.84951 56.3047 2.24376 56.5279C1.63801 56.7511 1.10756 57.1408 0.713409 57.6521C0.31926 58.1633 0.0774285 58.7755 0.0157104 59.4181C-0.0460077 60.0607 0.0749061 60.7077 0.364539 61.2846L38.6668 137.916C38.9147 138.408 39.2772 138.834 39.7239 139.157C40.1705 139.48 40.6882 139.691 41.2334 139.772C41.7803 139.854 42.3389 139.801 42.861 139.619C43.383 139.436 43.8527 139.129 44.2296 138.725L70.3519 110.851C70.5376 110.648 70.7635 110.485 71.0152 110.374C71.2669 110.262 71.539 110.204 71.8144 110.202C72.1886 110.195 72.5579 110.289 72.8826 110.475C73.2073 110.662 73.4753 110.933 73.6579 111.259L79.1013 121.187C79.449 121.849 80.0081 122.375 80.6897 122.683C81.3713 122.99 82.1362 123.061 82.8625 122.883L82.8893 122.877C83.6246 122.717 84.2846 122.314 84.7633 121.733C85.242 121.152 85.5115 120.428 85.5285 119.675L86.4705 96.6796C86.4817 96.3927 86.5517 96.1111 86.6761 95.8524C86.8099 95.5962 86.9921 95.3685 87.2126 95.1818L102.304 82.6431C102.8 82.231 103.17 81.6875 103.371 81.0748C103.572 80.4621 103.597 79.8051 103.442 79.1791C103.287 78.553 102.959 77.9833 102.495 77.5352C102.032 77.0871 101.451 76.7788 100.82 76.6455V76.6455ZM101.431 81.59L86.3403 94.1287C86.1437 94.2891 85.9657 94.4711 85.8097 94.6712C85.6691 94.8493 85.5478 95.0419 85.4481 95.2458C85.3435 95.4542 85.2615 95.6733 85.2033 95.8991L85.2048 95.9058C85.1434 96.141 85.1086 96.3824 85.1011 96.6255L84.1594 119.621C84.153 120.073 83.993 120.509 83.7056 120.859C83.4183 121.208 83.0207 121.448 82.5783 121.542L82.5649 121.545C82.129 121.656 81.6685 121.616 81.2578 121.433C80.8472 121.249 80.5107 120.932 80.3027 120.533L74.8577 110.6C74.5772 110.089 74.1708 109.658 73.677 109.348C73.1832 109.038 72.6185 108.86 72.0364 108.83L72.0299 108.831C71.9516 108.828 71.8735 108.825 71.797 108.828C71.254 108.831 70.7201 108.967 70.2416 109.224C69.9073 109.4 69.6059 109.633 69.3506 109.912L43.2286 137.785C43.0019 138.026 42.7204 138.21 42.4078 138.319C42.0952 138.428 41.7609 138.46 41.4332 138.413C41.1055 138.365 40.7942 138.239 40.5256 138.045C40.2571 137.851 40.0393 137.596 39.8907 137.3L1.58849 60.6687C1.41724 60.3224 1.34669 59.935 1.38487 59.5507C1.42305 59.1663 1.56844 58.8003 1.80446 58.4945C2.04048 58.1887 2.35762 57.9554 2.7198 57.821C3.08198 57.6867 3.4746 57.6568 3.85295 57.7347L5.1227 58.0012L100.535 77.99C100.914 78.0697 101.262 78.2544 101.541 78.5231C101.82 78.7917 102.017 79.1335 102.111 79.5091C102.204 79.8848 102.19 80.2792 102.07 80.6472C101.95 81.0152 101.729 81.3419 101.431 81.5899L101.431 81.59Z" fill="#3F3D56"/>
<path d="M86.1144 94.8067L85.5554 96.0589L85.2046 95.9067L85.2031 95.9L4.67496 59.9603L72.0296 108.832L72.0361 108.831L72.2145 108.966L71.4125 110.076L70.2413 109.225L3.86642 61.0723C3.60541 60.8869 3.41742 60.6161 3.33493 60.3068C3.25244 59.9974 3.28065 59.669 3.41469 59.3782C3.54873 59.0875 3.78017 58.8527 4.06897 58.7145C4.35778 58.5764 4.68581 58.5434 4.9963 58.6215C5.07237 58.6396 5.14649 58.6651 5.21758 58.6977L85.8095 94.6721L86.1144 94.8067Z" fill="#3F3D56"/>
<path d="M293.328 190.611L296.811 224.665L296.879 225.365L297.914 235.464L306.416 318.614V318.628L308.068 334.76C307.423 335.627 306.852 336.546 306.361 337.509C304.863 340.465 304.131 343.749 304.232 347.061C304.333 350.373 305.263 353.607 306.937 356.466C311.085 355.424 315.176 354.236 319.209 352.901C327.554 350.156 335.692 346.82 343.562 342.919C342.743 338.415 340.391 334.333 336.905 331.366L328.369 228.806L327.622 219.811L325.188 190.611H293.328Z" fill="#FFB8B8"/>
<path d="M317.739 97.8624C335.343 80.2588 335.343 51.7177 317.74 34.1142C300.136 16.5106 271.595 16.5106 253.991 34.1142C236.388 51.7178 236.388 80.2588 253.991 97.8624C271.595 115.466 300.136 115.466 317.739 97.8624Z" fill="#FFB8B8"/>
<path d="M201.847 252.035C201.854 252.124 201.861 252.213 201.868 252.295C202.018 254.054 202.726 255.718 203.889 257.046C205.053 258.373 206.61 259.293 208.334 259.672L275.605 274.365C276.188 274.492 276.784 274.557 277.381 274.557C279.185 274.556 280.94 273.964 282.375 272.87C283.81 271.777 284.847 270.242 285.327 268.503C285.471 267.968 285.628 267.42 285.8 266.851V266.844C288.069 259.138 292.121 248.648 297.914 235.464C299.224 232.481 300.625 229.357 302.117 226.091C302.392 225.488 302.673 224.878 302.947 224.268C306.025 217.583 309.46 210.348 313.252 202.562C315.107 198.755 316.508 194.745 317.427 190.611C319.869 179.7 318.905 168.302 314.664 157.956C313.8 155.85 312.804 153.8 311.681 151.82C307.254 144.014 300.98 137.413 293.409 132.595C285.838 127.777 277.202 124.889 268.255 124.183C266.836 124.067 265.424 124.012 264.004 124.012C249.809 124.074 236.184 129.604 225.96 139.452C219.927 145.301 215.347 152.481 212.584 160.417C212.406 160.918 212.241 161.425 212.077 161.933C209.544 169.962 207.511 178.141 205.988 186.422C205.077 191.338 204.336 196.185 203.74 200.909C201.649 217.866 201.016 234.97 201.847 252.035Z" fill="#1E5DD6"/>
<path d="M172.222 338.175C213.092 361.405 261.353 367.958 306.937 356.467C311.085 355.425 315.175 354.236 319.209 352.902C315.63 341.233 311.358 329.788 306.416 318.628V318.614C298.175 300.137 290.606 288.832 286.917 283.841C286.311 283.014 285.912 282.054 285.753 281.041C285.594 280.028 285.681 278.992 286.005 278.02L287.15 274.585C287.586 273.285 287.691 271.897 287.455 270.547C287.219 269.197 286.65 267.926 285.8 266.851V266.844C285.724 266.748 285.642 266.652 285.56 266.556C255.592 232.413 203.349 251.041 202.821 251.233L202.56 251.329L202.396 251.555C202.217 251.802 202.039 252.042 201.868 252.296C187.703 272.144 178.29 302.654 172.222 338.175Z" fill="#2F2E41"/>
<path d="M110.624 118.348C110.849 119.339 110.996 120.345 111.063 121.359L189.903 166.841L209.066 155.809L229.495 182.553L197.468 205.38C194.881 207.224 191.765 208.179 188.589 208.102C185.412 208.024 182.347 206.919 179.852 204.951L98.5552 140.815C94.8863 142.173 90.8909 142.382 87.1003 141.414C83.3097 140.446 79.9038 138.347 77.3353 135.396C74.7669 132.445 73.1578 128.782 72.722 124.894C72.2862 121.006 73.0444 117.077 74.8957 113.631C76.7471 110.185 79.6038 107.383 83.086 105.6C86.5681 103.817 90.5107 103.136 94.3892 103.648C98.2678 104.16 101.899 105.841 104.799 108.467C107.698 111.093 109.73 114.54 110.624 118.348Z" fill="#FFB8B8"/>
<path d="M191.111 166.143V166.15C191.396 167.182 191.881 168.149 192.537 168.995L205.988 186.423L212.398 194.74L218.021 202.021C218.745 202.96 219.664 203.733 220.714 204.285C221.764 204.838 222.921 205.157 224.106 205.222C225.291 205.288 226.476 205.096 227.58 204.662C228.684 204.228 229.682 203.561 230.505 202.706L250.923 181.507L259.349 172.752C264.136 169.017 267.247 163.535 267.999 157.509C268.751 151.483 267.082 145.405 263.359 140.607C259.636 135.81 254.163 132.684 248.139 131.917C242.115 131.149 236.033 132.801 231.225 136.511L225.96 139.452L195.046 156.743C193.435 157.647 192.173 159.062 191.46 160.766C190.747 162.469 190.624 164.362 191.111 166.143H191.111Z" fill="#1E5DD6"/>
<path d="M280.281 177.071L281.57 218.242L281.577 218.502C281.613 219.689 281.905 220.854 282.433 221.918C282.961 222.981 283.711 223.918 284.634 224.666C285.557 225.413 286.63 225.952 287.78 226.246C288.93 226.541 290.131 226.584 291.299 226.373L296.88 225.365L298.306 225.105H298.313L302.947 224.268L327.622 219.812L332.346 218.962C333.513 218.749 334.621 218.288 335.595 217.61C336.568 216.931 337.384 216.051 337.987 215.029C338.59 214.008 338.966 212.868 339.089 211.688C339.212 210.508 339.08 209.315 338.702 208.191L325.394 168.789C324.281 162.82 320.847 157.537 315.845 154.096C310.842 150.656 304.68 149.339 298.708 150.436C292.736 151.532 287.443 154.952 283.989 159.945C280.535 164.938 279.201 171.097 280.281 177.071Z" fill="#6C63FF"/>
<path d="M278.731 55.619C267.146 63.5485 251.933 71.6994 240.1 63.2553C232.331 57.7107 229.883 47.4433 233.033 38.4331C238.699 22.2301 254.267 15.0967 269.153 9.62887C288.505 2.52067 309.577 -3.13422 329.555 1.95632C349.533 7.04686 367.189 26.3895 363.582 46.6879C360.682 63.0114 345.284 76.5939 347.47 93.0284C349.67 109.568 368.271 118.275 384.693 121.231C401.114 124.187 419.491 125.137 431.292 136.932C446.347 151.979 442.588 178.874 428.422 194.761C414.255 210.648 392.878 217.85 372.163 222.745C344.717 229.232 315.032 232.64 288.965 221.876C262.898 211.111 242.613 182.133 250.164 154.961C253.354 143.484 260.868 133.783 268.129 124.34C275.391 114.897 282.744 105.022 285.514 93.4358C287.822 83.7808 286.114 72.5708 279.711 65.3285C278.546 64.0608 277.814 62.4567 277.618 60.7466C277.422 59.0364 277.773 57.3081 278.62 55.8098L278.731 55.619Z" fill="#2F2E41"/>
</svg>
